<?xml version="1.0" encoding="utf-8"?>
<!-- Generator: Adobe Illustrator 25.2.0, SVG Export Plug-In . SVG Version: 6.00 Build 0)  -->
<svg version="1.1" xmlns="http://www.w3.org/2000/svg" xmlns:xlink="http://www.w3.org/1999/xlink" x="0px" y="0px"
	 viewBox="0 0 220 140" style="enable-background:new 0 0 220 140;" xml:space="preserve">
<style type="text/css">
	.st0{display:none;}
	.st1{display:inline;}
	.st2{fill:#CC6666;}
	.st3{fill:#FFFFFF;}
	.st4{fill:#B1DDD3;}
	.st5{fill:#CC6699;}
	.st6{fill:#62C3DE;}
	.st7{display:inline;fill:#A681BA;}
	.st8{display:inline;fill:#B1DDD3;}
	.st9{display:inline;fill:#CC6666;}
	.st10{display:inline;fill:#62C3DE;}
</style>
<g id="contacto_2_" class="st0">
</g>
<g id="acerca_2_" class="st0">
</g>
<g id="home_2_">
	<g id="home_1_">
		<path class="st6" d="M0.81,58.08c0,0,11.7-52.93,77.77-41.59c66.07,11.34,137.54,4.39,141.22,55.99
			c3.68,51.6-97.28,58-151.48,49.51S-3.89,93.35,0.81,58.08"/>
		<g id="home">
			<path class="st3" d="M64.67,72.91l-0.25-0.09l-0.2,0.23c0.08,0.21,0.2,0.32,0.36,0.32c-0.04,0.52-0.07,1.04-0.08,1.57
				c-0.01,0.53-0.01,1.05-0.01,1.57c-0.21,0.21-0.32,0.43-0.32,0.64c0,0.12,0.01,0.24,0.05,0.34c0.03,0.11,0.06,0.22,0.09,0.34
				l-0.18,0.55c0.12,0.61,0.13,1.13,0.02,1.57c-0.11,0.44-0.16,0.93-0.16,1.48c0,0.24,0.04,0.43,0.14,0.55
				c-0.06,0.24-0.11,0.48-0.16,0.7c-0.04,0.23-0.11,0.46-0.2,0.71L63.99,84c-0.03,0.15-0.07,0.32-0.11,0.5
				c-0.04,0.18-0.07,0.35-0.07,0.5c0,0.21,0.01,0.42,0.02,0.64c0.01,0.21-0.09,0.38-0.3,0.5c0.12,0.09,0.2,0.2,0.23,0.34
				c0.03,0.14,0.04,0.28,0.04,0.43c0,0.18-0.01,0.37-0.04,0.57c-0.03,0.2-0.03,0.39,0,0.57c-0.21-0.03-0.46,0.01-0.73,0.14
				c-0.27,0.12-0.48,0.24-0.64,0.36c-0.15-0.12-0.31-0.18-0.48-0.16c-0.17,0.01-0.33-0.04-0.48-0.16l-0.36,0.18
				c-0.7-0.06-1.38-0.04-2.05,0.04c-0.67,0.09-1.33,0.14-2,0.14c-0.24,0-0.43-0.04-0.55-0.14c-0.12-0.09-0.26-0.14-0.41-0.14h-0.09
				c0.09-1.7,0.17-3.37,0.23-5.03c0.06-1.65,0.08-3.33,0.05-5.02l-0.05-3.91l-0.36,0.05c-0.12-0.27-0.29-0.46-0.5-0.55l-0.23,0.41
				l-0.32-0.41l-0.18,0.27l-0.59-0.23l-0.14,0.36l-0.18-0.18c-0.3-0.06-0.6-0.12-0.89-0.18c-0.29-0.06-0.58-0.09-0.89-0.09
				c-0.55,0-1.1,0.03-1.66,0.09c-0.56,0.06-1.13,0.08-1.7,0.04l-0.36,0.27l-0.32-0.09c-0.27,0-0.54,0.02-0.8,0.07
				c-0.26,0.04-0.52,0.07-0.8,0.07l-0.23-0.05c-0.09,0.15-0.23,0.23-0.41,0.23c-0.09,0-0.18-0.01-0.27-0.05l-0.14,0.55
				c-0.06-0.06-0.14-0.11-0.25-0.16c-0.11-0.05-0.21-0.07-0.3-0.07c-0.36,0-0.61,0.15-0.73,0.46c0.03,0.15,0.12,0.3,0.27,0.45
				l0.04,0.32c0,0.21-0.04,0.51-0.11,0.89c-0.08,0.38-0.16,0.66-0.25,0.84c0,0.67,0.04,1.33,0.14,2l-0.36,0.14l0.27,0.36l-0.41,0.54
				l0.27,0.09V81c0,0.15-0.01,0.31-0.04,0.48c-0.03,0.17-0.09,0.33-0.18,0.48c0.12,0.18,0.19,0.35,0.2,0.5
				c0.01,0.15,0.02,0.35,0.02,0.59c0,0.46,0.01,0.93,0.02,1.41c0.01,0.49-0.01,0.96-0.07,1.41l-0.32,0.27
				c0.06,0.12,0.13,0.23,0.21,0.32c0.07,0.09,0.11,0.2,0.11,0.32c0,0.12-0.08,0.26-0.23,0.41l0.27,0.09v0.14
				c0,0.18-0.01,0.36-0.04,0.54c-0.03,0.18-0.12,0.35-0.27,0.5c-0.15,0-0.29-0.04-0.41-0.11c-0.12-0.08-0.26-0.11-0.41-0.11
				c-0.03,0-0.19,0.04-0.48,0.11c-0.29,0.08-0.45,0.13-0.48,0.16c-0.34-0.06-0.63-0.07-0.89-0.02c-0.26,0.04-0.55,0.07-0.89,0.07
				c-0.39,0-0.65-0.09-0.77-0.25c-0.12-0.17-0.32-0.25-0.59-0.25c-0.24,0-0.48,0.08-0.73,0.23c-0.21-0.12-0.47-0.18-0.77-0.18
				s-0.58-0.06-0.82-0.18c-0.03-0.24,0-0.46,0.09-0.64c0.09-0.18,0.14-0.39,0.14-0.64c0-0.18-0.01-0.46-0.02-0.82
				c-0.01-0.36,0.1-0.58,0.34-0.64c-0.09-0.18-0.21-0.3-0.36-0.36l-0.05-0.27c0-0.7,0.04-1.4,0.11-2.11
				c0.08-0.71,0.1-1.42,0.07-2.12v-0.36l-0.23-0.32c0.15-0.15,0.31-0.29,0.48-0.43c0.17-0.14,0.33-0.3,0.48-0.48l-0.09-0.32
				c-0.15,0.06-0.29,0.14-0.41,0.25c-0.12,0.11-0.26,0.19-0.41,0.25v-0.27c-0.09-0.18-0.14-0.33-0.14-0.46
				c0-0.18,0.04-0.35,0.14-0.5c0.09-0.15,0.14-0.3,0.14-0.46c0.12,0.06,0.33,0,0.64-0.18c0.3-0.18,0.61-0.41,0.93-0.68
				c0.32-0.27,0.62-0.54,0.91-0.82c0.29-0.27,0.49-0.47,0.61-0.59c0.06,0.18,0.09,0.3,0.09,0.36L39.71,76
				c-0.06,0-0.18,0.04-0.36,0.11c-0.18,0.08-0.27,0.14-0.27,0.21c0,0.09,0.03,0.14,0.09,0.14c-0.24-0.03-0.48,0.01-0.7,0.11
				c-0.23,0.11-0.45,0.26-0.66,0.45c-0.21,0.2-0.4,0.41-0.57,0.64c-0.17,0.23-0.31,0.43-0.43,0.61l0.09,0.09
				c0.12,0,0.24-0.06,0.36-0.18c0.12,0.06,0.23,0.11,0.34,0.16c0.11,0.04,0.22,0.07,0.34,0.07l0.09-0.05
				c0.27-0.24,0.55-0.46,0.84-0.66c0.29-0.2,0.59-0.4,0.92-0.61c-0.51,0.43-0.84,0.7-0.97,0.82c-0.14,0.12-0.22,0.2-0.25,0.25
				c-0.03,0.05-0.05,0.12-0.07,0.23c-0.01,0.11-0.16,0.36-0.43,0.75c-0.24-0.06-0.41-0.02-0.5,0.11c-0.09,0.14-0.23,0.24-0.41,0.3
				l0.18,0.14c-0.36,0.03-0.54,0.26-0.54,0.68c0,0.15,0.01,0.3,0.05,0.43c0.03,0.14,0.01,0.28-0.05,0.43
				c0.03,0.03,0.11,0.05,0.23,0.05c0.15,0,0.34-0.09,0.57-0.25c0.23-0.16,0.46-0.36,0.71-0.59c0.24-0.23,0.48-0.45,0.7-0.66
				c0.23-0.21,0.43-0.36,0.61-0.46L39.66,79c0.11-0.09,0.24-0.16,0.4-0.21c0.16-0.04,0.31-0.08,0.46-0.11l-0.36,0.14l0.04,0.5
				c-0.3,0.15-0.55,0.27-0.75,0.36c-0.2,0.09-0.28,0.35-0.25,0.77c-0.09,0.12-0.17,0.2-0.24,0.23c-0.07,0.03-0.14,0.06-0.2,0.09
				c-0.06,0.03-0.11,0.09-0.15,0.18c-0.04,0.09-0.08,0.26-0.11,0.5c-0.23-0.09-0.45-0.14-0.66-0.14c-0.06,0.21-0.17,0.39-0.33,0.55
				c-0.16,0.15-0.34,0.26-0.55,0.32c0,0.24-0.04,0.45-0.14,0.63l0.36,0.32c0.87-0.55,1.7-1.15,2.48-1.82
				c0.78-0.67,1.59-1.32,2.43-1.95c-0.31,0.33-0.6,0.68-0.86,1.05c-0.26,0.36-0.54,0.71-0.82,1.04l-0.27-0.27
				c-0.27,0.15-0.44,0.34-0.5,0.57c-0.06,0.23-0.12,0.46-0.18,0.71c-0.09,0-0.23,0.06-0.43,0.18c-0.19,0.12-0.39,0.26-0.58,0.41
				c-0.19,0.15-0.37,0.31-0.54,0.48c-0.16,0.17-0.28,0.3-0.34,0.39c-0.24,0.09-0.48,0.14-0.72,0.14c0,0.06-0.01,0.11-0.02,0.14
				c-0.01,0.03-0.02,0.08-0.02,0.14c0,0.15,0.02,0.29,0.07,0.41c0.04,0.12,0.08,0.26,0.11,0.41c0.48-0.24,0.92-0.55,1.33-0.91
				c0.4-0.36,0.82-0.7,1.24-1l0.45,0.18l-0.09-0.46c0.24-0.21,0.55-0.45,0.92-0.71c0.37-0.26,0.73-0.52,1.08-0.8
				c0.35-0.27,0.65-0.57,0.9-0.88c0.24-0.32,0.37-0.66,0.37-1.02c0-0.15-0.03-0.35-0.09-0.59c-0.06,0.15-0.18,0.28-0.36,0.39
				c-0.18,0.11-0.33,0.23-0.46,0.39v-0.64c0.3-0.24,0.55-0.51,0.75-0.82c0.2-0.3,0.29-0.65,0.29-1.05c0-0.21-0.04-0.44-0.14-0.68
				c-0.12,0.18-0.18,0.35-0.18,0.5l-0.32-0.23c-0.24,0.06-0.45,0.17-0.63,0.32c-0.18,0.15-0.36,0.3-0.55,0.45
				c0.18-0.27,0.39-0.51,0.61-0.73c0.23-0.21,0.43-0.43,0.61-0.66c0.18-0.23,0.34-0.47,0.48-0.73c0.14-0.26,0.2-0.58,0.2-0.98
				l-0.27-0.04c-0.15,0.09-0.28,0.17-0.39,0.25c-0.11,0.08-0.2,0.19-0.3,0.34l-0.04,0.41c-0.34,0.12-0.68,0.3-1,0.52
				c-0.33,0.23-0.63,0.46-0.91,0.7l-0.14-0.36c0.18-0.15,0.53-0.44,1.05-0.86c0.52-0.42,1.1-0.92,1.74-1.48
				c0.64-0.56,1.31-1.14,2.01-1.75c0.7-0.61,1.35-1.18,1.96-1.7c0.61-0.53,1.12-1,1.53-1.41c0.41-0.41,0.66-0.69,0.76-0.84
				c-0.34,0-0.65,0.05-0.96,0.14c-0.3,0.09-0.62,0.14-0.96,0.14c-0.09,0.15-0.14,0.29-0.14,0.41c0,0.12,0.01,0.2,0.05,0.23
				c-0.18,0.21-0.45,0.36-0.8,0.46c-0.35,0.09-0.56,0.3-0.62,0.64c-0.24-0.03-0.56,0.11-0.96,0.43c-0.39,0.32-0.81,0.7-1.23,1.14
				c-0.43,0.44-0.83,0.87-1.21,1.3c-0.38,0.43-0.66,0.71-0.84,0.86l-0.27-0.23c-0.12,0.09-0.24,0.18-0.36,0.27
				c-0.12,0.09-0.23,0.2-0.32,0.32l0.09,0.27c-0.18,0-0.36,0.03-0.55,0.09c-0.18,0.06-0.35,0.12-0.5,0.18
				c1.25-1.09,2.48-2.17,3.7-3.23c1.22-1.06,2.46-2.12,3.74-3.18c-0.03-0.12-0.09-0.21-0.18-0.25c-0.09-0.05-0.18-0.07-0.27-0.07
				c-0.21,0-0.41,0.03-0.59,0.09c-0.18,0.06-0.38,0.08-0.59,0.05l0.05,0.5c-0.18,0.09-0.37,0.17-0.57,0.23
				c-0.2,0.06-0.4,0.12-0.61,0.18c0.24-0.36,0.5-0.65,0.77-0.86c-0.06,0-0.14-0.01-0.23-0.02c-0.09-0.02-0.17-0.02-0.23-0.02
				c-0.28,0-0.49,0.03-0.64,0.09c-0.15,0.18-0.41,0.46-0.78,0.84c-0.37,0.38-0.76,0.77-1.19,1.18c-0.43,0.41-0.84,0.78-1.24,1.11
				c-0.4,0.33-0.7,0.53-0.92,0.59l-0.09-0.09l-0.37,0.23c-0.06,0.06-0.15,0.15-0.25,0.27c-0.11,0.12-0.19,0.18-0.25,0.18
				c-0.12,0-0.19-0.06-0.19-0.18c-0.06,0.15-0.13,0.28-0.22,0.39c-0.09,0.11-0.13,0.24-0.13,0.39c-0.21,0-0.4,0.08-0.57,0.23
				c-0.18,0.15-0.35,0.26-0.53,0.32v0.23c-0.06,0.09-0.14,0.18-0.25,0.25c-0.11,0.08-0.2,0.14-0.29,0.21v0.09
				c0,0.21,0.04,0.36,0.14,0.45c0.45-0.3,0.88-0.61,1.32-0.91c0.43-0.3,0.87-0.62,1.31-0.96c-0.06,0.18-0.2,0.35-0.41,0.5
				c-0.21,0.15-0.39,0.26-0.55,0.32l-0.27,0.59h-0.27c-0.24,0.18-0.48,0.34-0.7,0.48c-0.23,0.14-0.45,0.3-0.66,0.48
				c-0.03,0.15-0.07,0.32-0.11,0.5c-0.05,0.18-0.13,0.33-0.25,0.46c0-0.43,0.02-0.85,0.07-1.27c0.05-0.42,0.17-0.82,0.37-1.18
				c-0.16-0.36-0.2-0.75-0.1-1.16c0.1-0.41,0.18-0.8,0.25-1.16c-0.03,0.15-0.03,0.31,0,0.48c0.03,0.17,0.05,0.33,0.05,0.48
				l0.55-0.14l-0.82,1.09l0.36,0.23c0.51-0.49,1.07-0.94,1.66-1.36c0.59-0.42,1.17-0.86,1.75-1.3c0.58-0.44,1.14-0.89,1.68-1.36
				c0.55-0.47,1.03-0.98,1.45-1.52l-0.09-0.32c-0.18,0.06-0.36,0.19-0.52,0.39c-0.17,0.2-0.34,0.34-0.52,0.43
				c-0.42,0.24-0.79,0.52-1.09,0.82c-0.3,0.3-0.62,0.62-0.96,0.95c-0.06,0.06-0.19,0.14-0.39,0.25c-0.2,0.11-0.42,0.24-0.66,0.39
				c-0.24,0.15-0.48,0.3-0.73,0.46c-0.24,0.15-0.43,0.29-0.55,0.41c0.24-0.46,0.65-0.91,1.24-1.36c0.58-0.46,1.17-0.91,1.76-1.36
				c0.59-0.46,1.11-0.89,1.56-1.32c0.45-0.43,0.68-0.82,0.68-1.18c0-0.15-0.05-0.3-0.14-0.46c-0.3,0.15-0.61,0.36-0.93,0.61
				c-0.32,0.26-0.63,0.53-0.95,0.82c-0.32,0.29-0.64,0.55-0.97,0.8c-0.33,0.24-0.68,0.39-1.04,0.46c-0.36,0.42-0.75,0.83-1.15,1.23
				c-0.41,0.39-0.82,0.77-1.24,1.14l0.18-0.23l-0.41-0.18l0.04-0.77l0.41,0.23c1.08-0.85,2.18-1.67,3.29-2.45
				c1.11-0.79,2.12-1.71,3.03-2.77c-0.03-0.15-0.06-0.3-0.09-0.46c-0.03-0.15-0.02-0.3,0.04-0.45c-0.06-0.03-0.14-0.08-0.25-0.16
				c-0.11-0.08-0.19-0.11-0.25-0.11c-0.03,0-0.05,0.01-0.05,0.02c0,0.01-0.01,0.02-0.04,0.02l-0.05,0.05
				c0.15-0.15,0.26-0.33,0.34-0.52c0.08-0.2,0.17-0.37,0.3-0.52l-0.18-0.32l-0.27,0.46c-0.24,0.06-0.46,0.14-0.66,0.25
				c-0.2,0.11-0.4,0.22-0.61,0.34c0.42-0.33,0.83-0.76,1.23-1.27c0.39-0.51,0.68-1.02,0.86-1.5l0.27,0.32v0.27
				c0.03,0.51-0.02,1.02-0.14,1.5c-0.12,0.49-0.18,0.99-0.18,1.5c0,0.39,0.11,0.83,0.32,1.32c-0.03,0.15-0.05,0.33-0.07,0.52
				c-0.01,0.2,0.04,0.37,0.16,0.52c-0.06,0.24-0.12,0.44-0.18,0.59c0.24,0.06,0.44,0.09,0.59,0.09h4.91h2.98
				c0.98,0,1.98,0.03,2.98,0.09l0.32-0.32c0.09-1.24,0.17-2.48,0.25-3.71c0.08-1.23,0.14-2.46,0.21-3.71c0.06-1.21,0.06-2.46,0-3.75
				c-0.06-1.29-0.02-2.54,0.14-3.75c0.85-0.15,1.72-0.27,2.61-0.36c0.89-0.09,1.77-0.14,2.61-0.14c0.15,0,0.3,0.05,0.46,0.14
				c0.15,0.09,0.32,0.14,0.5,0.14h0.09c0.24,0.15,0.48,0.28,0.71,0.39c0.23,0.11,0.46,0.24,0.71,0.39
				c-0.09,0.27-0.12,0.52-0.09,0.73c0.03,0.21-0.06,0.44-0.27,0.68l0.14,0.27c0,0.12-0.01,0.24-0.02,0.34
				c-0.02,0.11-0.02,0.22-0.02,0.34l-0.32-0.27l-0.05,0.46l0.39-0.04c0.1,0.33,0.16,0.66,0.19,0.98c0.03,0.32,0,0.63-0.1,0.93
				c0.06,0.15,0.11,0.3,0.15,0.43c0.03,0.14,0.05,0.28,0.05,0.43l-0.48-0.36c-0.13,0.15-0.22,0.34-0.26,0.57
				c-0.05,0.23-0.16,0.37-0.35,0.43l0.18,0.45c0.13-0.15,0.25-0.29,0.38-0.41c0.13-0.12,0.24-0.26,0.33-0.41
				c0.07,0.39,0.26,0.73,0.56,1l-0.41,0.32l0.23,0.36c-0.09,0.21-0.18,0.43-0.25,0.64c-0.08,0.21-0.13,0.44-0.16,0.68
				c0.15,0.3,0.19,0.61,0.11,0.91c-0.08,0.3-0.11,0.61-0.11,0.91c0,0.21,0.04,0.4,0.11,0.57c0.08,0.17,0.11,0.36,0.11,0.57
				c0,0.09-0.02,0.18-0.05,0.27c-0.03,0.09-0.1,0.17-0.2,0.23l0.47,0.09l-0.23,0.23c0,0.15,0.02,0.28,0.07,0.39
				c0.05,0.11,0.07,0.22,0.07,0.34c0,0.34-0.03,0.67-0.09,1c-0.06,0.33-0.09,0.67-0.09,1c0,0.15,0.01,0.34,0.05,0.57
				c0.03,0.23,0.16,0.34,0.41,0.34c-0.09,0.24-0.14,0.5-0.14,0.77c0,0.39,0.03,0.78,0.09,1.16c0.06,0.38,0.06,0.77,0,1.16
				l-0.36,0.18c0,0.12,0.05,0.22,0.14,0.3C64.45,72.78,64.56,72.85,64.67,72.91 M42.85,64.63c-0.06,0.15-0.17,0.26-0.32,0.32
				c-0.15,0.06-0.29,0.12-0.41,0.18c-0.18,0.15-0.35,0.31-0.5,0.48c-0.15,0.17-0.34,0.28-0.55,0.34c-0.33,0.12-0.51,0.27-0.52,0.46
				c-0.01,0.18-0.1,0.36-0.25,0.55c-0.24,0.09-0.48,0.14-0.73,0.14c-0.39,0.34-0.76,0.67-1.11,1c-0.35,0.33-0.74,0.67-1.16,1
				c-0.06,0.15-0.1,0.33-0.11,0.52c-0.02,0.2-0.04,0.39-0.07,0.57c-0.09-0.21-0.14-0.43-0.16-0.66c-0.01-0.23-0.1-0.43-0.25-0.61
				c1.06-0.7,2.08-1.43,3.05-2.21c0.97-0.77,1.94-1.57,2.91-2.39L42.85,64.63z M39.87,62.22c-0.15,0.15-0.24,0.27-0.28,0.36
				c-0.04,0.09-0.09,0.26-0.15,0.5c-0.2,0-0.41,0.08-0.61,0.23s-0.38,0.29-0.52,0.41l0.41,0.09l-0.47,0.09
				c-0.22,0.15-0.35,0.33-0.4,0.55c-0.05,0.21-0.15,0.39-0.31,0.54l-0.14-0.41c-0.18,0.21-0.27,0.49-0.27,0.82l0.18-0.04
				c-0.03,0.06-0.04,0.15-0.04,0.27c0,0.06,0.01,0.15,0.04,0.27c0.82-0.55,1.62-1.17,2.41-1.87v0.5l-0.4,0.09
				c-0.62,0.51-1.2,1.06-1.74,1.64l-0.36,0.05v0.09c0,0.21,0.09,0.44,0.26,0.68c0.29-0.18,0.59-0.36,0.9-0.52
				c0.31-0.17,0.59-0.37,0.85-0.61c-0.42,0.36-0.82,0.73-1.21,1.09c-0.39,0.36-0.78,0.74-1.16,1.14l0.04-1.09
				c-0.03-0.42-0.02-0.84,0.02-1.25c0.05-0.41,0.16-0.8,0.34-1.16l-0.41-0.32h0.23c0.24,0,0.49-0.11,0.76-0.32
				c0.27-0.21,0.43-0.44,0.49-0.68c0.3-0.15,0.56-0.33,0.8-0.55C39.35,62.6,39.6,62.4,39.87,62.22 M37.16,59.9h-0.27l0.05-1.14h0.23
				V59.9z M37.3,62.4c0-0.15-0.04-0.28-0.11-0.39c-0.08-0.11-0.14-0.2-0.21-0.29h0.27C37.28,61.87,37.3,62.1,37.3,62.4 M37.3,61.22
				l-0.04,0.18l-0.23-0.32c0-0.27,0.04-0.53,0.14-0.77C37.31,60.62,37.36,60.92,37.3,61.22 M43.07,81.73l-0.05-0.36
				c-0.3,0.15-0.5,0.36-0.59,0.64c-0.21,0-0.44-0.03-0.68-0.09l0.04,0.23c0.03,0.06-0.16,0.27-0.59,0.64
				c-0.42,0.36-0.9,0.76-1.44,1.18c-0.54,0.43-1.08,0.82-1.6,1.18c-0.53,0.36-0.88,0.59-1.06,0.68c0,0.21-0.01,0.41-0.05,0.59
				c-0.03,0.18-0.04,0.38-0.04,0.59c0.3-0.18,0.79-0.5,1.47-0.96c0.68-0.46,1.35-0.95,2.03-1.48c0.68-0.53,1.28-1.05,1.81-1.57
				C42.86,82.49,43.1,82.06,43.07,81.73 M37.44,58.86c-0.08-0.15-0.13-0.33-0.16-0.55c-0.02-0.21-0.06-0.41-0.11-0.59
				c0.05,0.18,0.11,0.37,0.17,0.57C37.4,58.49,37.44,58.68,37.44,58.86 M37.44,55.26c0,0.34-0.02,0.66-0.07,0.98
				c-0.05,0.32-0.07,0.64-0.07,0.98c-0.04-0.09-0.06-0.2-0.08-0.32c-0.01-0.12-0.01-0.23-0.01-0.32c0-0.24,0.01-0.47,0.04-0.68
				C37.27,55.69,37.33,55.48,37.44,55.26 M44.67,50.95c-0.18,0.21-0.25,0.51-0.21,0.91c0.05,0.39-0.04,0.7-0.25,0.91
				c-0.03-0.15-0.09-0.29-0.18-0.41c-0.09-0.12-0.17-0.26-0.23-0.41c-0.09,0.15-0.21,0.26-0.34,0.32c-0.14,0.06-0.27,0.13-0.41,0.21
				c-0.14,0.08-0.26,0.17-0.36,0.29c-0.11,0.12-0.17,0.29-0.21,0.5c-0.06-0.12-0.09-0.21-0.09-0.27c0-0.12,0.06-0.24,0.18-0.36
				c0.12-0.12,0.26-0.26,0.41-0.41s0.29-0.33,0.43-0.52c0.14-0.2,0.24-0.43,0.3-0.71c-0.3-0.06-0.61-0.1-0.91-0.11
				c-0.3-0.01-0.62-0.02-0.95-0.02l0.41,0.23c-0.15,0.09-0.3,0.2-0.43,0.32c-0.14,0.12-0.24,0.26-0.29,0.41l-0.32-0.18
				c0.12-0.09,0.24-0.2,0.36-0.34c0.12-0.14,0.18-0.28,0.18-0.43c-0.15-0.03-0.38-0.05-0.69-0.05c-0.27,0-0.55,0.01-0.82,0.05
				c-0.27,0.03-0.53,0.06-0.78,0.09l0.48,0.27c-0.2,0.06-0.39,0.16-0.56,0.3c-0.17,0.14-0.36,0.28-0.56,0.43
				c0.15-0.18,0.29-0.36,0.41-0.52c0.12-0.17,0.21-0.36,0.27-0.57l-0.23-0.05c-0.21,0-0.41,0.03-0.59,0.09
				c-0.18,0.06-0.38,0.06-0.59,0c-0.09,0.15-0.14,0.3-0.16,0.43c-0.01,0.14-0.02,0.28-0.02,0.43s-0.04,0.29-0.14,0.41l0.32,0.46
				c0.06-0.15,0.14-0.26,0.25-0.32c0.11-0.06,0.22-0.12,0.34-0.18l-0.33,0.55c-0.16,0.09-0.28,0.18-0.35,0.27
				c-0.08,0.09-0.23,0.11-0.45,0.04v0.5l-0.27,0.18c0.03-0.49,0.05-0.96,0.07-1.43c0.01-0.47,0.01-0.96-0.02-1.48
				c0.76-0.27,1.58-0.41,2.45-0.41c0.67,0,1.33,0.04,1.98,0.11c0.65,0.08,1.31,0.05,1.98-0.07c0.09,0.15,0.23,0.26,0.41,0.32
				C44.35,50.78,44.51,50.86,44.67,50.95 M42.89,83.68v-0.27c-0.43,0.24-0.81,0.54-1.16,0.89c-0.35,0.35-0.73,0.64-1.16,0.89
				c-0.06,0.27-0.15,0.51-0.27,0.73C40.06,85.97,39.86,86,39.71,86h-0.09l0.23,0.14c-0.15,0.09-0.32,0.14-0.5,0.14h-0.23
				c-0.27,0.21-0.6,0.41-0.98,0.59c-0.38,0.18-0.64,0.44-0.8,0.77c0.24,0.06,0.5,0.08,0.77,0.07c0.27-0.01,0.53,0.01,0.77,0.07
				c0.03-0.09,0.23-0.3,0.59-0.61c0.36-0.32,0.77-0.67,1.21-1.05c0.44-0.38,0.87-0.75,1.3-1.11c0.42-0.36,0.71-0.64,0.86-0.82
				L42.89,83.68z M38.3,56.63c-0.06,0.24-0.19,0.43-0.36,0.55c-0.18,0.12-0.28,0.27-0.31,0.46l-0.14,0.14l0.05-0.5
				c0.16-0.06,0.29-0.16,0.39-0.32C38.01,56.8,38.14,56.69,38.3,56.63 M38.44,55.13c-0.18,0-0.33,0.09-0.45,0.27
				c-0.2-0.12-0.34-0.32-0.4-0.59c-0.06-0.27-0.08-0.5-0.05-0.68v-0.32c0,0.15,0.01,0.31,0.05,0.48c0.03,0.17,0.04,0.33,0.04,0.48
				c0.1,0.06,0.21,0.08,0.33,0.07c0.11-0.01,0.22-0.04,0.31-0.07L38.44,55.13z M37.85,52.86l-0.32-0.59c0,0.12,0.04,0.24,0.11,0.34
				C37.72,52.71,37.78,52.8,37.85,52.86 M38.71,60.9c-0.18,0.34-0.43,0.59-0.73,0.77l-0.18-0.55c0.15,0,0.3-0.04,0.46-0.11
				C38.41,60.94,38.56,60.9,38.71,60.9 M38.12,59.4c-0.09-0.06-0.13-0.14-0.11-0.23c0.01-0.09,0.05-0.17,0.11-0.23V59.4z
				 M39.12,54.26c-0.09,0.06-0.18,0.13-0.27,0.2c-0.09,0.08-0.17,0.16-0.23,0.25l-0.32-0.14l0.27-0.5L39.12,54.26z M39.44,55.54
				c-0.07,0.12-0.16,0.24-0.28,0.36c-0.12,0.12-0.15,0.24-0.09,0.36l-0.45,0.32L38.3,56.4c0.2-0.15,0.41-0.29,0.61-0.41
				C39.12,55.87,39.29,55.72,39.44,55.54 M39.39,61.27c-0.06,0.12-0.12,0.24-0.18,0.36c-0.06,0.12-0.09,0.26-0.09,0.41l-0.41,0.04
				c0.12-0.12,0.23-0.26,0.32-0.41C39.12,61.52,39.24,61.39,39.39,61.27 M39.12,60.54l-0.32,0.05c0.06-0.06,0.1-0.14,0.11-0.23
				c0.01-0.09,0.04-0.18,0.07-0.27L39.12,60.54z M39.71,53.17c-0.06,0.15-0.14,0.31-0.25,0.46c-0.11,0.15-0.22,0.3-0.34,0.46
				C39.15,53.69,39.35,53.39,39.71,53.17 M40.48,58.77c-0.33,0.46-0.77,0.88-1.31,1.27c0.09-0.27,0.27-0.52,0.54-0.73
				C39.99,59.1,40.24,58.92,40.48,58.77 M40.15,57.08l-0.59,0.73l-0.14-0.09l0.55-0.73L40.15,57.08z M40.71,64.72
				c-0.06,0.24-0.19,0.44-0.39,0.59c-0.2,0.15-0.37,0.32-0.52,0.5l-0.04,0.23l-0.32-0.18c0.12-0.21,0.31-0.42,0.57-0.61
				C40.26,65.05,40.5,64.88,40.71,64.72 M42.89,85.14c-0.43,0.33-0.87,0.73-1.32,1.18c-0.46,0.46-0.91,0.79-1.37,1
				c0.09,0.06,0.12,0.12,0.09,0.18c-0.03,0.06-0.09,0.11-0.18,0.14c-0.09,0.03-0.19,0.05-0.3,0.07c-0.11,0.01-0.17,0.02-0.2,0.02
				h-0.14c0.18,0.06,0.36,0.11,0.55,0.16c0.18,0.05,0.37,0.05,0.55,0.02h0.27c0.09-0.12,0.17-0.27,0.23-0.43
				c0.06-0.17,0.17-0.28,0.32-0.34l-0.09,0.5c0.25,0.06,0.49,0.1,0.73,0.11c0.23,0.01,0.48,0.02,0.73,0.02
				c0.09-0.27,0.14-0.56,0.14-0.86l-0.05-0.32l-0.23,0.23c-0.12,0-0.24-0.06-0.36-0.18c0.06-0.3,0.17-0.55,0.32-0.73
				C42.72,85.73,42.83,85.47,42.89,85.14 M39.8,61.09h-0.23v-0.59h0.23V61.09z M39.94,58.4l-0.23,0.14l-0.09-0.23l0.23-0.09
				L39.94,58.4z M40.48,55.22c-0.15,0-0.29,0.05-0.41,0.16c-0.12,0.11-0.24,0.21-0.36,0.3v-0.09c-0.03-0.15,0.01-0.31,0.14-0.48
				c0.12-0.16,0.24-0.28,0.36-0.34L40.48,55.22z M41.03,61.13c0,0.36-0.17,0.62-0.51,0.77l0.23,0.41c-0.16-0.06-0.31-0.11-0.46-0.14
				c-0.15-0.03-0.31-0.09-0.46-0.18l0.6-0.27c0.06-0.12,0.15-0.23,0.28-0.32C40.83,61.31,40.94,61.22,41.03,61.13 M44.17,69.5
				c-0.06,0.34-0.25,0.58-0.57,0.75c-0.32,0.17-0.59,0.36-0.8,0.57l0.09,0.5c-0.49,0.09-1,0.36-1.53,0.82
				c-0.53,0.45-1.03,0.8-1.48,1.05c0.73-0.61,1.44-1.22,2.13-1.84C42.68,70.72,43.4,70.1,44.17,69.5 M40.26,63.72l-0.09,0.23
				l-0.23-0.14l0.09-0.18L40.26,63.72z M40.48,52.67h-0.36l0.05-0.23h0.36L40.48,52.67z M40.66,59.95l-0.18,0.5L40.3,60.4l0.18-0.45
				H40.66z M41.98,56.63c-0.25,0.18-0.48,0.38-0.7,0.59c-0.22,0.21-0.46,0.39-0.71,0.54c0.09-0.21,0.29-0.44,0.59-0.68
				C41.46,56.84,41.73,56.69,41.98,56.63 M42.08,52.76c0,0.21-0.06,0.39-0.19,0.55c-0.13,0.15-0.2,0.34-0.24,0.55
				c-0.16,0.06-0.31,0.14-0.47,0.23c-0.16,0.09-0.31,0.17-0.47,0.23c0.22-0.24,0.46-0.48,0.73-0.73
				C41.7,53.34,41.92,53.07,42.08,52.76 M41.3,58.22l-0.55,0.14l0.05-0.18l0.41-0.14L41.3,58.22z M41.71,64l-0.68,0.86l-0.18-0.09
				l0.68-0.86L41.71,64z M41.57,55.54c-0.03,0.15-0.1,0.28-0.2,0.39c-0.11,0.11-0.22,0.19-0.34,0.25l-0.09,0.09l0.09-0.09
				c0.12-0.06,0.21-0.16,0.27-0.3C41.36,55.74,41.45,55.63,41.57,55.54 M42.03,58.99l-0.5,0.32l-0.09-0.18l0.45-0.32L42.03,58.99z
				 M44.53,58.4c-0.09,0.09-0.22,0.15-0.39,0.18c-0.17,0.03-0.31,0.08-0.43,0.14l0.36,0.14c0,0.27,0.01,0.55,0.05,0.84
				c0.03,0.29,0.04,0.57,0.04,0.84v0.05c-0.06,0-0.09-0.02-0.09-0.07c0-0.05,0.01-0.07,0.05-0.07l-0.18-0.27
				c-0.15,0.24-0.33,0.46-0.52,0.64c-0.2,0.18-0.4,0.36-0.61,0.55c0.09-0.12,0.22-0.26,0.39-0.43c0.17-0.17,0.25-0.34,0.25-0.52
				c0-0.06-0.06-0.12-0.18-0.18c0.12-0.06,0.21-0.17,0.27-0.32c0.06-0.15,0.12-0.29,0.18-0.41c-0.15-0.09-0.29-0.14-0.41-0.14
				l-0.27,0.05v0.36l-0.27-0.09c-0.09,0.24-0.23,0.43-0.41,0.57c-0.18,0.14-0.3,0.34-0.36,0.61c-0.18-0.15-0.35-0.32-0.5-0.5
				c0.21-0.12,0.46-0.29,0.75-0.5c0.29-0.21,0.56-0.45,0.82-0.73c0.26-0.27,0.48-0.54,0.68-0.82c0.2-0.27,0.33-0.55,0.39-0.82
				l-0.23-0.23c-0.06,0.06-0.11,0.13-0.16,0.21c-0.04,0.08-0.1,0.14-0.16,0.2l-0.23-0.18c0.15-0.18,0.27-0.39,0.36-0.61
				c0.09-0.23,0.14-0.46,0.14-0.71c0-0.15-0.01-0.27-0.04-0.36c-0.21,0.24-0.43,0.48-0.64,0.71c-0.21,0.23-0.44,0.43-0.68,0.61
				l-0.04-0.36c0.15-0.06,0.28-0.14,0.39-0.25c0.11-0.11,0.22-0.21,0.34-0.3l0.09,0.14c0.06-0.12,0.09-0.29,0.09-0.5v-0.32
				c-0.21,0.15-0.41,0.3-0.59,0.45c-0.18,0.15-0.38,0.3-0.59,0.46c0.12-0.24,0.32-0.48,0.59-0.71c0.27-0.23,0.41-0.51,0.41-0.84
				c0-0.09-0.05-0.18-0.14-0.27c-0.09-0.09-0.17-0.15-0.23-0.18c0.24-0.27,0.48-0.54,0.71-0.79c0.23-0.26,0.51-0.46,0.84-0.61
				l-0.05,4.73C44.3,58.04,44.38,58.25,44.53,58.4 M42.3,55.08l-0.36,0.59l-0.18-0.09l0.36-0.59L42.3,55.08z M42.57,61.54
				l-0.23,0.23v0.55l-0.46-0.14c0.06-0.15,0.15-0.28,0.27-0.39C42.29,61.68,42.42,61.6,42.57,61.54 M42.35,88.78h-0.32v-0.23h0.32
				V88.78z M42.3,58.99h-0.23v-0.5h0.23V58.99z M44.12,54.13c-0.18,0-0.36,0.05-0.52,0.14c-0.17,0.09-0.34,0.14-0.52,0.14
				c0.27,0.06,0.42,0.18,0.46,0.36c0.03,0.18,0.07,0.39,0.14,0.64c0.06-0.21,0.11-0.44,0.16-0.68
				C43.87,54.48,43.97,54.28,44.12,54.13 M43.76,63.72l-0.18-0.09L43.39,64l0.18,0.04L43.76,63.72z M51.71,68.5l-0.18-0.32
				c-0.24,0.09-0.44,0.13-0.59,0.11c-0.15-0.01-0.3-0.01-0.46,0c-0.15,0.02-0.3,0.08-0.43,0.18c-0.14,0.11-0.3,0.31-0.48,0.61
				l-0.55,0.05l0.04,0.14c0,0.27-0.18,0.48-0.54,0.61c-0.36,0.14-0.62,0.28-0.77,0.43c-0.3,0.3-0.57,0.63-0.8,0.98
				c-0.23,0.35-0.49,0.68-0.8,0.98l-0.64-0.09c-0.33,0.36-0.68,0.72-1.05,1.07c-0.36,0.35-0.71,0.72-1.05,1.11
				c0.09,0.03,0.23,0.05,0.41,0.05c0.48,0,1.08-0.25,1.8-0.75c0.71-0.5,1.44-1.08,2.18-1.73c0.74-0.65,1.46-1.3,2.16-1.95
				C50.68,69.32,51.26,68.83,51.71,68.5 M43.98,59.22l-0.23-0.14l-0.09,0.23l0.18,0.14L43.98,59.22z M53.9,68.36
				c-0.09-0.03-0.21-0.04-0.36-0.04c-0.18,0-0.36,0.02-0.55,0.07c-0.18,0.05-0.38,0.05-0.59,0.02c-0.12,0.09-0.29,0.21-0.5,0.36
				c-0.21,0.15-0.39,0.24-0.54,0.27c-0.12,0.15-0.27,0.34-0.46,0.57c-0.18,0.23-0.36,0.39-0.55,0.48c-0.12,0.3-0.36,0.5-0.73,0.59
				L49.35,71l-0.46,0.18l0.18,0.14c-0.36,0.33-0.66,0.67-0.88,1c-0.23,0.33-0.6,0.59-1.11,0.77l-0.05,0.63
				c0.67-0.06,1.29-0.15,1.86-0.27l-0.23-0.41C50.36,71.5,52.11,69.94,53.9,68.36 M55.87,68.5c-0.15-0.03-0.36-0.05-0.64-0.05
				c-0.43,0-0.8,0.12-1.11,0.36s-0.69,0.39-1.11,0.45c0.12,0.24,0.08,0.42-0.11,0.52c-0.19,0.11-0.37,0.2-0.52,0.29
				c-0.15,0.27-0.35,0.56-0.61,0.84c-0.26,0.29-0.53,0.49-0.84,0.61l-0.09,0.36c-0.15,0.06-0.3,0.15-0.45,0.27
				c-0.15,0.12-0.31,0.21-0.5,0.27l-0.18,0.5c-0.18,0.15-0.34,0.32-0.5,0.5h0.36c0.57,0.06,1.11,0.02,1.63-0.14
				c0.21-0.39,0.5-0.82,0.88-1.27c0.38-0.46,0.78-0.89,1.22-1.32c0.44-0.42,0.89-0.83,1.34-1.23C55.1,69.11,55.51,68.77,55.87,68.5
				 M63.76,65.27l-0.23-0.09l0.23-0.32c-0.12,0.06-0.27,0.12-0.43,0.18c-0.17,0.06-0.28,0.15-0.34,0.27l0.27,0.5l-0.46,0.04
				c-0.09,0-0.17-0.01-0.23-0.04c-0.24,0.15-0.48,0.32-0.71,0.5c-0.23,0.18-0.46,0.35-0.7,0.5c-0.06,0.15-0.19,0.29-0.39,0.41
				c-0.2,0.12-0.37,0.2-0.52,0.23l0.09,0.14c-0.52,0.43-0.99,0.86-1.43,1.32c-0.44,0.45-0.89,0.91-1.34,1.36l-0.36,0.09
				c-0.42,0.33-0.76,0.67-1,1c-0.24,0.34-0.5,0.73-0.77,1.18c-0.12-0.06-0.25-0.07-0.39-0.02c-0.14,0.04-0.27,0.08-0.39,0.11
				c0.09,0.12,0.05,0.2-0.11,0.23c-0.17,0.03-0.28,0.05-0.34,0.05l-0.14-0.05c0.12-0.15,0.26-0.3,0.41-0.46
				c0.15-0.15,0.29-0.32,0.41-0.5c-0.3,0.06-0.53,0.2-0.68,0.41c-0.15,0.21-0.3,0.43-0.45,0.64l-0.36-0.23
				c0.51-0.88,1.08-1.62,1.68-2.23c0.61-0.61,1.29-1.24,2.05-1.91c-0.33,0.06-0.65,0.17-0.95,0.32c-0.3,0.15-0.62,0.29-0.96,0.41
				c-0.09,0.21-0.26,0.48-0.5,0.8c-0.24,0.32-0.52,0.64-0.84,0.96s-0.64,0.61-0.96,0.89c-0.32,0.27-0.58,0.45-0.8,0.54
				c0.06,0.15-0.01,0.32-0.23,0.5c-0.21,0.18-0.36,0.33-0.45,0.45c0.58,0.03,1.16,0.02,1.75-0.02c0.59-0.05,1.16,0.01,1.7,0.16
				c0.54-0.46,1.26-1.04,2.14-1.75c0.88-0.71,1.76-1.46,2.64-2.25c0.88-0.79,1.7-1.56,2.45-2.32
				C62.89,66.51,63.43,65.85,63.76,65.27 M53.21,72.73v0.46h-0.46C52.84,73.06,52.99,72.91,53.21,72.73 M58.08,69.13l-0.32-0.18
				c-0.15,0.06-0.27,0.15-0.36,0.27c-0.09,0.12-0.17,0.24-0.23,0.36c-0.49,0.18-0.9,0.48-1.25,0.89c-0.35,0.41-0.64,0.83-0.89,1.25
				L58.08,69.13z M61.67,69.04c-0.18-0.12-0.35-0.18-0.5-0.18c-0.12,0-0.22,0.05-0.3,0.14c-0.08,0.09-0.14,0.17-0.21,0.23
				l-0.32-0.09v0.14c0.03,0.15-0.02,0.32-0.14,0.5h-0.55l0.05,0.32l-0.23,0.05c-0.09,0.15-0.2,0.29-0.32,0.41
				c-0.12,0.12-0.27,0.2-0.46,0.23c-0.39,0.43-0.8,0.82-1.23,1.18c-0.43,0.36-0.88,0.71-1.36,1.05l-0.05,0.5
				c0.97-0.73,1.91-1.47,2.82-2.23C59.81,70.51,60.73,69.77,61.67,69.04 M63.82,68.63c-0.12-0.24-0.12-0.44,0-0.59h-0.5
				c-0.42,0.43-0.8,0.75-1.11,0.98c-0.32,0.23-0.61,0.45-0.89,0.66c-0.27,0.21-0.55,0.46-0.84,0.75c-0.29,0.29-0.63,0.72-1.02,1.3
				h-0.5l-0.23,0.23l0.05,0.27c-0.18,0.15-0.4,0.28-0.66,0.39c-0.26,0.11-0.51,0.22-0.75,0.34c0.03,0.03,0.05,0.08,0.05,0.14
				c0,0.24-0.14,0.4-0.41,0.48c-0.27,0.08-0.49,0.16-0.64,0.25l0.32,0.59c0.42-0.33,0.87-0.65,1.34-0.96
				c0.47-0.3,0.92-0.62,1.34-0.96c0.58-0.45,1.11-0.94,1.61-1.45c0.5-0.52,1.05-0.99,1.66-1.41l-0.23,0.45l0.32,0.14
				c-0.24,0.12-0.47,0.23-0.68,0.32c-0.21,0.09-0.42,0.21-0.64,0.36l0.18,0.32l-0.59,0.18l-0.09,0.45
				c-0.24,0.03-0.47,0.14-0.68,0.32c-0.21,0.18-0.38,0.36-0.5,0.54c-0.24,0.06-0.5,0.18-0.77,0.36c-0.27,0.18-0.53,0.39-0.77,0.63
				c-0.24,0.24-0.46,0.5-0.66,0.77c-0.2,0.27-0.34,0.52-0.43,0.73l-0.32-0.14c0.18,0.21,0.32,0.47,0.41,0.77
				c0.52-0.49,1.09-0.97,1.73-1.45c0.64-0.48,1.26-0.99,1.87-1.52c0.61-0.53,1.18-1.07,1.71-1.61c0.53-0.55,0.96-1.14,1.3-1.77
				l-0.14-0.36c-0.15,0-0.28,0.06-0.39,0.18c-0.11,0.12-0.2,0.23-0.29,0.32l-0.23-0.18c0.18-0.15,0.36-0.3,0.52-0.43
				C63.41,68.88,63.6,68.76,63.82,68.63 M63.54,60.63c-0.43,0.15-0.83,0.15-1.23,0l0.27-0.41c-0.33,0.18-0.69,0.36-1.07,0.55
				c-0.38,0.18-0.71,0.41-0.98,0.68c-0.15,0.15-0.27,0.3-0.36,0.46c-0.09,0.15-0.21,0.29-0.36,0.41c-0.03,0.03-0.09,0.04-0.18,0.04
				c-0.33,0-0.53,0.04-0.59,0.11c-0.06,0.08-0.09,0.15-0.09,0.23c0,0.08-0.04,0.15-0.11,0.23c-0.08,0.08-0.28,0.11-0.61,0.11
				c-0.15,0.15-0.3,0.32-0.43,0.5c-0.14,0.18-0.28,0.32-0.43,0.41l-0.14,0.5l-0.18-0.18c-0.15,0.34-0.26,0.67-0.34,1
				c-0.08,0.33-0.14,0.67-0.2,1l0.36,0.18c0.58-0.76,1.23-1.43,1.98-2.02c0.74-0.59,1.51-1.14,2.3-1.66l-0.18-0.18
				c0.27,0.06,0.6-0.08,0.98-0.43c0.38-0.35,0.71-0.58,0.98-0.71c0.06-0.15,0.16-0.29,0.3-0.41C63.33,60.92,63.45,60.78,63.54,60.63
				 M63.82,73.41c-0.22-0.06-0.33-0.12-0.33-0.18c0.06-0.09,0.09-0.23,0.09-0.41l-0.05-0.14c-0.12,0.06-0.24,0.13-0.36,0.2
				c-0.12,0.08-0.23,0.18-0.32,0.3l0.27,0.14c-0.24,0.18-0.49,0.36-0.73,0.54c-0.24,0.18-0.47,0.39-0.68,0.64l-0.09,0.32
				c-0.15,0.06-0.29,0.14-0.43,0.25c-0.14,0.11-0.24,0.24-0.3,0.39l-0.41,0.05l0.27,0.41c-0.18-0.03-0.36,0.04-0.54,0.23
				c-0.18,0.18-0.3,0.35-0.36,0.5l-0.41,0.04l0.14,0.55c-0.18,0-0.36,0.05-0.55,0.14l-0.14,0.36c-0.12,0-0.24,0.02-0.34,0.07
				c-0.11,0.05-0.22,0.1-0.34,0.16l0.27,0.23l-0.36,0.23l-0.5-0.09l0.18,0.27c-0.24,0.12-0.45,0.26-0.61,0.41
				c-0.17,0.15-0.4,0.2-0.7,0.14c0.15,0.06,0.29,0.17,0.41,0.32c0.12,0.15,0.26,0.23,0.41,0.23c-0.18,0.12-0.27,0.24-0.27,0.36v0.23
				c1.15-0.76,2.21-1.65,3.16-2.68c0.96-1.03,1.92-2.03,2.89-3c-0.09,0-0.14-0.03-0.14-0.09c0-0.03,0.01-0.06,0.04-0.09
				c0.21-0.12,0.36-0.27,0.46-0.46C63.54,73.77,63.66,73.59,63.82,73.41 M61.54,63.27c-0.15,0.06-0.33,0.16-0.52,0.29
				c-0.2,0.14-0.39,0.27-0.59,0.41c-0.2,0.14-0.38,0.26-0.55,0.36c-0.17,0.11-0.31,0.16-0.43,0.16c0,0.03,0.01,0.06,0.02,0.09
				c0.01,0.03,0.02,0.08,0.02,0.14c0,0.21-0.1,0.33-0.3,0.36c-0.2,0.03-0.37,0.03-0.52,0l-0.41,0.82c-0.3,0-0.51,0.09-0.63,0.27
				l-0.09-0.14c-0.12,0.09-0.2,0.2-0.23,0.32c-0.03,0.12-0.11,0.23-0.23,0.32l0.09,0.09l-0.55,0.82h0.77v-0.04
				c0-0.12,0.06-0.27,0.18-0.46c0.79-0.46,1.52-1.01,2.18-1.68C60.43,64.74,61.02,64.03,61.54,63.27 M63.4,80.5
				c-0.12-0.27-0.18-0.62-0.18-1.05c-0.15,0.18-0.32,0.36-0.5,0.52c-0.18,0.17-0.34,0.36-0.46,0.57l-0.27-0.27
				c-0.18,0.24-0.44,0.53-0.77,0.86c-0.33,0.33-0.68,0.67-1.02,1.02s-0.7,0.68-1.05,1c-0.35,0.32-0.63,0.55-0.84,0.71l0.05,0.18
				c-0.27,0.24-0.55,0.48-0.84,0.73c-0.29,0.24-0.58,0.47-0.89,0.68l0.18,0.36c0.64-0.52,1.29-1.01,1.96-1.48
				c0.67-0.47,1.3-0.98,1.91-1.53c0.46-0.39,0.89-0.8,1.32-1.2C62.41,81.21,62.89,80.84,63.4,80.5 M63.22,81.09
				c-0.18,0.18-0.27,0.41-0.27,0.68c-0.24,0.15-0.48,0.32-0.73,0.52c-0.24,0.2-0.46,0.43-0.64,0.71l-0.46,0.09l0.14,0.36
				c-0.3,0.12-0.58,0.28-0.82,0.48c-0.24,0.2-0.53,0.36-0.86,0.48c-0.03,0.21-0.12,0.41-0.27,0.59c-0.54,0.24-1.03,0.57-1.45,0.98
				c-0.42,0.41-0.8,0.86-1.14,1.34c0.12,0.03,0.15,0.12,0.09,0.27c-0.06,0.15-0.12,0.26-0.18,0.32h0.59c0.24,0,0.44,0.04,0.59,0.14
				l-0.23-0.54c0.97-0.88,1.93-1.77,2.86-2.68c0.94-0.91,1.87-1.83,2.77-2.77l0.05-0.23c0-0.12-0.01-0.24-0.02-0.36
				C63.23,81.34,63.22,81.21,63.22,81.09 M63.49,57.81c-0.45,0.24-0.85,0.47-1.18,0.68c-0.34,0.21-0.68,0.49-1.05,0.82l0.18,0.36
				c-0.21-0.03-0.36,0.01-0.43,0.11c-0.08,0.11-0.19,0.22-0.34,0.34c-0.21-0.06-0.32,0.01-0.32,0.23c-0.24,0.15-0.46,0.33-0.66,0.54
				c-0.2,0.21-0.4,0.43-0.61,0.64l-0.09-0.23c0.63-0.7,1.31-1.38,2.02-2.05c0.71-0.67,1.45-1.3,2.2-1.91l0.14-0.63
				c-0.46,0.58-0.98,1.07-1.57,1.48c-0.59,0.41-1.16,0.84-1.7,1.3l0.14,0.09c-0.3,0.36-0.64,0.68-1.02,0.96
				c-0.38,0.27-0.73,0.58-1.07,0.91c-0.12,0.12-0.22,0.28-0.3,0.48c-0.08,0.2-0.19,0.33-0.34,0.39l-0.09-0.14
				c-0.12,0.12-0.22,0.26-0.3,0.41c-0.08,0.15-0.19,0.26-0.34,0.32c0.12,0.06,0.17,0.15,0.16,0.27c-0.02,0.12,0.02,0.21,0.11,0.27
				l-0.27,0.14h0.64c0.45-0.46,0.97-0.9,1.55-1.34c0.58-0.44,1.15-0.89,1.73-1.34c0.58-0.45,1.11-0.93,1.62-1.43
				C62.79,58.97,63.19,58.42,63.49,57.81 M63.67,54.08c-0.24-0.06-0.38-0.19-0.39-0.39c-0.02-0.2-0.09-0.39-0.22-0.57l-0.1,0.18
				c-0.16-0.15-0.32-0.24-0.48-0.27l0.09,0.32c-0.58,0.58-1.15,1.13-1.73,1.66c-0.58,0.53-1.17,1.05-1.77,1.57L58.9,56.4
				c0.48-0.51,1.02-1.03,1.59-1.55c0.58-0.51,1.06-1.08,1.45-1.68h-0.64c-0.24,0-0.42,0.02-0.55,0.05c-0.12,0.24-0.2,0.43-0.23,0.55
				c-0.15-0.06-0.26-0.04-0.32,0.07c-0.06,0.11-0.14,0.16-0.23,0.16H59.9c-0.06,0.09-0.11,0.19-0.16,0.29
				c-0.05,0.11-0.1,0.21-0.16,0.3c-0.15,0.12-0.3,0.23-0.46,0.32s-0.32,0.17-0.5,0.23c-0.24,0.24-0.48,0.48-0.71,0.7
				c-0.23,0.23-0.48,0.45-0.75,0.66v0.14c0,0.21,0.01,0.43,0.02,0.64c0.01,0.21,0.01,0.44-0.02,0.68c0.21-0.15,0.42-0.41,0.61-0.77
				c0.2-0.36,0.43-0.55,0.7-0.55c0.15,0,0.29,0.06,0.41,0.18c-0.15,0.18-0.33,0.37-0.54,0.57c-0.21,0.2-0.43,0.4-0.66,0.61
				c-0.23,0.21-0.42,0.43-0.57,0.64c-0.15,0.21-0.23,0.46-0.23,0.73l0.05,0.32c0.51-0.39,1.02-0.78,1.52-1.16
				c0.5-0.38,0.96-0.8,1.39-1.25l0.36,0.32c-0.39,0.46-0.87,0.92-1.43,1.39c-0.56,0.47-1.1,0.84-1.61,1.11
				c0.03,0.3-0.02,0.58-0.14,0.84c-0.12,0.26-0.17,0.52-0.14,0.8l0.05,0.32c0.94-1.09,1.98-2.11,3.12-3.05
				c1.14-0.94,2.23-1.89,3.3-2.87v-0.14c0-0.21-0.02-0.41-0.07-0.61c-0.05-0.2-0.07-0.4-0.07-0.61c-0.24,0.24-0.56,0.52-0.96,0.82
				c-0.39,0.3-0.74,0.53-1.05,0.68l0.09,0.14c-0.15,0.15-0.31,0.31-0.48,0.48c-0.17,0.17-0.37,0.25-0.61,0.25
				c-0.06,0-0.15-0.03-0.27-0.09c0.55-0.48,1.09-0.97,1.64-1.45c0.54-0.49,1.12-0.94,1.73-1.36l0.05,0.5L63.67,54.08z M63.49,75.36
				v-0.68c-0.09,0.15-0.21,0.33-0.36,0.52c-0.15,0.2-0.23,0.39-0.23,0.57l-0.27-0.09c-0.12,0.24-0.22,0.48-0.3,0.71
				c-0.08,0.23-0.3,0.34-0.66,0.34h-0.14c0.06,0.15,0.1,0.29,0.11,0.43c0.01,0.14-0.01,0.28-0.07,0.43
				c-0.3-0.12-0.52-0.14-0.66-0.07c-0.14,0.08-0.24,0.2-0.3,0.39c-0.06,0.18-0.12,0.36-0.18,0.54c-0.06,0.18-0.15,0.3-0.27,0.36
				l-0.18-0.18l-0.41,0.04l-0.14,0.27l-0.27-0.14l0.36,0.32c-0.33,0.03-0.51,0.09-0.54,0.18c-0.03,0.09-0.15,0.23-0.36,0.41
				l-0.36,0.05c-0.36,0.3-0.62,0.67-0.77,1.11c-0.15,0.44-0.35,0.83-0.59,1.16c0.52-0.33,1.08-0.75,1.68-1.25
				c0.61-0.5,1.21-1.04,1.82-1.61c0.61-0.58,1.18-1.15,1.7-1.73c0.53-0.58,0.99-1.11,1.39-1.59V75.36z M63.36,77.96
				c0-0.15-0.02-0.3-0.05-0.45c-0.03-0.15-0.03-0.3,0-0.46c-0.03,0.09-0.08,0.18-0.16,0.27c-0.08,0.09-0.11,0.2-0.11,0.32
				l-0.36-0.05c-0.09,0.21-0.22,0.4-0.39,0.57c-0.17,0.17-0.33,0.33-0.48,0.48l0.14,0.18c-0.36,0.09-0.68,0.29-0.96,0.59
				c-0.27,0.3-0.49,0.62-0.63,0.96h-0.36l-0.5,0.36l0.09,0.14c-0.15,0.15-0.33,0.26-0.52,0.32c-0.2,0.06-0.37,0.17-0.52,0.32
				l-0.09,0.36c-0.21,0.12-0.39,0.33-0.52,0.61c-0.14,0.29-0.34,0.43-0.61,0.43h-0.14v0.27c0,0.3,0.03,0.53,0.09,0.68
				c-0.15,0.12-0.26,0.27-0.32,0.45c0.27-0.24,0.76-0.66,1.45-1.25c0.7-0.59,1.42-1.22,2.16-1.89c0.74-0.67,1.39-1.3,1.95-1.91
				C63.07,78.67,63.36,78.23,63.36,77.96 M60.72,52.63c-0.18,0.06-0.37,0.11-0.57,0.16c-0.2,0.04-0.37,0.13-0.52,0.25l-0.32-0.27
				c-0.15,0.15-0.32,0.34-0.5,0.57c-0.18,0.23-0.38,0.46-0.59,0.71c-0.21,0.24-0.43,0.47-0.64,0.68c-0.21,0.21-0.39,0.36-0.55,0.45
				c0.09,0.24,0.14,0.5,0.14,0.77c0.61-0.55,1.21-1.09,1.8-1.64C59.56,53.77,60.14,53.2,60.72,52.63 M58.49,53.08l-0.18-0.32
				c-0.21,0-0.42,0.02-0.64,0.07c-0.21,0.05-0.42,0.07-0.64,0.07c0.15,0.42,0.2,0.86,0.14,1.32c0.24-0.15,0.47-0.33,0.68-0.52
				C58.06,53.5,58.28,53.3,58.49,53.08 M61.08,64.91h-0.54c-0.49,0.58-1.02,1.1-1.59,1.57c-0.58,0.47-1.14,0.96-1.68,1.48h-0.23
				v0.46c0.51-0.33,1-0.69,1.45-1.07c0.46-0.38,0.94-0.73,1.45-1.07C60,66.18,60.06,66.09,60.1,66c0.05-0.09,0.07-0.2,0.07-0.32
				l0.32-0.14c0.06-0.12,0.14-0.24,0.23-0.36C60.81,65.06,60.93,64.97,61.08,64.91 M63.92,70.45c-0.21,0.06-0.41,0.22-0.6,0.48
				c-0.18,0.26-0.24,0.49-0.18,0.71h-0.09c-0.28,0-0.52,0.11-0.73,0.34c-0.21,0.23-0.43,0.4-0.64,0.52c0.12,0,0.18,0.06,0.18,0.18
				c0,0.09-0.05,0.18-0.14,0.27c-0.15,0-0.38,0.03-0.68,0.09c-0.18,0.18-0.46,0.43-0.82,0.73c-0.36,0.3-0.74,0.63-1.11,0.98
				c-0.38,0.35-0.71,0.68-1,0.98c-0.29,0.3-0.43,0.55-0.43,0.73c-0.12,0.06-0.24,0.11-0.36,0.16c-0.12,0.04-0.21,0.13-0.27,0.25
				c0.15,0.43,0.2,0.85,0.14,1.27c0.39-0.24,0.9-0.63,1.5-1.16c0.61-0.53,1.22-1.09,1.82-1.68c0.61-0.59,1.19-1.18,1.73-1.77
				c0.55-0.59,0.96-1.07,1.23-1.43c0.18-0.24,0.27-0.51,0.25-0.82C63.7,70.97,63.77,70.7,63.92,70.45 M63.72,63.86
				c0-0.15-0.03-0.35-0.09-0.59c-0.52,0.51-1.05,1-1.59,1.45c-0.54,0.46-1.09,0.91-1.64,1.36c-0.12,0.09-0.24,0.24-0.36,0.43
				c-0.12,0.2-0.26,0.38-0.41,0.55c-0.15,0.17-0.31,0.31-0.48,0.43c-0.17,0.12-0.34,0.17-0.52,0.14v0.32
				c-0.09,0.06-0.19,0.13-0.3,0.2c-0.11,0.08-0.22,0.14-0.34,0.21l-0.09,0.55l0.09,0.18c0.27-0.24,0.73-0.59,1.36-1.05
				c0.64-0.46,1.28-0.93,1.93-1.43c0.65-0.5,1.22-1,1.7-1.5C63.48,64.61,63.72,64.19,63.72,63.86 M63.08,83.41l-0.41,0.54
				l-0.27-0.27c-0.21,0.21-0.43,0.43-0.64,0.64c-0.21,0.21-0.41,0.44-0.59,0.68c-0.21,0.03-0.39,0.1-0.55,0.2
				c-0.15,0.11-0.3,0.21-0.46,0.3l-0.23,0.41l0.41,0.04c-0.21,0.12-0.39,0.16-0.55,0.11c-0.15-0.05-0.29,0.08-0.41,0.39
				c0.18-0.12,0.32-0.12,0.41,0c-0.06,0.06-0.14,0.14-0.23,0.23c-0.09,0.09-0.18,0.14-0.27,0.14c-0.03,0-0.08-0.03-0.14-0.09
				c-0.46,0.15-0.73,0.46-0.82,0.91l-0.41,0.27c0.24-0.06,0.48-0.11,0.71-0.14c0.23-0.03,0.46-0.04,0.71-0.04h0.32l-0.05-0.36
				c0.21-0.27,0.49-0.58,0.84-0.91c0.35-0.34,0.7-0.67,1.05-1c0.35-0.33,0.67-0.67,0.96-1.02C62.76,84.09,62.96,83.75,63.08,83.41
				 M58.58,80.32h-0.36v-0.23h0.36V80.32z M58.81,52.95l-0.09-0.23l-0.23,0.09l0.09,0.23L58.81,52.95z M59.03,63.59l-0.32,0.5
				l-0.14-0.14l0.27-0.46L59.03,63.59z M60.58,62.22c-0.15,0.21-0.31,0.41-0.48,0.59c-0.17,0.18-0.34,0.36-0.52,0.55
				c0.06-0.24,0.2-0.46,0.41-0.66C60.2,62.5,60.4,62.34,60.58,62.22 M62.86,86.59c-0.12,0.24-0.37,0.41-0.75,0.5
				c-0.38,0.09-0.67,0.16-0.89,0.23l-0.09-0.04c0.33-0.3,0.64-0.61,0.93-0.91c0.29-0.3,0.51-0.67,0.66-1.09
				c-0.21,0.21-0.43,0.41-0.66,0.59c-0.23,0.18-0.48,0.3-0.75,0.36v0.09v0.36c0,0.09-0.01,0.15-0.04,0.18
				c-0.03,0.03-0.09,0.04-0.18,0.02c-0.09-0.01-0.24-0.02-0.45-0.02c0,0.15-0.05,0.3-0.16,0.45c-0.11,0.15-0.19,0.3-0.25,0.46
				c0.21-0.09,0.45-0.14,0.73-0.14c0.24,0.15,0.51,0.23,0.82,0.23c0.36,0,0.71-0.12,1.05-0.36v-0.32c0.03-0.12,0.04-0.23,0.02-0.32
				C62.82,86.78,62.82,86.68,62.86,86.59 M61.94,61.45c-0.18,0.12-0.36,0.24-0.55,0.34c-0.18,0.11-0.38,0.19-0.59,0.25
				c0.06-0.18,0.15-0.35,0.27-0.5c0.12-0.15,0.24-0.29,0.36-0.41L61.94,61.45z M61.35,65v-0.82l-0.5,0.36L61.35,65z M61.44,52.95
				l-0.09-0.23l-0.23,0.09l0.09,0.23L61.44,52.95z M62.58,62.36c-0.24,0.06-0.46,0.15-0.66,0.27c-0.2,0.12-0.42,0.21-0.66,0.27
				l0.32,0.32c0.21-0.06,0.4-0.17,0.57-0.34C62.32,62.72,62.46,62.54,62.58,62.36 M63.4,62.31c-0.22,0.21-0.45,0.33-0.7,0.36
				c-0.19,0.24-0.41,0.48-0.65,0.7c-0.25,0.23-0.37,0.51-0.37,0.84l0.05,0.23c0.31-0.34,0.64-0.66,0.98-0.98
				C63.04,63.15,63.28,62.77,63.4,62.31 M63.58,67.32c0-0.15-0.02-0.3-0.05-0.43c-0.03-0.14-0.05-0.28-0.05-0.43
				c-0.15,0.15-0.31,0.27-0.48,0.36c-0.17,0.09-0.31,0.21-0.43,0.36c-0.15,0.15-0.27,0.38-0.36,0.68c-0.09,0.3-0.26,0.49-0.5,0.55
				v0.54c0.27-0.27,0.57-0.52,0.89-0.75c0.32-0.23,0.63-0.46,0.93-0.71L63.58,67.32z M62.9,59.86l-0.18-0.09l-0.18,0.36l0.18,0.09
				L62.9,59.86z M63.92,60.86c-0.19,0.27-0.39,0.52-0.62,0.75c-0.23,0.23-0.45,0.45-0.67,0.66c0.31-0.09,0.57-0.27,0.78-0.54
				C63.63,61.45,63.8,61.16,63.92,60.86 M63.95,67.86l-0.09-0.23l-0.23,0.09l0.09,0.23L63.95,67.86z"/>
			<path class="st3" d="M101.05,81.46c0,0.12,0.01,0.27,0.05,0.45c0.03,0.18,0.01,0.35-0.05,0.5c0,0.06-0.04,0.13-0.11,0.2
				c-0.08,0.08-0.11,0.19-0.11,0.34c0,0.88-0.14,1.66-0.41,2.34c-0.27,0.68-0.53,1.46-0.77,2.34c-0.15,0.12-0.4,0.32-0.75,0.61
				c-0.35,0.29-0.67,0.46-0.98,0.52c-0.12,0.03-0.26,0.11-0.43,0.25c-0.17,0.14-0.33,0.23-0.48,0.3c-0.24,0.15-0.55,0.23-0.91,0.23
				c-0.36,0-0.62-0.09-0.77-0.27c-0.55,0.06-1.11,0.13-1.68,0.2c-0.58,0.08-1.14,0.16-1.68,0.25c-0.54,0.09-1.05,0.2-1.5,0.34
				c-0.46,0.14-0.83,0.31-1.14,0.52c-0.34-0.09-0.76-0.08-1.27,0.04c-0.52,0.12-0.94,0.2-1.27,0.23c-0.42,0.03-0.93,0-1.5-0.09
				c-0.58-0.09-1.15-0.11-1.73-0.04c-0.97,0.06-1.93,0.17-2.89,0.32c-0.96,0.15-1.9,0.27-2.84,0.36c-0.7,0.09-1.33,0.15-1.91,0.18
				c-0.58,0.03-1.13,0-1.66-0.09c-0.53-0.09-1.07-0.24-1.61-0.46c-0.54-0.21-1.14-0.53-1.77-0.96c-0.09-0.06-0.2-0.19-0.34-0.39
				c-0.14-0.2-0.2-0.42-0.2-0.66c-0.09-1.12-0.11-2.36-0.07-3.71c0.04-1.35,0.13-2.57,0.25-3.66c0.12-1.12,0.17-2.03,0.16-2.73
				c-0.02-0.7-0.05-1.33-0.09-1.91c-0.05-0.58-0.09-1.19-0.14-1.84c-0.05-0.65-0.07-1.51-0.07-2.57c0.03-0.48,0.05-1.07,0.05-1.75
				c0-0.68-0.03-1.36-0.09-2.02c-0.06-0.94-0.09-2.05-0.07-3.34c0.01-1.29,0.05-2.51,0.11-3.66c0.06-1.12,0.15-2.26,0.27-3.41
				c0.12-1.15,0.23-2.3,0.32-3.46c0.03-0.24,0.03-0.52,0-0.84c-0.03-0.32-0.03-0.6,0-0.84c0.03-0.15,0.07-0.33,0.11-0.52
				c0.05-0.2,0.13-0.39,0.25-0.57c0.42-0.64,1.04-1.18,1.84-1.64c0.8-0.46,1.55-0.71,2.25-0.77c0.21,0,0.51-0.02,0.89-0.07
				c0.38-0.05,0.73-0.11,1.07-0.2c0.06-0.03,0.14-0.02,0.25,0.02c0.11,0.04,0.19,0.08,0.25,0.11c1.39-0.18,2.77-0.26,4.14-0.25
				c1.36,0.02,2.68-0.14,3.96-0.48c0.82,0.06,1.67,0.06,2.55,0c0.88-0.06,1.77-0.14,2.68-0.23H95c0.21,0,0.55,0.05,1.02,0.14
				c0.47,0.09,0.96,0.21,1.48,0.36c0.52,0.15,0.99,0.33,1.43,0.54c0.44,0.21,0.72,0.44,0.84,0.68c0.12,0.24,0.26,0.65,0.41,1.23
				c0.15,0.58,0.17,1.08,0.05,1.5c-0.06,0.21-0.12,0.44-0.18,0.68c-0.06,0.24-0.09,0.48-0.09,0.73c0.06,0.49,0.12,0.97,0.18,1.45
				c0.06,0.48,0.12,0.99,0.18,1.5c-0.06,0.3-0.1,0.72-0.11,1.25c-0.02,0.53-0.02,1.02-0.02,1.48c0.06,0.06,0.11,0.15,0.16,0.27
				c0.04,0.12,0.07,0.21,0.07,0.27c-0.03,0.61-0.04,1.22-0.02,1.84c0.01,0.62,0.02,1.25,0.02,1.89c0,0.03,0.01,0.06,0.05,0.09
				c0.03,0.03,0.09,0.05,0.18,0.05c-0.06,0.06-0.12,0.15-0.18,0.27c-0.06,0.12-0.11,0.26-0.14,0.41c-0.03,0.43-0.01,0.98,0.07,1.68
				c0.08,0.7,0.1,1.39,0.07,2.09c-0.06,0.7-0.08,1.35-0.05,1.95c0.03,0.61,0.07,1.18,0.11,1.73c0.04,0.55,0.1,1.09,0.16,1.64
				c0.06,0.55,0.09,1.11,0.09,1.68c0,0.18,0.04,0.4,0.14,0.66c0.09,0.26,0.14,0.46,0.14,0.61V81.46z M81.91,84.64
				c-0.39,0-0.79-0.01-1.18-0.04c-0.39-0.03-0.73-0.17-1-0.41c-0.15-0.15-0.3-0.33-0.45-0.52c-0.15-0.2-0.29-0.33-0.41-0.39
				c-0.15,0.34-0.43,0.71-0.84,1.11c-0.41,0.41-0.75,0.75-1.02,1.02c-0.34,0.36-0.7,0.77-1.09,1.23c-0.39,0.46-0.78,0.9-1.16,1.34
				c-0.38,0.44-0.76,0.84-1.14,1.21c-0.38,0.36-0.72,0.62-1.02,0.77c-0.06-0.03-0.11-0.05-0.14-0.05c-0.03,0-0.08-0.03-0.14-0.09
				c0-0.15-0.01-0.27-0.02-0.36c-0.01-0.09-0.01-0.17,0.02-0.23c0.3-0.21,0.63-0.47,0.98-0.77c0.35-0.3,0.63-0.58,0.84-0.82
				c0.3-0.34,0.67-0.73,1.09-1.21c0.42-0.47,0.86-0.96,1.32-1.46c0.46-0.5,0.87-0.99,1.25-1.48c0.38-0.49,0.68-0.89,0.89-1.23
				c-0.15,0-0.26-0.04-0.32-0.14c0-0.48-0.01-1.02-0.04-1.61c-0.03-0.59-0.08-1.08-0.14-1.48c-0.06,0.06-0.1,0.15-0.11,0.27
				c-0.01,0.12-0.04,0.21-0.07,0.27c-0.15,0.06-0.27,0.16-0.36,0.29c-0.09,0.14-0.18,0.24-0.27,0.3c-0.18,0.34-0.47,0.74-0.86,1.23
				c-0.39,0.49-0.74,0.85-1.05,1.09c-0.51,0.49-0.96,0.94-1.32,1.36c-0.36,0.42-0.76,0.86-1.18,1.32c-0.06,0.03-0.12,0.05-0.18,0.05
				c-0.06,0-0.12,0.01-0.18,0.04c-0.21,0.24-0.39,0.47-0.55,0.68c-0.15,0.21-0.36,0.24-0.64,0.09v-0.46
				c0.08-0.06,0.13-0.09,0.17-0.09c0.04,0,0.06,0.01,0.06,0.04c0.36-0.39,0.83-0.9,1.42-1.52c0.59-0.62,1.2-1.27,1.83-1.95
				c0.63-0.68,1.25-1.38,1.85-2.09c0.6-0.71,1.08-1.35,1.44-1.93c-0.03-0.61-0.06-1.2-0.09-1.77c-0.03-0.58-0.03-1.12,0-1.64
				c-0.42,0.7-0.92,1.35-1.48,1.95c-0.56,0.61-1.08,1.24-1.57,1.91c-0.12-0.06-0.22-0.05-0.29,0.05c-0.08,0.09-0.14,0.14-0.21,0.14
				c0.06,0.09,0.09,0.23,0.09,0.41c-0.18,0.06-0.36,0.14-0.52,0.25c-0.17,0.11-0.33,0.2-0.48,0.29c-0.15,0.09-0.25,0.23-0.3,0.41
				c-0.04,0.18-0.11,0.32-0.2,0.41c-0.09,0.12-0.21,0.2-0.34,0.23c-0.14,0.03-0.24,0.06-0.29,0.09c-0.15,0.06-0.3,0.16-0.43,0.3
				c-0.14,0.14-0.28,0.11-0.43-0.07c0.24-0.27,0.49-0.56,0.75-0.86c0.26-0.3,0.49-0.55,0.71-0.73c0.3-0.33,0.66-0.71,1.07-1.14
				c0.41-0.42,0.8-0.85,1.16-1.27c0.39-0.43,0.76-0.84,1.11-1.25c0.35-0.41,0.69-0.83,1.02-1.25c0.09-0.15,0.19-0.29,0.3-0.41
				c0.11-0.12,0.17-0.26,0.21-0.41c0.09-0.64,0.11-1.31,0.07-2.02c-0.04-0.71-0.07-1.31-0.07-1.8c-0.45,0.64-0.98,1.25-1.58,1.84
				c-0.6,0.59-1.13,1.16-1.58,1.7c-0.36,0.46-0.79,0.95-1.29,1.48c-0.5,0.53-0.98,1.01-1.47,1.43h-0.18c-0.06,0-0.12-0.03-0.18-0.09
				c-0.03-0.27,0.01-0.47,0.14-0.59c0.48-0.55,1.01-1.12,1.6-1.73c0.59-0.61,1.16-1.2,1.72-1.77s1.08-1.13,1.56-1.66
				c0.48-0.53,0.86-1.01,1.13-1.43c0.15-0.18,0.22-0.38,0.2-0.59c-0.01-0.21-0.01-0.38,0.02-0.5c0.03-0.33,0.04-0.68,0.02-1.05
				c-0.01-0.36-0.05-0.68-0.11-0.96c-0.58,0.61-1.16,1.25-1.75,1.93c-0.59,0.68-1.19,1.33-1.8,1.93c-0.09,0.09-0.27,0.28-0.55,0.57
				c-0.27,0.29-0.58,0.58-0.91,0.89c-0.33,0.3-0.67,0.58-1,0.84c-0.33,0.26-0.59,0.42-0.77,0.48c0,0.48,0.01,1.05,0.05,1.7
				c0.03,0.65,0.05,1.27,0.07,1.86c0.01,0.59,0.04,1.11,0.07,1.55c0.03,0.44,0.04,0.71,0.04,0.8v3.91c0,0.15-0.04,0.22-0.11,0.2
				c-0.08-0.01-0.11,0.01-0.11,0.07c0.03,0.61,0.04,1.23,0.02,1.89c-0.02,0.65-0.1,1.31-0.25,1.98c0.18,0.36,0.24,0.82,0.18,1.36
				c-0.06,0.55-0.05,0.97,0.04,1.27c0.06,0.21,0.21,0.4,0.43,0.57c0.23,0.17,0.47,0.32,0.73,0.45c0.26,0.14,0.52,0.25,0.8,0.34
				c0.27,0.09,0.48,0.17,0.64,0.23c0.21,0.06,0.47,0.11,0.77,0.16c0.3,0.04,0.59,0.07,0.86,0.07c0.27,0,0.52-0.01,0.75-0.02
				c0.23-0.01,0.37-0.04,0.43-0.07c0.48-0.27,0.97-0.68,1.45-1.23c0.48-0.55,0.95-1.12,1.41-1.73c0.46-0.61,0.89-1.21,1.3-1.82
				C81.16,85.53,81.54,85.03,81.91,84.64 M85.04,49.76c-1.15,0-2.25,0.09-3.27,0.27c-0.18,0.18-0.36,0.36-0.55,0.55
				c-0.18,0.18-0.39,0.35-0.64,0.5c0,0.06-0.01,0.14-0.02,0.23c-0.01,0.09-0.05,0.17-0.11,0.23c-0.21,0.12-0.43,0.32-0.64,0.59
				c-0.21,0.27-0.39,0.48-0.55,0.63c-0.34,0.31-0.64,0.65-0.93,1.05c-0.29,0.39-0.55,0.71-0.8,0.95c-0.06,0.09-0.16,0.17-0.29,0.23
				c-0.14,0.06-0.24,0.15-0.3,0.27c-0.52,0.49-1.04,1.05-1.57,1.68c-0.53,0.63-1.04,1.26-1.52,1.86c-0.34,0.36-0.69,0.75-1.07,1.16
				c-0.38,0.41-0.75,0.83-1.11,1.25c-0.09,0.09-0.19,0.23-0.3,0.41c-0.11,0.18-0.18,0.35-0.21,0.5c-0.06,0.51-0.06,1.05,0,1.59
				c0.06,0.55,0.06,1.03,0,1.46c1-1.27,2.07-2.53,3.21-3.77c1.14-1.24,2.3-2.5,3.48-3.77c1.18-1.27,2.38-2.56,3.59-3.87
				C82.66,52.46,83.86,51.13,85.04,49.76 M89.04,49.49c-0.51,0-1.05-0.01-1.61-0.04c-0.56-0.03-1.08,0.04-1.57,0.23
				c-0.27,0.09-0.48,0.29-0.61,0.59c-0.14,0.31-0.3,0.52-0.48,0.64c-0.03,0.06-0.04,0.14-0.04,0.25c0,0.11-0.03,0.19-0.09,0.25
				c-0.27,0.15-0.55,0.36-0.82,0.61c-0.27,0.26-0.52,0.52-0.75,0.77c-0.23,0.26-0.44,0.51-0.64,0.75c-0.2,0.24-0.36,0.43-0.48,0.55
				c-0.12,0.12-0.26,0.23-0.43,0.32c-0.17,0.09-0.31,0.2-0.43,0.32c-0.51,0.52-0.97,1.02-1.36,1.52c-0.39,0.5-0.8,1.01-1.23,1.52
				c-0.06,0-0.1,0.01-0.11,0.02c-0.02,0.01-0.04,0.02-0.07,0.02h-0.09c0.15,0.3,0.17,0.52,0.05,0.64c-0.39-0.03-0.65,0.08-0.77,0.32
				c-0.12,0.24-0.32,0.46-0.59,0.64c-0.03,0.06-0.05,0.11-0.05,0.16c0,0.05-0.03,0.1-0.09,0.16c-0.7,0.52-1.32,1.14-1.86,1.86
				c-0.55,0.73-1.21,1.53-2,2.41c-0.06,0-0.11-0.01-0.16-0.02c-0.05-0.01-0.1,0.01-0.16,0.07c-0.18,0.33-0.39,0.67-0.61,1
				c-0.23,0.33-0.49,0.67-0.8,1c-0.03,0.24-0.04,0.52-0.02,0.84c0.01,0.32,0.01,0.61-0.02,0.89c0.67-0.51,1.38-1.09,2.14-1.73
				c0.76-0.64,1.44-1.24,2.05-1.82c0.51-0.48,1.03-1,1.55-1.55c0.51-0.55,0.88-1.02,1.09-1.41c0.06-0.15,0.08-0.32,0.07-0.5
				c-0.01-0.18-0.04-0.37-0.07-0.57c-0.03-0.2-0.06-0.38-0.09-0.55c-0.03-0.17-0.01-0.32,0.05-0.48c0.18-0.42,0.39-0.84,0.64-1.25
				c0.24-0.41,0.51-0.7,0.82-0.88c0.7-0.43,1.44-0.67,2.23-0.73c0.79-0.06,1.55-0.15,2.27-0.27c0.64-0.79,1.37-1.71,2.2-2.77
				c0.83-1.06,1.65-2.08,2.43-3.05v-0.18v-0.09c0.09-0.06,0.19-0.13,0.29-0.21C88.9,49.67,88.98,49.58,89.04,49.49 M77.95,62.18
				c-0.52,0.51-1.01,1.04-1.48,1.57c-0.47,0.53-0.92,0.99-1.34,1.39c-0.67,0.67-1.34,1.31-2.02,1.91c-0.68,0.61-1.33,1.12-1.93,1.55
				c0.06,0.52,0.08,1.04,0.05,1.57c-0.03,0.53-0.05,1.02-0.05,1.48c0.39-0.21,0.81-0.51,1.25-0.91c0.44-0.39,0.87-0.81,1.3-1.25
				c0.42-0.44,0.83-0.88,1.21-1.32c0.38-0.44,0.73-0.83,1.07-1.16c0.15-0.12,0.33-0.28,0.55-0.48c0.21-0.2,0.42-0.39,0.61-0.59
				c0.2-0.2,0.37-0.38,0.52-0.55c0.15-0.17,0.24-0.3,0.27-0.39c0.15-0.36,0.2-0.81,0.14-1.34C78.03,63.13,77.98,62.63,77.95,62.18
				 M80.77,50.04c-0.52,0-1.05-0.02-1.59-0.05c-0.55-0.03-1.05,0.03-1.5,0.18c-0.46,0.18-0.87,0.51-1.25,1
				c-0.38,0.49-0.73,0.89-1.07,1.23c0.06,0,0.11,0.01,0.16,0.05c0.05,0.03,0.04,0.08-0.02,0.14h-0.18c-0.03,0-0.05-0.01-0.05-0.04
				c-0.18,0.21-0.38,0.47-0.59,0.77c-0.21,0.3-0.41,0.57-0.59,0.82c-0.06,0.03-0.14,0.06-0.23,0.09c-0.09,0.03-0.17,0.08-0.23,0.14
				c-0.48,0.61-0.93,1.14-1.32,1.59c-0.39,0.46-0.65,1-0.77,1.64c-0.12,0.55-0.18,1.11-0.18,1.7c0,0.59-0.03,1.13-0.09,1.62
				c1.43-1.64,2.96-3.37,4.59-5.21C77.5,53.86,79.13,51.98,80.77,50.04 M76.45,50.31c-0.45,0-0.97,0.11-1.55,0.32
				c-0.58,0.21-1.13,0.5-1.64,0.86c-0.51,0.36-0.91,0.8-1.22,1.32c-0.3,0.52-0.41,1.08-0.31,1.68l0.09,0.09
				c0,0.03,0.01,0.05,0.05,0.05c0.03,0.36-0.05,0.76-0.23,1.18c0.82-0.91,1.63-1.81,2.43-2.71C74.87,52.21,75.66,51.28,76.45,50.31
				 M86.86,84.5c-0.61,0.15-1.3,0.2-2.07,0.14c-0.77-0.06-1.43-0.06-1.98,0c-0.67,0.82-1.38,1.67-2.14,2.55
				c-0.76,0.88-1.44,1.68-2.05,2.41c-0.03,0.33-0.15,0.61-0.36,0.82c-0.06,0-0.14,0.01-0.25,0.02c-0.11,0.01-0.19,0.02-0.25,0.02
				c0,0.09,0.01,0.16,0.05,0.23c0.03,0.06,0.06,0.11,0.09,0.14c0.36-0.06,0.73-0.1,1.09-0.11c0.36-0.02,0.73-0.03,1.09-0.05
				c0.36-0.01,0.71-0.06,1.05-0.14c0.33-0.08,0.64-0.22,0.91-0.43c0.46-0.36,0.9-0.79,1.34-1.27c0.44-0.48,0.86-0.98,1.25-1.5
				c0.39-0.52,0.77-1.02,1.14-1.52C86.13,85.3,86.5,84.87,86.86,84.5 M91.73,74.82c0-0.21-0.04-0.43-0.11-0.66
				c-0.08-0.23-0.11-0.43-0.11-0.61c0-0.34,0.03-0.68,0.09-1.05c0.06-0.36,0.09-0.62,0.09-0.77v-3.77c0-0.09-0.01-0.44-0.02-1.05
				c-0.02-0.61-0.04-1.32-0.07-2.14c-0.03-0.82-0.05-1.68-0.05-2.57v-2.3c0-0.21-0.02-0.47-0.07-0.77c-0.04-0.3-0.1-0.53-0.16-0.68
				c-0.3-0.55-0.67-0.89-1.09-1.02c-0.43-0.14-0.76-0.28-1-0.43c-0.15-0.09-0.29-0.19-0.43-0.3c-0.14-0.11-0.26-0.16-0.39-0.16
				c-1,0-2.05,0.01-3.14,0.04c-1.09,0.03-1.98,0.08-2.68,0.14c-0.12,0.06-0.27,0.08-0.43,0.07c-0.17-0.01-0.3,0.01-0.39,0.07
				c-0.43,0.18-0.82,0.28-1.18,0.3c-0.36,0.02-0.71,0.25-1.05,0.71c-0.18,0.27-0.31,0.62-0.39,1.05c-0.08,0.43-0.19,0.8-0.34,1.14
				c-0.03,0.18-0.03,0.47,0,0.86c0.03,0.39,0.08,0.71,0.14,0.95c0,0.55-0.01,1.2-0.02,1.96c-0.02,0.76-0.03,1.48-0.05,2.16
				c-0.01,0.68-0.03,1.27-0.04,1.77c-0.02,0.5-0.02,0.8-0.02,0.89v4.14c0,0.33-0.01,0.68-0.04,1.05c-0.03,0.36,0,0.7,0.09,1
				c0.03,0.12,0.08,0.23,0.16,0.32c0.07,0.09,0.11,0.21,0.11,0.36c0,0.64-0.01,1.35-0.02,2.14c-0.02,0.79,0.02,1.36,0.11,1.73
				c-0.09,0.06-0.12,0.14-0.09,0.25c0.03,0.11,0.03,0.19,0,0.25c0.06,0.39,0.09,0.86,0.09,1.39c0,0.53,0.03,0.92,0.09,1.16
				c0.03,0.21,0.12,0.45,0.27,0.7c0.15,0.26,0.3,0.48,0.45,0.66c0.64,0.06,1.26,0.11,1.87,0.16c0.61,0.04,1.22,0.07,1.84,0.07
				c0.62,0,1.26-0.04,1.91-0.11c0.65-0.08,1.34-0.22,2.07-0.43c0.42-0.12,0.89-0.18,1.41-0.18c0.52,0,1-0.04,1.45-0.14
				c0.15-0.06,0.32-0.15,0.5-0.27c0.18-0.12,0.29-0.26,0.32-0.41c0.15-0.61,0.21-1.23,0.18-1.86c-0.03-0.64-0.01-1.26,0.04-1.86
				c0.03-0.61,0.05-1.26,0.07-1.95C91.72,76.08,91.73,75.42,91.73,74.82 M79.5,60.95c-0.06,0.06-0.13,0.13-0.21,0.21
				c-0.08,0.08-0.14,0.11-0.2,0.11v-0.64c0.06,0,0.13,0.02,0.2,0.07C79.37,60.75,79.44,60.83,79.5,60.95 M99.91,74.86
				c0.18-0.36,0.28-0.76,0.3-1.21c0.01-0.44-0.02-0.89-0.09-1.34c-0.08-0.45-0.16-0.89-0.25-1.32c-0.09-0.42-0.15-0.8-0.18-1.14
				c-0.15,0.18-0.28,0.38-0.39,0.59c-0.11,0.21-0.22,0.38-0.34,0.5c0.06,0.06,0.09,0.11,0.09,0.14c0,0.03-0.01,0.05-0.04,0.05
				c-0.21,0.06-0.44,0.2-0.68,0.43c-0.24,0.23-0.45,0.45-0.64,0.66c-0.51,0.61-1.04,1.22-1.57,1.84c-0.53,0.62-0.98,1.18-1.34,1.66
				c-0.27,0.33-0.59,0.75-0.96,1.25c-0.36,0.5-0.71,0.95-1.05,1.34c-0.03,0.36-0.03,0.74,0,1.14c0.03,0.39-0.08,0.74-0.32,1.05
				c0.09,0.82,0.09,1.55,0,2.18c-0.15,0.18-0.33,0.39-0.52,0.61c-0.2,0.23-0.42,0.39-0.66,0.48c-0.27,0.12-0.57,0.16-0.89,0.11
				c-0.32-0.05-0.55-0.05-0.71-0.02c-0.36,0.03-0.75,0.1-1.16,0.2c-0.41,0.11-0.72,0.25-0.93,0.43c-0.42,0.36-0.83,0.82-1.23,1.39
				c-0.39,0.56-0.8,1.05-1.23,1.48c-0.09,0.18-0.23,0.39-0.41,0.61c-0.18,0.23-0.37,0.46-0.57,0.68c-0.2,0.23-0.39,0.45-0.59,0.68
				c-0.2,0.23-0.34,0.45-0.43,0.66c-0.18,0.06-0.3,0.12-0.36,0.18c0.27-0.03,0.58-0.01,0.91,0.07c0.33,0.08,0.67,0.14,1,0.18
				c0.33,0.05,0.65,0.06,0.96,0.05c0.3-0.02,0.58-0.11,0.82-0.3c0.67-0.51,1.24-1.2,1.73-2.05c0.48-0.85,1.03-1.64,1.64-2.37
				c0.27-0.33,0.61-0.67,1-1.02c0.39-0.35,0.71-0.64,0.96-0.89c0.67-0.7,1.45-1.52,2.34-2.46c0.89-0.94,1.74-1.85,2.55-2.73
				c0.8-0.88,1.51-1.67,2.11-2.39C99.38,75.58,99.76,75.11,99.91,74.86 M93.55,49.26c-0.58,0-1.19-0.01-1.84-0.04
				c-0.65-0.03-1.25,0.03-1.8,0.18c-0.27,0.06-0.51,0.29-0.71,0.71c-0.2,0.41-0.37,0.72-0.52,0.93c-0.24,0.34-0.51,0.63-0.8,0.89
				c-0.29,0.26-0.51,0.49-0.66,0.71c-0.03,0.06-0.05,0.14-0.05,0.23c0,0.09-0.03,0.17-0.09,0.23c-0.06,0.03-0.14,0.07-0.23,0.11
				c-0.09,0.05-0.17,0.08-0.23,0.11c-0.33,0.39-0.7,0.85-1.09,1.36c-0.39,0.52-0.74,0.97-1.05,1.36c0.3,0,0.61,0.04,0.93,0.11
				c0.32,0.08,0.64,0.14,0.96,0.18c0.32,0.05,0.62,0.05,0.91,0.02c0.29-0.03,0.55-0.14,0.79-0.32c1.27-1.03,2.34-2.14,3.21-3.32
				C92.16,51.54,92.91,50.38,93.55,49.26 M100.18,78.59c-0.03-0.7-0.07-1.26-0.11-1.7c-0.04-0.44-0.1-0.89-0.16-1.34
				c-0.18,0.34-0.41,0.65-0.68,0.93c-0.27,0.29-0.55,0.58-0.82,0.86c-0.27,0.29-0.52,0.57-0.75,0.84c-0.23,0.27-0.39,0.56-0.48,0.86
				c-0.15,0-0.26,0.01-0.32,0.04c-0.18,0.15-0.37,0.36-0.57,0.61c-0.2,0.26-0.37,0.46-0.52,0.61c0.06,0,0.18,0.06,0.36,0.18
				c-0.15,0.03-0.27,0.06-0.36,0.09c-0.09,0.03-0.2,0.06-0.32,0.09c-0.06,0.15-0.17,0.3-0.32,0.46c-0.15,0.15-0.21,0.27-0.18,0.36
				c-0.58,0.27-1.08,0.7-1.52,1.3c-0.44,0.59-0.89,1.07-1.34,1.43c-0.03,0.06-0.02,0.11,0.02,0.16c0.05,0.05,0.04,0.1-0.02,0.16
				c-0.27,0.21-0.55,0.44-0.82,0.68c-0.27,0.24-0.5,0.39-0.68,0.45c-0.42,0.52-0.86,1.03-1.32,1.55c-0.46,0.51-0.91,1.03-1.36,1.55
				c-0.03,0.06-0.04,0.14-0.04,0.25c0,0.11-0.02,0.19-0.05,0.25c-0.06,0.15-0.14,0.29-0.23,0.41c-0.09,0.12-0.2,0.21-0.32,0.27
				c0.39-0.06,0.83-0.09,1.3-0.09c0.47,0,0.93-0.01,1.39-0.02c0.46-0.02,0.89-0.08,1.3-0.18c0.41-0.11,0.78-0.3,1.11-0.57
				c1.58-1.36,3-2.83,4.27-4.39c1.27-1.56,2.44-3.07,3.5-4.52c0.15-0.21,0.21-0.47,0.16-0.77
				C100.25,79.11,100.22,78.83,100.18,78.59 M97.05,49.63c-0.21,0-0.42-0.06-0.61-0.18c-0.2-0.12-0.39-0.23-0.59-0.32
				c-0.2-0.09-0.41-0.14-0.64-0.14s-0.46,0.09-0.71,0.27c-0.49,0.39-0.9,0.8-1.25,1.21c-0.35,0.41-0.67,0.82-0.98,1.23
				c-0.3,0.41-0.61,0.83-0.93,1.25c-0.32,0.42-0.69,0.83-1.11,1.23c-0.03,0.06-0.04,0.1-0.02,0.11c0.01,0.02,0.02,0.04,0.02,0.07
				v0.09c-0.24,0.33-0.46,0.61-0.66,0.84c-0.2,0.23-0.37,0.52-0.52,0.89c0.3,0.21,0.63,0.4,0.98,0.57c0.35,0.17,0.66,0.34,0.93,0.52
				c1.06-1.3,2.09-2.58,3.09-3.84C95.05,52.17,96.05,50.9,97.05,49.63 M99.19,51.85c0-0.12-0.03-0.3-0.09-0.52
				c-0.06-0.23-0.14-0.45-0.25-0.66c-0.11-0.21-0.24-0.39-0.41-0.55c-0.17-0.15-0.36-0.23-0.57-0.23c-0.15,0.24-0.38,0.47-0.68,0.68
				c-0.3,0.21-0.53,0.41-0.68,0.59c-0.52,0.61-1.05,1.26-1.61,1.95c-0.56,0.7-1.15,1.35-1.75,1.95c-0.24,0.21-0.49,0.56-0.75,1.05
				c-0.26,0.49-0.55,0.85-0.89,1.09c0,0.33,0.14,0.64,0.43,0.91c0.29,0.27,0.46,0.53,0.52,0.77c0.06,0.24,0.05,0.51-0.02,0.8
				c-0.08,0.29-0.08,0.51-0.02,0.66c0.18,0,0.32,0.05,0.41,0.14c1.06-1.45,2.12-2.91,3.18-4.36C97.06,54.67,98.12,53.25,99.19,51.85
				 M99.82,53.63c-0.03-0.21-0.07-0.45-0.11-0.73c-0.05-0.27-0.1-0.5-0.16-0.68c-0.43,0.46-0.83,0.95-1.23,1.48
				c-0.39,0.53-0.77,1.01-1.14,1.43c-0.24,0.3-0.5,0.64-0.77,1c-0.27,0.36-0.55,0.74-0.82,1.14c-0.27,0.4-0.54,0.78-0.8,1.16
				c-0.26,0.38-0.49,0.72-0.71,1.02c0.06,0.09,0.04,0.18-0.05,0.27c-0.3,0.15-0.58,0.43-0.84,0.84c-0.26,0.41-0.43,0.8-0.52,1.16
				c-0.03,0.06-0.06,0.11-0.09,0.14l-0.04,0.05c-0.03,0.43-0.04,0.9-0.02,1.41c0.02,0.51-0.01,0.94-0.07,1.27
				c-0.03,0.12-0.07,0.23-0.11,0.32c-0.04,0.09-0.05,0.21-0.02,0.36c0.12,0.18,0.17,0.33,0.14,0.45c-0.03,0.21-0.03,0.43,0,0.64
				c0.03,0.21,0.02,0.38-0.04,0.5c0.42-0.61,0.88-1.21,1.36-1.8c0.49-0.59,0.89-1.1,1.23-1.52c0.7-0.88,1.39-1.77,2.07-2.66
				c0.68-0.89,1.36-1.81,2.02-2.75c0.09-0.15,0.19-0.35,0.3-0.59c0.11-0.24,0.16-0.44,0.16-0.59c0.06-0.61,0.03-1.2-0.09-1.77
				c-0.12-0.58-0.26-1.15-0.41-1.73c0.12-0.33,0.24-0.49,0.36-0.46C99.68,53.27,99.82,53.48,99.82,53.63 M99.78,68.73
				c0.06-1.58,0.04-3.29-0.07-5.14c-0.11-1.85-0.19-3.65-0.25-5.41c-0.15,0.18-0.29,0.4-0.41,0.66c-0.12,0.26-0.21,0.52-0.27,0.8
				c-0.24,0.12-0.45,0.28-0.61,0.48c-0.17,0.2-0.33,0.39-0.48,0.57c0,0.03,0.01,0.04,0.02,0.04c0.01,0,0.02,0.02,0.02,0.05
				c0,0.03,0.01,0.05,0.05,0.05c-0.43,0.33-0.85,0.77-1.27,1.32c-0.43,0.55-0.86,1.14-1.32,1.77c-0.45,0.64-0.91,1.27-1.36,1.91
				c-0.45,0.63-0.92,1.21-1.41,1.73c0.06,0.67,0.08,1.4,0.07,2.2c-0.02,0.8,0.01,1.53,0.07,2.16c0.94-1.18,2.01-2.48,3.2-3.89
				c1.2-1.41,2.34-2.71,3.43-3.89l0.18,0.18c-1.12,1.52-2.23,2.96-3.34,4.32c-1.11,1.36-2.25,2.77-3.43,4.23
				c-0.06,0.67-0.11,1.32-0.14,1.95c-0.03,0.64-0.04,1.24-0.04,1.82c0,0.15,0.05,0.3,0.16,0.43c0.11,0.14,0.19,0.28,0.25,0.43
				c0.24-0.39,0.5-0.79,0.77-1.18c0.27-0.39,0.53-0.74,0.77-1.05c0.79-0.88,1.59-1.78,2.41-2.7c0.82-0.93,1.62-1.86,2.41-2.8
				c0.15-0.15,0.29-0.33,0.41-0.52C99.71,69.05,99.78,68.88,99.78,68.73 M100.14,81c-0.24,0.43-0.57,0.86-0.98,1.32
				c-0.41,0.46-0.78,0.86-1.11,1.23c-0.03,0.06-0.08,0.1-0.16,0.11c-0.08,0.01-0.14,0.04-0.21,0.07c-0.79,0.88-1.55,1.77-2.3,2.68
				c-0.74,0.91-1.45,1.71-2.11,2.41c0.61-0.06,1.23-0.12,1.86-0.18c0.64-0.06,1.26-0.12,1.86-0.18c0.18-0.06,0.39-0.27,0.64-0.64
				c0.24-0.36,0.41-0.67,0.5-0.91c0,0.18,0.01,0.36,0.05,0.55c0.03,0.18,0.03,0.35,0,0.5c0.7-0.88,1.2-1.97,1.5-3.27
				C99.99,83.38,100.14,82.15,100.14,81"/>
			<path class="st3" d="M147.61,57.04c0,2.06-0.04,4.09-0.14,6.07c-0.09,1.99-0.14,4.02-0.14,6.12c0,1-0.05,2-0.16,3
				c-0.11,1-0.23,2-0.36,3c-0.14,1-0.26,1.99-0.36,2.98c-0.11,0.98-0.16,1.98-0.16,2.98c0,1.45-0.02,2.92-0.07,4.39
				c-0.04,1.47-0.07,2.93-0.07,4.39v0.84c0,0.17,0.01,0.31,0.05,0.43c0.03,0.12,0.08,0.24,0.16,0.36c0.08,0.12,0.2,0.32,0.39,0.59
				l-0.14,0.27c-0.97,0-1.91-0.02-2.83-0.07c-0.92-0.05-1.85-0.07-2.78-0.07c-0.57,0-1.18,0.01-1.81,0.04
				c-0.63,0.03-1.22,0.17-1.76,0.41l-0.41-0.14v-1.68c0-0.88-0.01-1.9-0.02-3.07c-0.02-1.17-0.02-2.4-0.02-3.68
				c0-1.29,0.01-2.48,0.02-3.57c0.01-1.09,0.02-2.01,0.02-2.75s0.01-1.13,0.04-1.16c-0.06-0.09-0.11-0.21-0.16-0.36
				c-0.05-0.15-0.07-0.26-0.07-0.32c0-0.48,0.02-0.96,0.07-1.41c0.04-0.45,0.07-0.92,0.07-1.41c0-1.24-0.09-2.5-0.27-3.77
				c0.15-0.51,0.23-0.98,0.23-1.41c0-0.45-0.05-0.91-0.14-1.36c-0.91,1-1.76,2.07-2.55,3.21c-0.79,1.14-1.56,2.31-2.32,3.52
				c-0.76,1.21-1.5,2.42-2.23,3.64c-0.73,1.21-1.47,2.38-2.23,3.5c-0.21,0.33-0.53,0.58-0.96,0.73l-0.32-0.36
				c1.76-2.57,3.47-5.17,5.14-7.77c1.67-2.61,3.41-5.18,5.23-7.73c1.64-2.27,3.28-4.53,4.93-6.75c1.65-2.23,3.3-4.48,4.93-6.75
				c-0.3-0.18-0.64-0.29-1-0.32c-0.36-0.03-0.71-0.04-1.05-0.04c-0.27,0-0.55,0.01-0.84,0.02c-0.29,0.01-0.57,0.04-0.84,0.07
				l-0.27,0.18c-0.15,0.36-0.34,0.81-0.57,1.34c-0.23,0.53-0.51,0.89-0.84,1.07c-0.43,0.91-0.95,1.77-1.57,2.59
				s-1.23,1.61-1.84,2.36c-0.55,0.67-1.05,1.37-1.52,2.12c-0.47,0.74-0.95,1.48-1.43,2.2c-0.58,0.88-1.18,1.73-1.8,2.55
				s-1.23,1.67-1.84,2.55c-0.18,0.24-0.33,0.52-0.45,0.84c-0.12,0.32-0.27,0.63-0.46,0.93c-0.27,0.39-0.71,0.99-1.3,1.8
				c-0.59,0.8-1.21,1.64-1.84,2.52c-0.64,0.88-1.21,1.7-1.73,2.48c-0.52,0.77-0.82,1.3-0.91,1.57c0.21,0.33,0.52,0.71,0.93,1.11
				c0.41,0.41,0.61,0.83,0.61,1.25l-0.05,0.14l-0.09,0.05c-0.27,0-0.55-0.15-0.82-0.46c-0.27-0.3-0.55-0.64-0.84-1.02
				s-0.58-0.75-0.86-1.11c-0.29-0.36-0.58-0.61-0.88-0.73l-0.05-0.27c-0.24-0.21-0.46-0.45-0.64-0.73
				c-0.18-0.27-0.39-0.53-0.64-0.77c-0.12-0.3-0.29-0.58-0.5-0.84c-0.21-0.26-0.45-0.51-0.71-0.75c-0.26-0.24-0.5-0.48-0.73-0.73
				c-0.23-0.24-0.42-0.53-0.57-0.86c-0.21-0.46-0.43-0.84-0.66-1.16c-0.23-0.32-0.46-0.59-0.68-0.82c-0.23-0.23-0.44-0.44-0.63-0.64
				c-0.2-0.2-0.36-0.4-0.48-0.61c-0.15-0.24-0.27-0.49-0.36-0.75c-0.09-0.26-0.23-0.49-0.41-0.71c-0.06,1.06-0.1,2.11-0.11,3.14
				c-0.02,1.03-0.05,2.08-0.11,3.14l-0.36-0.55c-0.12,0.15-0.2,0.34-0.23,0.55c-0.03,0.21-0.05,0.43-0.05,0.64
				c0,0.61,0.04,1.18,0.11,1.73c0.07,0.55,0.11,1.12,0.11,1.73c0,0.97,0.02,1.94,0.07,2.91c0.05,0.97,0.07,1.94,0.07,2.91v1.27
				c0,0.61-0.02,1.23-0.07,1.86c-0.05,0.64-0.12,1.2-0.23,1.68c-0.11,0.48-0.28,0.73-0.52,0.73c-0.3,0-0.49-0.2-0.55-0.59
				c0.18-0.46,0.29-0.92,0.32-1.39c0.03-0.47,0.04-0.95,0.04-1.43v-0.41L113.6,86c-0.15,0.15-0.4,0.43-0.75,0.82
				c-0.35,0.39-0.71,0.8-1.09,1.23c-0.38,0.42-0.73,0.8-1.07,1.14c-0.33,0.33-0.56,0.5-0.68,0.5c-0.12,0-0.24-0.01-0.36-0.02
				c-0.12-0.02-0.26-0.02-0.41-0.02c0.27-0.34,0.67-0.74,1.18-1.23c0.52-0.49,1.03-1,1.55-1.55c0.51-0.54,0.97-1.08,1.36-1.61
				c0.39-0.53,0.59-1.02,0.59-1.48c0-0.03-0.01-0.12-0.02-0.27c-0.02-0.15-0.04-0.31-0.07-0.48c-0.03-0.17-0.05-0.32-0.07-0.46
				c-0.01-0.14-0.04-0.22-0.07-0.25c-1.18,1.18-2.38,2.33-3.59,3.46c-1.21,1.12-2.46,2.21-3.73,3.27l0.09,0.5
				c1.15,0.15,2.3,0.26,3.46,0.34c1.15,0.08,2.3,0.14,3.46,0.2l0.27,0.5c-0.24,0.09-0.55,0.16-0.91,0.2
				c-0.36,0.05-0.75,0.08-1.16,0.09c-0.41,0.01-0.8,0.01-1.18,0c-0.38-0.01-0.71-0.02-0.98-0.02c-0.3-0.12-0.61-0.2-0.91-0.23
				c-0.3-0.03-0.61-0.05-0.93-0.07c-0.32-0.01-0.64-0.07-0.96-0.16c-0.32-0.09-0.63-0.26-0.93-0.5c0.03-0.33,0.05-0.66,0.05-0.98
				v-0.98c0-0.7-0.05-1.39-0.14-2.09c-0.09-0.7-0.14-1.4-0.14-2.09c0-0.12,0.04-0.39,0.11-0.82c0.08-0.43,0.11-0.83,0.11-1.23
				c0-2.18,0.05-4.36,0.16-6.53c0.11-2.17,0.16-4.34,0.16-6.53c0-0.42,0.04-0.86,0.11-1.3c0.08-0.44,0.11-0.87,0.11-1.3
				c0-0.39-0.08-0.68-0.23-0.86l0.41-0.55c0-0.42-0.03-0.83-0.09-1.23c-0.06-0.39-0.09-0.8-0.09-1.23c0-0.88,0.07-1.76,0.23-2.64
				c0.15-0.88,0.26-1.76,0.32-2.64l-0.23-0.41c0.27-0.91,0.41-1.86,0.41-2.87l0.04-0.27l0.27-0.32c0.03-0.7,0.07-1.39,0.11-2.07
				c0.05-0.68,0.14-1.35,0.29-2.02c0.21,0.09,0.39,0.18,0.52,0.27c0.14,0.09,0.27,0.18,0.39,0.25c0.12,0.08,0.26,0.14,0.43,0.18
				c0.17,0.04,0.4,0.07,0.7,0.07c0.64,0,1.26-0.07,1.86-0.21c0.61-0.14,1.23-0.21,1.86-0.21c0.51,0,1.07,0.08,1.68,0.23
				c0.42,1.06,0.8,2.13,1.13,3.21c0.33,1.08,0.74,2.13,1.23,3.16c0.12,0.27,0.35,0.71,0.68,1.3c0.33,0.59,0.72,1.27,1.16,2.05
				c0.44,0.77,0.91,1.57,1.41,2.39c0.5,0.82,0.98,1.57,1.43,2.25c0.45,0.68,0.86,1.24,1.2,1.68c0.35,0.44,0.6,0.68,0.75,0.71
				l0.23,0.5c0.15,0.03,0.33-0.05,0.55-0.25c0.21-0.2,0.42-0.44,0.61-0.73c0.2-0.29,0.37-0.58,0.52-0.86
				c0.15-0.29,0.26-0.51,0.32-0.66c0.15-0.09,0.31-0.24,0.48-0.45c0.17-0.21,0.25-0.43,0.25-0.64c0.21-0.18,0.39-0.44,0.54-0.77
				c0.15-0.33,0.3-0.62,0.46-0.86c0.15-0.03,0.4-0.32,0.75-0.86c0.35-0.55,0.75-1.22,1.2-2.02c0.45-0.8,0.95-1.67,1.48-2.59
				c0.53-0.92,1.04-1.78,1.54-2.57c0.5-0.79,0.96-1.45,1.39-1.98c0.42-0.53,0.76-0.8,1-0.8c0.73,0,1.46,0.11,2.2,0.32
				c0.74,0.21,1.49,0.32,2.25,0.32c0.61,0,1.23-0.1,1.86-0.3c0.64-0.2,1.29-0.29,1.95-0.29s1.32,0.04,1.95,0.11
				c0.63,0.08,1.26,0.25,1.86,0.52c0.03,0.94,0.05,1.87,0.07,2.8C147.6,55.17,147.61,56.1,147.61,57.04 M113.74,76.14
				c0-0.27-0.02-0.55-0.05-0.82c-0.03-0.27-0.06-0.56-0.09-0.86c-0.42,0.36-0.95,0.88-1.57,1.55c-0.62,0.67-1.27,1.33-1.96,2
				c-0.68,0.67-1.35,1.27-2,1.82c-0.65,0.55-1.19,0.91-1.61,1.09c0.06,1.15,0.09,2.31,0.09,3.48c0,1.17,0.03,2.34,0.09,3.52
				c1.18-1.09,2.39-2.16,3.64-3.21c1.24-1.04,2.38-2.2,3.41-3.48v-1.95c0-0.15-0.01-0.3-0.02-0.43c-0.02-0.14-0.04-0.28-0.07-0.43
				c-0.21,0.18-0.65,0.59-1.32,1.23c-0.67,0.64-1.36,1.3-2.09,1.98c-0.73,0.68-1.41,1.29-2.05,1.82c-0.64,0.53-1.02,0.8-1.14,0.8
				c-0.06,0-0.12-0.08-0.18-0.23c-0.06-0.15-0.11-0.23-0.14-0.23c0.36-0.33,0.93-0.84,1.7-1.52c0.77-0.68,1.55-1.41,2.34-2.18
				c0.79-0.77,1.49-1.52,2.1-2.23C113.43,77.13,113.74,76.56,113.74,76.14 M113.78,73.04c-0.06-0.42-0.09-0.85-0.09-1.27
				c0-0.42-0.03-0.85-0.09-1.27c-0.97,0.97-1.95,2-2.96,3.09c-1,1.09-2.03,2.06-3.09,2.91c-0.18,0.15-0.41,0.2-0.68,0.14
				c-0.06,0.55-0.1,1.09-0.11,1.64c-0.01,0.55-0.05,1.09-0.11,1.64c1.33-1.06,2.57-2.14,3.71-3.23
				C111.49,75.59,112.63,74.38,113.78,73.04 M119.01,60.63c-0.06-0.43-0.22-0.78-0.47-1.07c-0.25-0.29-0.47-0.6-0.66-0.93
				c-1.72,1.76-3.39,3.59-5.02,5.48c-1.63,1.89-3.35,3.66-5.16,5.3l-0.27-0.23l0.05-0.5c0.18-0.21,0.56-0.61,1.14-1.21
				c0.58-0.59,1.23-1.27,1.95-2.05c0.73-0.77,1.49-1.59,2.3-2.45c0.8-0.86,1.53-1.67,2.18-2.41c0.65-0.74,1.2-1.39,1.64-1.93
				c0.44-0.55,0.66-0.88,0.66-1c0-0.39-0.14-0.75-0.41-1.07c-0.28-0.32-0.51-0.63-0.69-0.93c-1.45,1.6-2.93,3.15-4.43,4.64
				c-1.5,1.49-2.99,3-4.47,4.55c-0.39,1.76-0.56,3.62-0.5,5.57c0.06,1.95,0.08,3.81,0.05,5.57c1.24-1.21,2.48-2.42,3.73-3.62
				c1.24-1.2,2.5-2.37,3.77-3.52c-0.03-0.12-0.04-0.28-0.02-0.48c0.01-0.2,0.01-0.39,0-0.59c-0.01-0.2-0.05-0.36-0.11-0.5
				c-0.06-0.14-0.17-0.23-0.32-0.29c-1,1.03-2,2.06-3,3.09c-1,1.03-2.03,2.03-3.09,3l-0.54-0.09c0.06-0.21,0.36-0.62,0.89-1.23
				c0.53-0.61,1.18-1.33,1.95-2.16c0.77-0.83,1.62-1.71,2.55-2.64c0.92-0.93,1.81-1.8,2.66-2.64c0.85-0.83,1.6-1.58,2.27-2.25
				C118.27,61.37,118.74,60.9,119.01,60.63 M116,54.31c-0.12-0.36-0.24-0.73-0.34-1.11c-0.11-0.38-0.24-0.75-0.39-1.11
				c-1.12,1.15-2.25,2.34-3.38,3.55c-1.13,1.21-2.34,2.3-3.61,3.27c-0.12,0.09-0.26,0.13-0.41,0.11c-0.15-0.01-0.29-0.04-0.41-0.07
				c-0.06,0.55-0.11,1.09-0.14,1.64c-0.03,0.55-0.04,1.11-0.04,1.68c0,0.24,0.01,0.48,0.02,0.71c0.01,0.23,0.04,0.46,0.07,0.7
				c0.57-0.91,1.25-1.73,2.02-2.45c0.77-0.73,1.57-1.44,2.38-2.14c0.82-0.7,1.6-1.42,2.34-2.18C114.85,56.14,115.48,55.28,116,54.31
				 M114.83,51.22c-0.12-0.24-0.21-0.56-0.27-0.95c-0.33-0.09-0.67-0.14-1-0.14h-0.43c-0.14,0-0.28,0.03-0.43,0.09l-0.05,0.41
				c-0.82,0.91-1.63,1.83-2.43,2.75c-0.8,0.93-1.64,1.83-2.52,2.71v1.09c0,0.36-0.03,0.71-0.09,1.05c0.51-0.46,1.1-0.98,1.75-1.57
				c0.65-0.59,1.31-1.21,1.98-1.84c0.67-0.64,1.3-1.26,1.91-1.89C113.84,52.3,114.37,51.73,114.83,51.22 M111.37,50.67
				c-0.27-0.15-0.6-0.22-0.98-0.2c-0.38,0.01-0.72,0.02-1.02,0.02c-0.18,0-0.36-0.01-0.55-0.02c-0.18-0.02-0.36-0.05-0.55-0.11
				c-0.12,0.73-0.22,1.46-0.3,2.2c-0.08,0.74-0.13,1.49-0.16,2.25c0.61-0.7,1.21-1.39,1.8-2.07
				C110.21,52.06,110.79,51.37,111.37,50.67 M120.95,63.63c-0.21-0.43-0.47-0.81-0.77-1.16c-0.3-0.35-0.59-0.72-0.86-1.11
				c-0.69,0.82-1.43,1.61-2.22,2.36c-0.78,0.76-1.54,1.55-2.27,2.36c0.24,0.09,0.36,0.26,0.36,0.5c0,0.18,0.07,0.39,0.23,0.61
				c0.15,0.23,0.33,0.46,0.54,0.68c0.21,0.23,0.42,0.44,0.63,0.63c0.21,0.2,0.36,0.36,0.46,0.48c0.66-0.88,1.31-1.77,1.95-2.68
				C119.63,65.41,120.28,64.51,120.95,63.63 M123.09,66.77c-0.3-0.36-0.58-0.73-0.84-1.11c-0.26-0.38-0.51-0.76-0.75-1.16
				c-0.66,0.88-1.33,1.76-1.99,2.64c-0.66,0.88-1.34,1.74-2.04,2.59c0.55,0.94,1.17,1.79,1.86,2.55c0.6-0.97,1.23-1.89,1.88-2.75
				C121.85,68.66,122.48,67.74,123.09,66.77 M137.68,52.04l-0.27-0.32l-2.45-0.41c-0.21,0.39-0.56,1.03-1.05,1.91
				c-0.49,0.88-1.05,1.87-1.68,2.98c-0.64,1.11-1.31,2.27-2.02,3.48c-0.71,1.21-1.4,2.34-2.05,3.39c-0.65,1.05-1.22,1.94-1.7,2.68
				c-0.48,0.74-0.83,1.19-1.05,1.34c-0.36,0.24-0.7,0.35-1,0.32c-0.3-0.03-0.53,0.03-0.68,0.18c-0.18,0.15-0.45,0.46-0.82,0.93
				c-0.36,0.47-0.74,0.99-1.14,1.55c-0.4,0.56-0.77,1.11-1.13,1.64c-0.35,0.53-0.61,0.92-0.76,1.16v0.45
				c0.31,0.36,0.62,0.71,0.92,1.05c0.31,0.33,0.61,0.68,0.92,1.05c1.06-1.52,2.1-3.05,3.12-4.59c1.02-1.55,2.07-3.06,3.16-4.55
				c1.73-2.27,3.39-4.61,4.98-7C134.57,56.87,136.14,54.46,137.68,52.04 M141.48,51.99c-0.97,0.15-1.95,0.15-2.95,0
				c-0.36,0.61-0.76,1.2-1.18,1.77c-0.43,0.58-0.82,1.17-1.18,1.77c-1.09,1.79-2.23,3.53-3.41,5.23c-1.18,1.7-2.37,3.4-3.57,5.09
				c-1.2,1.7-2.38,3.41-3.54,5.14c-1.17,1.73-2.26,3.5-3.29,5.32c0.24,0.24,0.49,0.5,0.73,0.77c0.24,0.27,0.46,0.58,0.64,0.91
				c1.06-1.45,2.07-2.93,3.02-4.43c0.95-1.5,1.93-2.99,2.93-4.48c0.18-0.27,0.39-0.52,0.61-0.73c0.23-0.21,0.43-0.44,0.61-0.68
				c0.64-0.79,1.23-1.64,1.77-2.57c0.55-0.92,1.11-1.81,1.68-2.66c1.15-1.79,2.36-3.5,3.63-5.14
				C139.25,55.67,140.42,53.9,141.48,51.99 M146.75,53.08c-0.24,0.3-0.61,0.79-1.11,1.45c-0.5,0.67-1.07,1.43-1.7,2.3
				c-0.64,0.86-1.3,1.76-2,2.68c-0.7,0.92-1.34,1.8-1.93,2.61s-1.09,1.54-1.5,2.16c-0.41,0.62-0.66,1.02-0.75,1.21
				c-0.09,0.24-0.15,0.48-0.18,0.71c-0.03,0.23-0.05,0.46-0.05,0.7c0,0.43,0.01,0.83,0.05,1.21c0.03,0.38,0.04,0.77,0.04,1.16
				c1.58-2.09,3.15-4.18,4.71-6.25c1.56-2.08,3.04-4.24,4.43-6.48c0.03-0.58,0.02-1.15-0.02-1.73
				C146.68,54.23,146.69,53.66,146.75,53.08 M146.11,73.64c-0.24,0.3-0.6,0.73-1.06,1.3c-0.47,0.56-1,1.18-1.58,1.86
				c-0.59,0.68-1.19,1.4-1.81,2.16c-0.62,0.76-1.2,1.48-1.74,2.16c-0.54,0.68-1,1.28-1.38,1.8c-0.38,0.52-0.6,0.88-0.66,1.09
				c-0.12,0.27-0.18,0.62-0.18,1.05c0,0.36,0.03,0.73,0.09,1.09c0.06,0.36,0.09,0.73,0.09,1.09c1.18-1.36,2.42-2.71,3.73-4.02
				c1.3-1.32,2.5-2.71,3.59-4.16c0.15-0.18,0.23-0.35,0.25-0.5c0.01-0.15,0.05-0.33,0.11-0.55l0.08,0.27c0-0.79,0.05-1.56,0.15-2.32
				C145.89,75.2,146,74.42,146.11,73.64 M145.7,79.23c-0.34,0.36-0.87,0.98-1.61,1.84c-0.74,0.86-1.52,1.77-2.34,2.71
				c-0.82,0.94-1.58,1.79-2.3,2.55c-0.71,0.76-1.21,1.2-1.48,1.32c-0.12,0.27-0.2,0.56-0.23,0.86c-0.03,0.3-0.05,0.59-0.05,0.86
				c0,0.79,0.09,1.52,0.27,2.18c0.12,0,0.24-0.02,0.36-0.05c0.12-0.03,0.24-0.02,0.36,0.05c0.91-1.34,1.95-2.6,3.11-3.8
				c1.17-1.2,2.28-2.39,3.34-3.57l-0.09-0.27c0.24-0.21,0.39-0.46,0.43-0.75c0.05-0.29,0.07-0.6,0.07-0.93
				c0-0.48,0.02-0.98,0.07-1.48C145.68,80.25,145.7,79.74,145.7,79.23 M146.75,58.22c-1.52,2.09-3.02,4.18-4.52,6.28
				c-1.5,2.09-3,4.2-4.48,6.32c0.06,0.61,0.08,1.21,0.07,1.82c-0.02,0.61,0.01,1.21,0.07,1.82c1.48-2.09,2.96-4.18,4.43-6.28
				c1.47-2.09,2.93-4.2,4.39-6.32c-0.03-0.24-0.05-0.48-0.07-0.71c-0.01-0.23-0.02-0.46-0.02-0.71
				C146.61,59.69,146.66,58.95,146.75,58.22 M146.66,63.86c-0.09,0.03-0.33,0.27-0.71,0.73c-0.38,0.45-0.82,1.02-1.32,1.7
				c-0.5,0.68-1.04,1.43-1.64,2.23c-0.59,0.81-1.15,1.58-1.68,2.32c-0.53,0.74-1,1.4-1.41,1.98c-0.41,0.58-0.69,0.96-0.84,1.14
				l-0.18,0.55c-0.33,0.3-0.61,0.61-0.82,0.91c-0.21,0.3-0.32,0.71-0.32,1.23c0,0.3,0.02,0.6,0.06,0.89
				c0.04,0.29,0.08,0.58,0.14,0.89c0.12-0.15,0.36-0.47,0.73-0.95c0.36-0.49,0.8-1.05,1.3-1.71c0.5-0.65,1.03-1.34,1.6-2.07
				c0.56-0.73,1.08-1.39,1.55-2c0.47-0.61,0.88-1.12,1.21-1.55c0.34-0.43,0.53-0.65,0.59-0.68c0.12-0.3,0.27-0.61,0.43-0.91
				c0.17-0.3,0.33-0.58,0.48-0.82c0.09-0.09,0.24-0.23,0.46-0.41c0.21-0.18,0.32-0.32,0.32-0.41c0.09-0.48,0.11-0.99,0.04-1.52
				C146.59,64.85,146.6,64.35,146.66,63.86 M146.38,71.73v-3.14c-0.18,0.27-0.51,0.71-0.98,1.32c-0.47,0.61-1.01,1.3-1.61,2.09
				c-0.61,0.79-1.23,1.61-1.89,2.48c-0.65,0.86-1.26,1.68-1.82,2.43c-0.56,0.76-1.04,1.42-1.43,1.98c-0.39,0.56-0.62,0.92-0.68,1.07
				c-0.12,0.36-0.18,0.79-0.18,1.27c0,0.27,0.01,0.54,0.04,0.8c0.03,0.26,0.05,0.54,0.05,0.84c0.39-0.82,1.01-1.7,1.86-2.66
				c0.85-0.95,1.7-1.92,2.57-2.89c0.86-0.97,1.61-1.9,2.25-2.8c0.64-0.89,0.96-1.66,0.96-2.3c0.09-0.15,0.21-0.29,0.36-0.41
				C146.04,71.7,146.21,71.67,146.38,71.73 M145.57,87c0-0.36-0.02-0.72-0.07-1.07c-0.04-0.35-0.07-0.69-0.07-1.02
				c-0.7,0.76-1.42,1.5-2.15,2.23c-0.73,0.73-1.46,1.45-2.2,2.18c-0.34,0.33-0.63,0.71-0.89,1.11c-0.26,0.41-0.56,0.78-0.89,1.12
				c0.24-0.06,0.5-0.08,0.76-0.05c0.26,0.03,0.51,0.05,0.75,0.05c0.46,0,0.91-0.15,1.35-0.46c0.44-0.3,0.87-0.68,1.28-1.11
				c0.41-0.44,0.79-0.9,1.14-1.39c0.35-0.49,0.68-0.91,0.98-1.27V87z M145.43,88.46l-2.95,2.96c0.48,0.06,0.96,0.11,1.43,0.14
				c0.47,0.03,0.95,0.07,1.43,0.14c0-0.55,0.01-1.08,0.05-1.61C145.41,89.54,145.43,89.01,145.43,88.46 M144.52,82.64L144.2,83
				l-0.41-0.36H144.52z"/>
			<path class="st3" d="M176.44,84.14c0,0.46-0.02,0.96-0.07,1.5c-0.05,0.54-0.11,1.11-0.2,1.68c-0.09,0.57-0.19,1.13-0.3,1.66
				c-0.11,0.53-0.22,1.01-0.34,1.43c-0.61,0.24-1.24,0.4-1.89,0.48c-0.65,0.08-1.3,0.11-1.93,0.11c-1.06,0-2.13-0.03-3.21-0.09
				c-1.08-0.06-2.14-0.04-3.2,0.05l-0.41-0.27c-0.39,0.09-0.9,0.11-1.52,0.07c-0.62-0.04-1.07,0.01-1.34,0.16
				c-0.61-0.09-1.21-0.14-1.82-0.14c-0.97,0-1.9,0.11-2.8,0.34c-0.9,0.23-1.8,0.34-2.71,0.34c-0.06,0-0.17-0.02-0.32-0.07
				c-0.15-0.05-0.3-0.1-0.46-0.16c-0.15-0.06-0.29-0.13-0.41-0.2c-0.12-0.08-0.18-0.16-0.18-0.25c0-0.12,0.06-0.2,0.18-0.23
				c-0.06-0.15-0.11-0.24-0.14-0.27c-0.03-0.03-0.12-0.01-0.27,0.05c0-0.43-0.04-0.83-0.14-1.23c-0.09-0.39-0.08-0.82,0.04-1.27
				c-0.09-0.24-0.17-0.49-0.25-0.75c-0.08-0.26-0.11-0.51-0.11-0.75c0-0.24,0.03-0.49,0.09-0.75c0.06-0.26,0.09-0.52,0.09-0.8
				s-0.09-0.5-0.27-0.68c0.15-0.06,0.25-0.17,0.3-0.32c0.05-0.15,0.11-0.29,0.21-0.41c-0.06-0.15-0.11-0.3-0.16-0.43
				c-0.05-0.14-0.07-0.28-0.07-0.43c0-0.51,0.1-1.06,0.3-1.64c0.2-0.58,0.31-1.15,0.34-1.73c0.03-0.79,0.07-1.55,0.11-2.27
				c0.05-0.73,0.07-1.49,0.07-2.27c0-0.42,0.03-0.79,0.09-1.11c0.06-0.32,0.13-0.64,0.21-0.96c0.07-0.32,0.12-0.66,0.14-1.02
				c0.01-0.36-0.02-0.8-0.11-1.32c0.12-0.27,0.15-0.55,0.09-0.82c-0.06-0.27-0.04-0.56,0.05-0.86c0.09-0.15,0.17-0.3,0.25-0.46
				c0.07-0.15,0.11-0.32,0.11-0.5c0-0.18-0.02-0.36-0.07-0.55c-0.04-0.18-0.1-0.36-0.16-0.55c-0.18,0.15-0.38,0.24-0.59,0.27
				c0.21-0.18,0.39-0.36,0.52-0.52c0.14-0.16,0.22-0.39,0.25-0.66c0.3-2.73,0.48-5.46,0.54-8.19c0.06-2.73,0.23-5.47,0.5-8.23
				c0.21,0.15,0.39,0.23,0.55,0.23c0.34,0,0.67-0.05,1-0.16c0.33-0.11,0.67-0.16,1-0.16c0.18,0,0.36,0.04,0.55,0.11
				c0.18,0.08,0.36,0.11,0.55,0.11c0.82,0,1.66-0.04,2.51-0.14c0.85-0.09,1.7-0.14,2.55-0.14l4.1,0.04l0.27,0.23
				c0.52,0.03,1.04,0.06,1.57,0.09c0.53,0.03,1.06,0.05,1.57,0.05h0.5l0.14-0.27c0.15,0.12,0.3,0.24,0.46,0.36
				c0.15,0.12,0.3,0.23,0.46,0.32c0.06-0.03,0.17-0.05,0.32-0.05c0.21,0,0.42,0.02,0.61,0.05c0.2,0.03,0.4,0.04,0.62,0.04v1
				c0.03,0.88,0.01,1.74-0.07,2.59c-0.08,0.85-0.19,1.7-0.34,2.55l-0.6-0.09c-0.25,0.18-0.51,0.3-0.78,0.34
				c-0.27,0.04-0.55,0.13-0.83,0.25l-2.8-0.18c0.18-0.06,0.36-0.13,0.55-0.21c0.18-0.07,0.36-0.16,0.55-0.25
				c0.03,0.09,0.12,0.14,0.27,0.14c0.18,0,0.39-0.09,0.61-0.27c0.23-0.18,0.42-0.32,0.57-0.41c-0.06,0.18-0.14,0.38-0.23,0.59
				c0.21,0.12,0.44,0.18,0.68,0.18c0.24,0,0.51-0.05,0.79-0.14c0.29-0.09,0.52-0.24,0.71-0.46c0.06-0.3,0.17-0.58,0.32-0.84
				c0.15-0.26,0.23-0.54,0.23-0.84c0-0.24-0.05-0.49-0.14-0.73c-0.09-0.24-0.14-0.48-0.14-0.73c0-0.33,0.05-0.64,0.16-0.93
				c0.11-0.29,0.16-0.6,0.16-0.93c0-0.03-0.01-0.06-0.02-0.09c-0.01-0.03-0.02-0.08-0.02-0.14c-0.36,0.46-0.75,0.9-1.16,1.32
				c-0.41,0.42-0.83,0.85-1.25,1.27c0.06-0.51,0.3-0.96,0.71-1.34c0.41-0.38,0.76-0.76,1.07-1.16c-0.3-0.15-0.62-0.25-0.96-0.3
				c-0.33-0.04-0.67-0.1-1-0.16c-0.12,0.15-0.26,0.29-0.41,0.43c-0.15,0.14-0.34,0.24-0.55,0.3c-0.09,0.18-0.25,0.42-0.48,0.73
				c-0.23,0.3-0.48,0.62-0.75,0.96c-0.27,0.33-0.55,0.64-0.82,0.93c-0.27,0.29-0.49,0.49-0.64,0.61l-0.18-0.36
				c0.09-0.09,0.3-0.32,0.64-0.68c0.33-0.36,0.68-0.75,1.05-1.16c0.36-0.41,0.7-0.8,1-1.16c0.3-0.36,0.47-0.59,0.5-0.68
				c-0.24-0.03-0.47-0.06-0.68-0.09c-0.21-0.03-0.44-0.05-0.68-0.05c-0.24,0-0.48,0.03-0.73,0.09c-0.24,0.06-0.46,0.17-0.64,0.32
				l-0.23-0.23c-0.06,0.18-0.15,0.39-0.27,0.64c-0.12,0.24-0.27,0.48-0.43,0.71c-0.17,0.23-0.35,0.42-0.55,0.57
				c-0.2,0.15-0.39,0.23-0.57,0.23l-0.23-0.04c0.09-0.24,0.31-0.54,0.66-0.89c0.35-0.35,0.63-0.6,0.84-0.75l-0.04-0.14
				c0-0.18,0.07-0.35,0.23-0.5c-0.21-0.03-0.41-0.07-0.59-0.11c-0.18-0.05-0.38-0.07-0.59-0.07c-0.15,0-0.3,0.03-0.43,0.09
				c-0.14,0.06-0.24,0.18-0.3,0.36c-0.33,0.27-0.63,0.57-0.89,0.88c-0.26,0.32-0.51,0.65-0.75,0.98l-0.36,0.14
				c-0.3,0.51-0.66,1-1.07,1.45c-0.41,0.46-0.87,0.81-1.39,1.05c-0.03,0.18-0.12,0.35-0.27,0.5c-0.15,0.15-0.3,0.26-0.45,0.32
				c-0.15,0.18-0.3,0.36-0.43,0.52c-0.14,0.17-0.28,0.34-0.43,0.52l-0.59-0.23c0.94-0.88,1.85-1.79,2.73-2.73
				c0.88-0.94,1.71-1.94,2.5-3c0.09-0.06,0.2-0.11,0.32-0.14c0.12-0.03,0.24-0.01,0.36,0.04c0.03-0.18,0.11-0.38,0.23-0.59
				c-0.24-0.15-0.5-0.23-0.77-0.23c-0.48,0-0.97,0.16-1.45,0.48c-0.48,0.32-0.82,0.71-1,1.16c-0.15,0.09-0.29,0.2-0.41,0.32
				c-0.12,0.12-0.24,0.24-0.36,0.34c-0.12,0.11-0.24,0.18-0.36,0.23c-0.12,0.04-0.27,0.04-0.46-0.02v0.73
				c-0.28,0.06-0.46,0.21-0.55,0.45l-0.32-0.27c-0.18,0.21-0.39,0.48-0.61,0.82c-0.23,0.33-0.47,0.66-0.73,0.98
				c-0.26,0.32-0.53,0.6-0.82,0.84c-0.29,0.24-0.57,0.39-0.84,0.46c-0.12,0.12-0.23,0.24-0.32,0.34c-0.09,0.11-0.17,0.24-0.23,0.39
				h-0.5c0.21-0.24,0.47-0.5,0.77-0.77c0.3-0.27,0.61-0.55,0.93-0.84c0.32-0.29,0.61-0.58,0.86-0.86c0.26-0.29,0.46-0.57,0.61-0.84
				c0.3-0.12,0.59-0.31,0.86-0.57c0.27-0.26,0.54-0.53,0.8-0.82c0.26-0.29,0.52-0.56,0.8-0.82c0.27-0.26,0.56-0.43,0.86-0.52
				c0.06-0.18,0.13-0.37,0.2-0.57c0.08-0.2,0.17-0.37,0.3-0.52c-0.24-0.09-0.52-0.14-0.82-0.14c-0.21,0-0.46,0.02-0.73,0.07
				c-0.27,0.04-0.49,0.16-0.64,0.34c-0.34-0.21-0.7-0.29-1.09-0.23l-0.5,0.04l-0.41,0.46l-0.55-0.04c-0.15,0.12-0.3,0.24-0.43,0.34
				c-0.14,0.11-0.3,0.16-0.48,0.16v0.27c0,0.15-0.07,0.3-0.21,0.43c-0.14,0.14-0.28,0.26-0.43,0.39c-0.15,0.12-0.3,0.24-0.46,0.36
				c-0.15,0.12-0.24,0.24-0.27,0.36c-0.24,1.06-0.36,2.2-0.34,3.41c0.01,1.21,0.02,2.36,0.02,3.46l0.23,0.23
				c0.42-0.34,0.85-0.74,1.27-1.21c0.42-0.47,0.89-0.78,1.41-0.93c-0.06,0.15-0.16,0.29-0.3,0.41c-0.14,0.12-0.28,0.23-0.43,0.32
				c-0.15,0.27-0.33,0.55-0.55,0.82c-0.21,0.27-0.48,0.44-0.82,0.5l-0.18,0.46c-0.12,0.09-0.24,0.15-0.36,0.18
				c-0.12,0.03-0.24,0.08-0.36,0.14c-0.06,0.24-0.11,0.5-0.14,0.77c-0.03,0.27-0.04,0.54-0.04,0.82c0,0.21,0.01,0.42,0.02,0.63
				c0.01,0.21,0.04,0.44,0.07,0.68c0.33-0.36,0.69-0.71,1.07-1.02c0.38-0.32,0.75-0.64,1.11-0.98c-0.24,0.34-0.49,0.7-0.75,1.09
				c-0.26,0.39-0.54,0.73-0.84,1c-0.12,0.12-0.25,0.19-0.39,0.21c-0.14,0.01-0.26,0.08-0.39,0.21c-0.03,0.27-0.04,0.54-0.02,0.79
				c0.01,0.26,0.01,0.51-0.02,0.75l0.09,0.23c0.64-0.58,1.25-1.17,1.84-1.77c0.59-0.61,1.19-1.21,1.8-1.82
				c0.24-0.27,0.58-0.57,1-0.89c0.42-0.32,0.84-0.66,1.25-1.02c0.41-0.36,0.76-0.74,1.05-1.14c0.29-0.39,0.43-0.8,0.43-1.23v-0.18
				c-0.09-0.06-0.19-0.11-0.29-0.14c-0.11-0.03-0.21-0.08-0.3-0.14c-0.06,0.09-0.17,0.24-0.34,0.43c-0.17,0.2-0.35,0.39-0.55,0.59
				c-0.2,0.2-0.38,0.37-0.55,0.52s-0.28,0.23-0.34,0.23v0.09c0,0.15-0.1,0.33-0.29,0.52c-0.2,0.2-0.43,0.39-0.68,0.59
				c-0.26,0.2-0.52,0.39-0.8,0.57s-0.47,0.33-0.59,0.46c0.06-0.49,0.29-0.88,0.68-1.18c1.12-0.94,2.17-1.96,3.14-3.07
				c0.97-1.11,1.99-2.16,3.05-3.16l0.36,0.23l-0.5,0.18l-0.14,0.55c-0.39,0.24-0.73,0.56-1.02,0.95c-0.29,0.39-0.57,0.77-0.84,1.14
				c0.3,0.21,0.61,0.32,0.91,0.32c0.39,0,0.75-0.11,1.07-0.32c0.32-0.21,0.64-0.39,0.98-0.54l0.14-0.27c0.03,0.24,0.03,0.39,0,0.43
				c-0.03,0.04-0.09,0.17-0.18,0.39l0.41,0.05c0.45,0,0.89-0.12,1.32-0.36c0.42-0.24,0.85-0.44,1.27-0.59l0.18,0.46
				c0.09,0.06,0.2,0.11,0.32,0.14c0.12,0.03,0.24,0.06,0.36,0.09h-0.36c-0.33-0.03-0.65-0.01-0.96,0.07
				c-0.3,0.08-0.61,0.16-0.93,0.25c-0.32,0.09-0.63,0.17-0.93,0.25c-0.3,0.08-0.61,0.11-0.91,0.11c-0.12-0.12-0.27-0.18-0.46-0.18
				c-0.36,0-0.67,0.12-0.91,0.36c-0.12-0.06-0.24-0.09-0.34-0.09c-0.11,0-0.21-0.02-0.3-0.05l-0.18,0.27
				c-0.15,1.4-0.29,2.8-0.41,4.23c-0.12,1.43-0.24,2.86-0.36,4.32l0.23,0.14c0.15-0.03,0.31-0.06,0.48-0.09
				c0.17-0.03,0.33-0.05,0.48-0.05c0.21,0,0.45,0.03,0.7,0.09c0.26,0.06,0.52,0.09,0.8,0.09c0.43,0,0.84-0.01,1.25-0.02
				c0.41-0.01,0.83-0.07,1.25-0.16l0.41,0.32c0.03,0.85,0.07,1.69,0.11,2.52c0.04,0.83,0.07,1.68,0.07,2.52l-0.46,0.32l-0.27-0.46
				c-0.18,0.27-0.51,0.45-0.98,0.52c-0.47,0.08-0.84,0.11-1.11,0.11c-0.55,0-1.05-0.06-1.5-0.18c-0.15,0.18-0.29,0.37-0.43,0.57
				c-0.14,0.2-0.24,0.42-0.3,0.66c-0.27,1.76-0.43,3.53-0.48,5.32c-0.04,1.79-0.22,3.56-0.52,5.32c0.27,0.06,0.55,0.11,0.84,0.14
				c0.29,0.03,0.57,0.04,0.84,0.04c1.36,0,2.73-0.11,4.09-0.32c1.36-0.21,2.73-0.32,4.09-0.32c0.3,0,0.61,0.02,0.91,0.05
				c0.3,0.03,0.61,0.05,0.91,0.05c0.24,0,0.52-0.05,0.84-0.16c0.32-0.11,0.64-0.16,0.98-0.16h0.41c0.12,0,0.26,0.03,0.41,0.09
				C176.38,83.27,176.44,83.68,176.44,84.14 M161.98,78.5c-1.52,0.97-2.98,1.99-4.39,3.07c-1.41,1.08-2.75,2.25-4.02,3.52v0.41v1.09
				c1.03-0.79,2.04-1.62,3.02-2.5c0.98-0.88,2.05-1.65,3.21-2.32l0.32,0.14v-0.18c0-0.12,0.07-0.23,0.21-0.34
				c0.14-0.11,0.3-0.23,0.5-0.36c0.2-0.14,0.39-0.27,0.57-0.41c0.18-0.14,0.3-0.28,0.36-0.43c0.12-0.24,0.17-0.51,0.16-0.82
				C161.9,79.06,161.92,78.77,161.98,78.5 M161.53,81.82l-0.05-0.59c-0.12,0.09-0.39,0.3-0.82,0.61c-0.43,0.32-0.93,0.7-1.5,1.14
				c-0.58,0.44-1.18,0.91-1.82,1.41c-0.64,0.5-1.22,0.96-1.75,1.39c-0.53,0.43-0.98,0.78-1.34,1.07c-0.36,0.29-0.54,0.46-0.54,0.52
				c-0.06,0.15-0.09,0.38-0.09,0.68c0,0.24,0.02,0.48,0.05,0.71c0.03,0.23,0.05,0.46,0.05,0.71c0.12-0.12,0.4-0.36,0.84-0.71
				c0.44-0.35,0.89-0.73,1.34-1.14c0.45-0.41,0.86-0.8,1.23-1.16c0.36-0.36,0.55-0.59,0.55-0.68c0.45-0.27,0.91-0.55,1.36-0.84
				c0.45-0.29,0.91-0.55,1.36-0.8l0.18-0.32l0.14-0.55c0.12-0.15,0.25-0.27,0.39-0.36c0.14-0.09,0.27-0.21,0.39-0.36
				c0-0.15,0.01-0.28,0.02-0.39C161.52,82.05,161.53,81.94,161.53,81.82 M167.3,67.45c0-0.21-0.06-0.44-0.18-0.68l-0.27,0.04
				l-0.27-0.14c-0.15,0.18-0.26,0.34-0.34,0.46c-0.08,0.12-0.25,0.15-0.52,0.09c-0.18,0.3-0.43,0.58-0.75,0.82
				c-0.32,0.24-0.66,0.48-1.02,0.71c-0.36,0.23-0.73,0.45-1.09,0.66c-0.36,0.21-0.68,0.43-0.96,0.64l-0.09-0.18
				c0.39-0.27,0.73-0.53,1.02-0.77c0.29-0.24,0.58-0.47,0.86-0.68c0.29-0.21,0.6-0.43,0.93-0.66c0.33-0.23,0.73-0.48,1.18-0.75
				l-0.32-0.27c-0.48,0.03-0.96,0.05-1.43,0.05h-1.39l-0.23,0.41l0.04-0.55c-0.67-0.09-0.95-0.47-0.86-1.14
				c-0.43,0.3-1.04,0.74-1.84,1.32c-0.8,0.58-1.6,1.21-2.39,1.91c-0.79,0.7-1.47,1.4-2.05,2.11c-0.58,0.71-0.86,1.34-0.86,1.89
				l0.05,0.46c1.3-0.97,2.57-1.97,3.8-3c1.23-1.03,2.49-2.03,3.8-3l-0.14,0.54c-1.24,1.06-2.48,2.12-3.71,3.18
				c-1.23,1.06-2.48,2.09-3.75,3.09c-0.06,0.15-0.1,0.33-0.11,0.52c-0.01,0.2-0.02,0.39-0.02,0.57v0.41
				c1.15-0.91,2.31-1.8,3.48-2.66c1.17-0.86,2.33-1.74,3.48-2.62l0.32,0.05c-1.09,1.12-2.27,2.14-3.52,3.05
				c-1.26,0.91-2.51,1.85-3.75,2.82c-0.15,1.33-0.29,2.65-0.41,3.96c-0.12,1.3-0.21,2.62-0.27,3.96c0.24-0.24,0.47-0.52,0.68-0.84
				c0.21-0.32,0.51-0.49,0.91-0.52l0.41-0.55c0.3-0.12,0.58-0.29,0.84-0.5c0.26-0.21,0.52-0.41,0.8-0.59l0.27-0.5l0.73-0.23
				c0.46-0.36,0.91-0.67,1.36-0.93c0.46-0.26,0.85-0.53,1.18-0.82c0.33-0.29,0.61-0.64,0.82-1.07c0.21-0.43,0.32-1,0.32-1.73
				c-1.12,1.21-2.37,2.3-3.75,3.27c-1.38,0.97-2.7,1.97-3.98,3c-0.15-0.09-0.23-0.26-0.23-0.5v-0.09l0.5-0.32l-0.14-0.23l0.27,0.04
				c0.18,0,0.33-0.07,0.46-0.23c0.12-0.15,0.21-0.3,0.27-0.46l0.46-0.14c0.97-0.91,2-1.76,3.09-2.55c1.09-0.79,2.15-1.61,3.18-2.45
				c0.03-0.43,0.09-0.84,0.18-1.25c0.09-0.41,0.12-0.83,0.09-1.25V72.5c-0.34,0.24-0.64,0.52-0.92,0.84
				c-0.27,0.32-0.58,0.6-0.91,0.84l-0.32-0.09c0.06,0.24-0.02,0.46-0.25,0.66c-0.23,0.2-0.45,0.34-0.66,0.43
				c-0.82,0.79-1.65,1.53-2.5,2.23c-0.85,0.7-1.71,1.39-2.59,2.09c-0.06-0.18-0.09-0.3-0.09-0.36l0.04-0.27
				c0.46-0.64,0.99-1.21,1.61-1.73c0.62-0.51,1.27-1.01,1.96-1.48c0.68-0.47,1.36-0.94,2.05-1.41c0.68-0.47,1.3-0.98,1.84-1.52
				c0.51-0.51,0.98-1.01,1.39-1.5c0.41-0.48,0.96-0.89,1.66-1.23c0.15-0.06,0.29-0.16,0.43-0.3c0.14-0.14,0.27-0.26,0.41-0.39
				c0.14-0.12,0.28-0.23,0.43-0.32c0.15-0.09,0.32-0.14,0.5-0.14l0.09,0.09c-0.46,0.34-0.89,0.7-1.32,1.09
				c-0.43,0.39-0.85,0.76-1.27,1.09c0.24,0.06,0.49,0.11,0.73,0.14c0.24,0.03,0.48,0.04,0.73,0.04c0.64,0,1.23-0.2,1.77-0.59
				c-0.03-0.24-0.03-0.5,0-0.77c0.03-0.27,0.03-0.53,0-0.77v-0.36l-0.36-0.41C167.16,68.2,167.3,67.88,167.3,67.45 M162.25,84.23
				h-0.09c-0.53,0-0.93-0.21-1.18-0.64c0,0.36-0.16,0.6-0.48,0.71c-0.32,0.11-0.58,0.25-0.8,0.43c-1,0.88-1.98,1.79-2.93,2.73
				c-0.96,0.94-1.92,1.88-2.89,2.82l0.32,0.46c0.12,0,0.29,0.01,0.52,0.02c0.23,0.02,0.39-0.04,0.48-0.16
				c0.33,0,0.58-0.01,0.73-0.04c0.42-0.36,0.87-0.77,1.34-1.21c0.47-0.44,0.87-0.9,1.21-1.39l0.04-0.32c0.7-0.3,1.4-0.78,2.11-1.43
				C161.34,85.56,161.88,84.9,162.25,84.23 M161.94,63.22l-0.05-0.5c-0.15,0.15-0.42,0.39-0.82,0.71c-0.39,0.32-0.84,0.69-1.34,1.11
				c-0.5,0.42-1.02,0.86-1.57,1.32c-0.55,0.46-1.05,0.87-1.52,1.25c-0.47,0.38-0.86,0.71-1.16,1c-0.3,0.29-0.49,0.46-0.55,0.52
				c-0.15,0.27-0.2,0.59-0.14,0.95v0.59c0.18-0.21,0.38-0.41,0.59-0.59v-0.54l0.41,0.23c1-0.73,1.99-1.45,2.98-2.16
				c0.98-0.71,1.92-1.51,2.8-2.39c0.15-0.15,0.25-0.39,0.3-0.71C161.91,63.7,161.94,63.43,161.94,63.22 M162.12,60.45
				c0-0.15-0.01-0.28-0.02-0.39c-0.02-0.11-0.04-0.22-0.07-0.34c-0.15,0.15-0.43,0.41-0.84,0.77c-0.41,0.36-0.88,0.78-1.41,1.25
				c-0.53,0.47-1.09,0.97-1.68,1.5c-0.59,0.53-1.12,1.03-1.59,1.5c-0.47,0.47-0.86,0.89-1.18,1.25c-0.32,0.36-0.48,0.61-0.48,0.73
				c0,0.15,0.03,0.3,0.09,0.46c0.06,0.15,0.12,0.29,0.18,0.41c1.27-1,2.44-1.95,3.5-2.84c1.06-0.89,2.18-1.92,3.37-3.07
				C162.07,61.28,162.12,60.87,162.12,60.45 M157.8,49.76c-0.33,0-0.67,0.02-1.02,0.05c-0.35,0.03-0.69,0.11-1.02,0.23v1.68
				c0.33-0.34,0.67-0.67,1-1C157.08,50.38,157.43,50.07,157.8,49.76 M156.98,53.45c-0.09,0.18-0.21,0.34-0.36,0.48
				c-0.15,0.14-0.26,0.31-0.32,0.52l-0.09-0.5l0.45-0.5H156.98z M164.89,84.37c-0.18,0-0.36-0.03-0.54-0.09
				c-0.18-0.06-0.36-0.09-0.55-0.09c-0.3,0-0.76,0.27-1.36,0.82c-0.61,0.54-1.24,1.17-1.91,1.89c-0.67,0.71-1.3,1.4-1.91,2.07
				c-0.61,0.67-1.04,1.11-1.32,1.32l0.27,0.05c0.45,0.03,0.88-0.07,1.27-0.3c0.39-0.23,0.77-0.52,1.14-0.89
				c0.36-0.36,0.71-0.75,1.02-1.16c0.32-0.41,0.63-0.77,0.93-1.07c0.45-0.45,0.96-0.86,1.5-1.23
				C163.98,85.32,164.47,84.88,164.89,84.37 M158.34,52.04c-0.06,0.15-0.19,0.31-0.39,0.48c-0.2,0.17-0.39,0.28-0.57,0.34
				c0.06-0.18,0.2-0.35,0.41-0.5C158.01,52.2,158.19,52.1,158.34,52.04 M159.3,56.45c-0.06,0.12-0.13,0.24-0.21,0.34
				c-0.08,0.11-0.14,0.22-0.2,0.34l-0.68-0.18c0.15-0.12,0.28-0.24,0.39-0.36c0.11-0.12,0.24-0.21,0.39-0.27L159.3,56.45z
				 M158.89,51.9h-0.5v-0.23h0.5V51.9z M160.28,50.04c-0.09,0.18-0.21,0.35-0.36,0.5c-0.15,0.15-0.23,0.35-0.23,0.59
				c-0.15-0.06-0.33-0.06-0.54,0c-0.21,0.06-0.39,0.09-0.54,0.09c0.18-0.12,0.44-0.35,0.77-0.68c0.33-0.33,0.58-0.5,0.77-0.5H160.28
				z M175.58,83.64l-0.59-0.18c-0.3,0.15-0.55,0.29-0.75,0.41c-0.2,0.12-0.38,0.26-0.55,0.41c-0.17,0.15-0.34,0.31-0.5,0.48
				c-0.17,0.17-0.36,0.36-0.57,0.57l-0.32-0.36c0.18-0.12,0.35-0.28,0.5-0.48c0.15-0.2,0.26-0.42,0.32-0.66
				c-0.15-0.15-0.32-0.23-0.5-0.23c-0.36,0-0.7,0.17-1.02,0.5c-0.32,0.33-0.61,0.61-0.89,0.82l-0.23-0.23
				c0.12-0.18,0.23-0.37,0.32-0.57c0.09-0.2,0.12-0.4,0.09-0.61c-0.24-0.03-0.48-0.02-0.73,0.02c-0.24,0.05-0.49,0.04-0.73-0.02
				c-0.09,0.09-0.2,0.22-0.32,0.39c-0.12,0.17-0.26,0.34-0.41,0.52c-0.15,0.18-0.3,0.34-0.43,0.46c-0.14,0.12-0.26,0.18-0.39,0.18
				c-0.06,0-0.11-0.01-0.16-0.04c-0.05-0.03-0.1-0.05-0.16-0.05c0.09-0.24,0.2-0.45,0.34-0.61c0.14-0.17,0.24-0.36,0.3-0.57
				c-0.27,0.15-0.56,0.21-0.86,0.18c-0.3-0.03-0.58,0.01-0.82,0.14c-1.33,0.64-2.54,1.53-3.62,2.68c-1.08,1.15-2.08,2.27-3.02,3.37
				c0.21,0,0.43,0.01,0.64,0.04c0.21,0.03,0.44,0.05,0.68,0.05c0.21,0,0.61-0.23,1.18-0.68c0.58-0.45,1.2-0.98,1.87-1.57
				c0.67-0.59,1.3-1.18,1.89-1.75c0.59-0.58,1.01-0.97,1.25-1.18l0.36,0.23c-0.73,0.88-1.51,1.7-2.34,2.46
				c-0.83,0.76-1.63,1.56-2.39,2.41h0.64c0.46,0.03,0.98,0,1.59-0.09c0.03-0.18,0.14-0.39,0.32-0.64c0.18-0.24,0.39-0.49,0.61-0.73
				c0.23-0.24,0.46-0.48,0.7-0.7c0.24-0.23,0.42-0.43,0.55-0.61l0.32,0.05c-0.12,0.51-0.39,0.97-0.8,1.36
				c-0.41,0.39-0.75,0.8-1.02,1.23c0.57,0,1.14,0.03,1.7,0.09c0.56,0.06,1.14,0.09,1.75,0.09c0-0.09,0.02-0.21,0.07-0.36
				c0.05-0.15,0.1-0.26,0.16-0.32c1.06-0.94,2.09-1.87,3.09-2.8C173.71,85.78,174.67,84.76,175.58,83.64 M162.48,56.81h-0.36v0.27
				h0.36V56.81z M166.48,52.31l-1.32,1.41l-0.32-0.36c0.21-0.21,0.42-0.42,0.64-0.64c0.21-0.21,0.44-0.41,0.68-0.59L166.48,52.31z
				 M167.39,54.63l-0.54,0.09c-0.12,0.18-0.23,0.38-0.32,0.59c-0.09,0.21-0.21,0.39-0.36,0.55l-0.36-0.18
				c0.15-0.24,0.35-0.48,0.59-0.73c0.24-0.24,0.48-0.41,0.73-0.5L167.39,54.63z M170.35,85.09c-0.54,0.7-1.11,1.35-1.68,1.95
				c-0.24-0.12-0.45-0.18-0.64-0.18c0.36-0.34,0.71-0.69,1.05-1.07C169.41,85.42,169.83,85.19,170.35,85.09 M172.44,85.5
				c-0.15,0.09-0.25,0.21-0.3,0.36c-0.04,0.15-0.11,0.29-0.2,0.41l-0.23,0.14l-0.32-0.23c-0.18,0.33-0.3,0.58-0.36,0.73
				c-0.06,0.15-0.23,0.38-0.5,0.68v0.36c-0.33,0.36-0.68,0.72-1.04,1.07c-0.36,0.35-0.74,0.69-1.14,1.02l-0.23-0.18l0.09-0.59
				c0.36-0.15,0.71-0.42,1.05-0.8c0.33-0.38,0.67-0.77,1.02-1.16c0.35-0.39,0.7-0.77,1.05-1.11
				C171.67,85.86,172.04,85.62,172.44,85.5 M169.53,55.04c-0.09,0.18-0.21,0.33-0.34,0.43c-0.14,0.11-0.28,0.24-0.43,0.39
				l-0.18-0.36c0.12-0.12,0.26-0.23,0.43-0.32C169.17,55.08,169.35,55.04,169.53,55.04 M171.85,52.72c-0.24,0.33-0.5,0.65-0.77,0.96
				c-0.27,0.3-0.51,0.64-0.73,1h-0.68c0.12-0.09,0.21-0.19,0.27-0.29c0.06-0.11,0.12-0.24,0.18-0.39l0.32,0.32
				c0.18-0.33,0.38-0.64,0.59-0.91C171.24,53.13,171.51,52.9,171.85,52.72 M175.62,85.78c0-0.12-0.02-0.24-0.05-0.36
				c-0.03-0.12-0.03-0.24,0-0.36l-2.77,1.91c-0.34,0.67-0.77,1.29-1.3,1.86c-0.53,0.58-1.1,1.08-1.7,1.5h1.91l0.09-0.41l0.36,0.23
				l-0.27,0.14h0.64c0.42,0.03,0.9,0.01,1.43-0.07c0.53-0.08,0.96-0.28,1.3-0.61c-0.03-0.34-0.03-0.66,0-0.98
				c0.03-0.32,0.01-0.64-0.04-0.98c-0.34,0.15-0.63,0.33-0.89,0.54c-0.26,0.21-0.54,0.41-0.84,0.59l-0.23-0.36
				c0.12-0.12,0.32-0.3,0.59-0.52c0.27-0.23,0.54-0.47,0.8-0.73c0.26-0.26,0.48-0.51,0.68-0.75
				C175.52,86.17,175.62,85.96,175.62,85.78 M172.8,88.78c0,0.15-0.05,0.32-0.14,0.5c-0.09,0.18-0.11,0.35-0.05,0.5l-0.09,0.05
				c-0.15,0-0.27-0.05-0.36-0.14C172.41,89.38,172.62,89.08,172.8,88.78 M173.21,54.04c-0.06,0.24-0.19,0.44-0.39,0.59
				c-0.2,0.15-0.36,0.32-0.48,0.5c0-0.21,0.11-0.42,0.32-0.64C172.88,54.28,173.06,54.13,173.21,54.04 M173.26,88.82
				c-0.06,0.12-0.14,0.23-0.23,0.32c0.06-0.06,0.1-0.14,0.11-0.23c0.01-0.09,0.04-0.14,0.07-0.14L173.26,88.82z M173.71,84.14
				l-0.18-0.41l-0.18,0.09l0.18,0.32H173.71z"/>
		</g>
	</g>
</g>
<g id="tiktok_2_" class="st0">
</g>
<g id="Layer_5" class="st0">
</g>
<g id="Layer_7" class="st0">
</g>
<g id="Layer_6" class="st0">
</g>
<g id="Layer_8" class="st0">
</g>
<g id="Layer_4" class="st0">
</g>
<g id="Layer_3" class="st0">
</g>
<g id="logo" class="st0">
</g>
<g id="Layer_2" class="st0">
</g>
</svg>
