<?xml version="1.0" encoding="utf-8"?>
<!-- Generator: Adobe Illustrator 25.1.0, SVG Export Plug-In . SVG Version: 6.00 Build 0)  -->
<svg version="1.1" id="Layer_1" xmlns="http://www.w3.org/2000/svg" xmlns:xlink="http://www.w3.org/1999/xlink" x="0px" y="0px"
	 viewBox="0 0 425 244" style="enable-background:new 0 0 425 244;" xml:space="preserve">
	<g>
		<path d="M1.05,140.39c0.38-5.97-3.44-16.46,6.67-13.42c3.44-0.86,7.27-2.2,11.3-0.53c19.52-3.86,39.3,8.24,34.25,30.18
			c0.03,3.94-9.75,12.25-5.68,11.94c28.27,0.69,32.82,42.94,20.44,61.99c-14.98,8.88-45.09,5.92-63.75,6.37
			c-6.56-2.58-4.75-17.15,5.02-12.92c-0.48-25.53,0.79-50.71,0.84-76.26C9.63,140.65,3.09,145.6,1.05,140.39z M47.8,194.79
			c-1.66-7.47-12.52-12.61-19.03-8.62c-1.98,7.06-1.31,14.77-2.41,22.19C37.04,209.31,51.5,210.57,47.8,194.79z M23.3,141.4
			c0.36,8.69-0.61,20.64,10.17,10.97C37.38,146.94,30.22,137.71,23.3,141.4z"/>
		<path d="M424.61,144.02c-8.29,22.83-12.44,46.8-18.47,70.22c-20.6,9.11-12.44-24.48-15.07-36.74
			C387.44,136.77,385.24,141.23,424.61,144.02z"/>
		<path d="M70.58,7.56c2.79,4.43-1.74,11.14-1.5,16.26c-2.73,2.88-9.37-0.42-13.4,0.2C52.61,20.81,56,13.88,56.14,9.58
			C59.91,7.3,66.04,8.48,70.58,7.56z"/>
		<path d="M390.1,243.97c-0.99-14.6-0.45-19.59,15.11-16.45C408.13,242.85,404.16,243.65,390.1,243.97z"/>
		<path d="M144.67,214.54c4.86,28.66-30,20.51-48.12,24.65c-14.86,2.67-14.48-10.73-12.71-21.48
			c1.17-19.09-4.83-42.35,3.63-59.4C159.64,143.89,139.88,155.88,144.67,214.54z M125.72,181.26c4.86-14.79-24.45-16.81-25.37-3.94
			c3.81,20.03-11.45,56.03,22.08,45.03C130.85,214.89,123.47,193.07,125.72,181.26z"/>
		<path d="M215.33,155.66c-6.93,18.12,11.36,79.91-12.04,76.4c-4.74-0.6-8.9,0.73-14.05,1.34
			c-6.01-8.2-16.6-45.24-18.9-39.06c-0.17,12.53,0.23,27.87-1.55,38.91c1.09,3.09-6.62,1.48-8.75,2.18
			c-14.23-4.45-4.47-53.89-6.16-70.4c-2.21-9.41,8.84-3.35,14.7-6.44c14.88,4.47,20.7,44.44,29.53,54.08
			C202.01,194.87,185.81,146.02,215.33,155.66z"/>
		<path d="M135.93,34.39c13.8,14.26,4.18,62.37,3.42,83.44c-3.79,8.79,14.05,24.08-5.17,24.61
			c-6.06-2.54-6.23-17.94-14.01-21.31c-31.32-2.07-39.52,3.35-33.53-33.48C85.64,43.83,85.15,25.88,135.93,34.39z M103.46,52.03
			c-3.68,10.57,0.78,22.38-1.26,33.31c0.04,6.74-5.89,22.78,6.25,20c28.17,3.52,18.89-12.08,20.83-32.69
			c-0.91-9.1,4.26-28.04-10.86-23.06C113.4,50.13,106.98,47.04,103.46,52.03z"/>
		<path d="M308.1,225.83c6.01-24.31-15.97-77.67,25.11-71.73c9.91,0.09,27.83-6.3,33.28,4.55
			c0.27,15.89-0.14,32,1.27,47.89c2.66,17.45-2.54,26.84-20.68,26.71C335.91,232.79,307.88,244.05,308.1,225.83z M349.64,177.59
			c2.01-11.89-16.42-11.35-23.27-6.81c-1.14,10.61-4.59,44.26,2.82,49.99C360.81,226.46,346.99,197.68,349.64,177.59z"/>
		<path d="M275.77,151.53c6.81-26.46-19.46-7.12-32.67-12.75c-5.39-23.2,8.31-15.04,24.98-17.1
			c17.93,0.89,36.39,0.29,54.49,0.73c2.59,0.51,3.01,17.76,0.18,16.46c-8.42,3.6-24.69-1.89-29.64,5.75
			c-0.74,27.25,2.72,56.68,1.25,82.86c-7.8-1.22-20.51,4.19-19.92-8.18C274.81,196.93,277.04,174.01,275.77,151.53z"/>
		<path d="M278.79,37.22c-17.71,2.99-25.24-3.51-22.58,19.13c8.83-0.4,10.99-0.61,10.33,9.1
			c-0.36,4.23-10.42-1.26-9.91,5.46c0.29,6.05-2.45,13.73-0.93,18.97c7.55,2.46,26.79-6.8,26.9,2.77
			c1.48,14.34-8.88,11.59-19.3,11.49c-7.87-3.22-24.6,6.77-25.91-4.27c2.9-15.27-1.14-73.27,9.47-76.05
			C259.7,25.76,285.73,16.94,278.79,37.22z"/>
		<path d="M162.9,82.66c3.03-11.41-9.67-0.54-8.61-11.87c6.86-2.76,19.41-2.69,26.16-0.28c-0.2,3.27,0.82,8.38-4.07,6.28
			c-3.26,13.27-2.52,31.97,0.13,46.44c4.11,20.17,25.64,6.11,25.45-8.75c1.5-11.58,2-23.27,1.67-34.88
			c-3.07,0.48-8.37-5.02-2.39-8.19c7.17,0.08,13.98-0.19,21.11-1.09c3.81,8.66-1.98,6.01-7.55,8.59c3.01,28.55-3.43,81.3-44.07,60.27
			C154.46,127.68,163.08,99.79,162.9,82.66z"/>
		<path d="M69.59,64.55c-1.97,40.43,17.4,47.09-32.88,43.99c6.37-22.74,11.77-48.71,18.62-71.8
			C73.54,30.31,66.93,53.8,69.59,64.55z"/>
		<path d="M258.81,219.46c10.38,21.46-19.59,13.84-30.43,16.05c-1.13-6.53-2.36-15.17,6.88-12.01
			c0.26-17.38,1.56-35.05,0.44-52.52c-11.06,2.46-7.28-6.94-7.84-14.85c10.28-1.64,20.46-1.07,30.44-0.7
			c3.82,16.08-7.87,8.33-8.65,16.87c0.52,15.49-0.51,31.05-0.08,46.45C250.04,221.35,256.84,217.44,258.81,219.46z"/>
		<path d="M256.45,18.56c11.05,2.94,14.38-10.96,19.89-17.21C262.06-3.92,261.82,7.46,256.45,18.56z"/>
	</g>
</svg>
