<?xml version="1.0" encoding="utf-8"?>
<!-- Generator: Adobe Illustrator 25.1.0, SVG Export Plug-In . SVG Version: 6.00 Build 0)  -->
<svg version="1.1" id="Capa_1" xmlns="http://www.w3.org/2000/svg" xmlns:xlink="http://www.w3.org/1999/xlink" x="0px" y="0px"
	 viewBox="0 0 425.2 244.8" style="enable-background:new 0 0 425.2 244.8;" xml:space="preserve">
<style type="text/css">
	.st0{display:none;}
	.st1{display:inline;}
	.st2{fill:#B2DED4;}
	.st3{fill:#FFFFFF;}
</style>
<rect x="445.2" y="-24.6" class="st0" width="425.2" height="283.5"/>
<g id="o5G5vT_9_" class="st0">
	<g class="st1">
		<g>
			<path class="st2" d="M-392.8,130.5c-0.4-1.3,0.2-3.1,0.1-4.4c-0.1-1.3-0.9-3.6-0.3-4.9c1-2,3.3-1,5.2-1c0.6,0,1-0.2,1.4-0.6
				c0.3-0.3,0.8-0.4,1.2-0.6c0.2,0.4,0.3,0.6,0.4,0.9c1.2-0.2,2.3-0.6,3.5-0.7c0.8-0.1,1.6,0,2.2,0.6c0.1,0.1,0.4,0.2,0.6,0.2
				c1.6-0.1,3.2-0.3,4.8-0.4c1.2,0,2.4-0.3,3.6,0.1c0.5,0.1,1.1,0.1,1.6,0.2c0.9,0.2,1.9,0.6,2.8,0.5c1-0.1,1.9,0.2,2.8,0.5
				c1.5,0.4,2.7,1.3,3.9,2.3c0.3,0.3,0.7,0.5,1,0.8c0.6,0.6,1.2,1.1,1.5,1.9c0.7,1.4,1.6,2.8,2.3,4.2c0.9,1.7,1.3,3.5,1.3,5.4
				c0,1.5,0.1,3.1,0.1,4.6c0,0.9,0.1,1.8-0.3,2.5c-1.1,2-1.6,4.4-3.2,6.2c-0.6,0.6-1.1,1.3-1.7,1.9c-0.3,0.3-0.6,0.4-1,0.7
				c0.5,0.6,1.1,0.4,1.6,0.3c1.6-0.3,3.2-0.1,4.7,0.5c1.7,0.7,3.6,1.2,5.1,2.3c1.6,1.1,3,2.7,4.3,4.2c1.4,1.8,2.7,3.7,3.4,5.8
				c0.3,0.8,0.3,1.8,0.5,2.6c0.3,1,0.6,1.9,1,2.9c0.9,2,1.5,4,1.4,6.2c-0.1,1.4,0.1,2.8,0.1,4.2c0,1,0.1,2-0.4,3c0,0,0,0.1,0,0.1
				c0.2,1.7-0.7,3.4-0.7,5c0,1.4-0.6,2.7-0.5,4.1c0,0.1,0,0.2-0.1,0.3c-1,2-1.8,4.1-3.2,5.8c-0.3,0.3-0.5,0.6-0.8,1
				c-0.8,1-1.9,1.3-3.1,1.4c-0.6,0-1.2,0.2-1.8,0.3c-0.4,0-0.8,0-1.3-0.1c-0.3,0.7-1.8,1.2-2.7,1c-0.8-0.2-1.7-0.2-2.6-0.1
				c-0.7,0-1.4,0.1-2.1,0.3c-0.7,0.2-1.4,0.4-2,0.8c-0.5,0.3-0.9,0.6-1.6,0.1c-0.3-0.3-0.9-0.3-1.3-0.3c-2.6-0.1-5.3-0.4-7.9,0.3
				c-0.4,0.1-0.9-0.3-1.3-0.2c-0.9,0-1.8,0.2-2.7,0.3c-1.1,0.2-2.2,0.5-3.3,0.5c-1.9,0.1-3.9-0.1-5.8-0.1c-1,0-1.9,0.1-2.9,0.1
				c-0.9,0-1.9-0.1-2.8-0.1c-0.4,0-0.7,0.2-1.1,0.1c-0.4,0-0.8-0.2-1.3-0.4c-0.3-0.1-0.5-0.2-0.8-0.2c-1.1,0-1.6-0.6-1.6-1.7
				c0-1,0.1-1.9,0-2.9c-0.1-1.4-0.3-2.9-0.5-4.4c2-1.1,4.3-1,6.7-0.7c0-0.8,0-1.4,0-2.1c0-1-0.1-2-0.1-3c0-1.8,0-3.7,0-5.5
				c0-0.5,0.3-1.1,0.1-1.6c-0.5-1.6,0.1-3.2,0-4.8c0-0.9,0.1-1.8,0.1-2.7c0-0.9-0.2-1.8-0.3-2.7c0-0.4,0.1-0.8,0.1-1.2
				c0.1-2,0.3-4,0.3-6c0-1-0.2-2-0.3-3c0-0.3,0.1-0.5,0.1-0.8c0.1-0.6,0.4-1.3,0.4-1.9c0.1-1.4,0-2.8,0-4.1c-0.1-3.5-0.2-7-0.3-10.6
				c0-2.6,0.7-5.3,0.3-7.9c-0.6-4.6-3.1-2.4-5.9-4.2C-392.3,131.6-392.6,131.1-392.8,130.5z M-357.2,171.9c-0.3-1.3-1-2.6-1.8-3.7
				c-0.9-1.2-3.1-2.2-4.4-2.9c-0.5-0.3-1.1-0.5-1.6-0.6c-1-0.2-2-0.4-3-0.3c-1,0-2,0.3-3,0.5c-0.2,0.1-0.5,0.3-0.6,0.5
				c-0.2,0.7-0.2,1.5-0.8,2c0,0,0,0.1,0,0.2c-0.1,2.4-0.2,4.8-0.3,7.2c-0.1,1.6-0.4,3.1-0.6,4.7c-0.1,0.9-0.1,1.7-0.2,2.7
				c1-0.1,1.8-0.1,2.7-0.2c1.8-0.1,3.5,0.3,5.2,0.7c1,0.2,2.1,0.3,3.1,0.2c2.1-0.3,3.5-1.8,4.5-3.6
				C-356.8,177.1-356.6,174.4-357.2,171.9z M-375.8,131.3c0.1,0.2,0.2,0.4,0.2,0.6c0.1,2.2,0.1,4.4,0.2,6.7c0,1.3,0,2.6,0,4
				c0.4-0.2,0.6-0.3,0.8-0.3c0.7-0.1,1.4-0.1,2.1-0.2c1.9,0,3.4-1,4.5-2.4c1-1.3,1.2-2.8,0.7-4.3c-0.3,0-0.5,0-0.9,0
				c0.6-0.9,0.3-1.6-0.4-2.2c-0.4-0.4-0.8-0.8-1.2-1.2c-0.6-0.6-1.2-1.2-2.1-1.2c-0.6,0-1.2-0.2-1.7-0.1
				C-374.5,130.7-375.1,131-375.8,131.3z"/>
			<path class="st2" d="M-70.9,133.3c-0.5,1.3-1,2.5-1.4,3.8c-1.3,4.1-2.5,8.3-3.7,12.5c-0.2,0.8-0.1,1.7-0.3,2.6
				c-0.3,1.3-0.8,2.6-1.1,3.9c-0.4,1.9-0.8,3.7-1.2,5.6c0,0,0,0.1,0,0.1c-0.4,1.4-1,2.7-1.3,4.1c-0.4,1.4-0.8,2.9-0.9,4.3
				c-0.1,1.6-0.6,3-1.2,4.4c-0.6,1.5-1,3.1-1.2,4.8c-0.2,1.8-0.7,3.7-1.1,5.5c-0.1,0.6-0.3,1.2-0.5,1.8c-0.3,0.8-1.1,0.8-1.7,0.9
				c-1.8,0.2-3.6,0.2-5.4-0.3c-0.3-0.1-0.7,0-1.1,0.1c-0.7,0.1-1.2-0.2-1.3-0.9c-0.3-2.5-0.6-5-0.9-7.5c-0.2-2.1-0.3-4.2-0.5-6.3
				c-0.1-1.8-0.2-3.6-0.3-5.4c-0.1-2.9-0.2-5.7-0.3-8.6c-0.1-2.1-0.4-4.2-0.6-6.3c-0.1-1-0.1-1.9-0.2-2.9c0-2.2,0-4.4,0-6.6
				c0-1-0.3-2-0.4-3c0-0.4,0-0.8-0.1-1.3c-0.1-1.2-0.3-2.3-0.3-3.5c0-0.8,0.2-1.5,0.3-2.2c0-0.2,0.4-0.3,0.7-0.3c3.8,0,7.5,0,11.3,0
				c1.2,0,2.4,0,3.6,0c1.2,0,2.4,0.1,3.6,0.1c1.8,0,3.6,0.1,5.4-0.2c0.8-0.1,1.5-0.1,2.1,0.4C-70.9,133-70.9,133.1-70.9,133.3z"/>
			<path class="st2" d="M-339.9,29.6c0.6,0.4,1,1.5,0.7,2.5c-0.2,0.9-0.4,1.9-0.6,2.8c-0.4,1.9-0.8,3.7-1.1,5.6
				c-0.1,0.5-0.1,1-0.2,1.5c0,0.2-0.1,0.6-0.3,0.7c-0.4,0.1-0.9,0.2-1.3,0.2c-0.7,0-1.5-0.2-2.2-0.3c-2.1-0.2-4.3-0.3-6.4-0.5
				c-0.9-0.1-0.8-0.9-0.9-1.4c0-1.1,0-2.1,0.2-3.2c0.2-1.5,0.5-3.1,0.7-4.6c0.1-0.6,0.1-1.2,0.3-1.8c0.3-0.7,1-0.9,1.6-0.9
				c1,0,2.1,0.1,3.1,0.1c0.8,0,1.6-0.1,2.4-0.3c0.2,0,0.4-0.3,0.6-0.4C-342,29.6-341,29.6-339.9,29.6z"/>
			<path class="st2" d="M-97.1,209.2c-0.6-0.3-0.9-1.4-0.7-2.3c0.3-1.7,0.7-3.5,1-5.2c0.3-1.3,0.5-2.6,0.8-3.9c0-0.1,0.1-0.3,0-0.4
				c-0.1-1,0.5-1.7,1.5-1.5c0.8,0.1,1.5,0.2,2.3,0.3c1.7,0.1,3.5,0.2,5.2,0.3c0.4,0,0.9,0.1,1.3,0.1c0.7,0.1,0.7,0.7,0.7,1.1
				c0,1.2,0,2.5-0.2,3.7c-0.2,1.8-0.6,3.5-0.8,5.3c-0.2,1.2-0.8,1.6-1.8,1.7c-0.9,0.1-1.9-0.1-2.8-0.1c-0.8,0-1.6,0-2.4,0.2
				c-0.3,0.1-0.6,0.4-1,0.6C-95,209.2-96,209.2-97.1,209.2z"/>
			<path class="st2" d="M-283.6,186.9c0.1,1.3,0.2,2.6,0.2,3.9c0,0.5-0.2,0.9-0.3,1.4c0,0.1-0.1,0.2-0.1,0.3
				c0.2,1.9-0.8,3.6-1.2,5.4c-0.5,1.8-1.6,2.9-3.3,3.5c-0.7,0.3-1.4,0.8-2.1,1c-0.5,0.1-1-0.1-1.6-0.1c-0.5,0-1-0.1-1.5-0.1
				c-2.3,0.3-4.6,0.5-6.9,1.3c-2.1,0.7-4.3,0.9-6.5,0.9c-0.7,0-1.3-0.3-2-0.3c-0.9,0-1.8,0.1-2.7,0.2c-1.4,0.2-2.8,0.4-4.2,0.6
				c-1.5,0.2-3,0.5-4.5,0.6c-3.2,0.3-6.3-0.1-9-2c-0.7-0.5-1.1-1.1-1.1-2.1c0-1.6-0.2-3.3-0.1-4.9c0.1-2.4,0.5-4.8,0.5-7.3
				c0.1-2-0.1-4-0.1-6c0-0.9-0.1-1.7-0.1-2.6c0-2.1,0-4.2,0-6.3c-0.1-2.8-0.3-5.6-0.3-8.5c0-2.5,0.1-5,0.3-7.5
				c0.2-2.7,0.5-5.4,0.7-8.1c0.1-1,0.1-2.1,0.2-3.1c0.1-1.4,1.1-2.3,2.1-3.1c1.6-1.2,3.4-2,5.5-2c0.5,0,1.1-0.2,1.6-0.3
				c0.7-0.1,1.4,0,2,0c2.5-0.1,5-0.2,7.5-0.3c1.1-0.1,2.2-0.3,3.4-0.5c0.2,0,0.3-0.1,0.5-0.1c2.4-0.1,4.7-0.2,7.1-0.3
				c2.2-0.1,4.5-0.2,6.7-0.1c2.3,0.1,4.5,0.7,6.5,1.9c1,0.6,1.2,1.6,1.4,2.6c0.2,0.9,0.3,2,0,2.8c-0.4,1.4-0.1,2.8,0,4.1
				c0.1,1,0,2,0.1,2.9c0.1,1.3,0.2,2.5,0.3,3.8c0,0.2,0,0.4,0,0.6c0,1.1,0.1,2.2,0,3.2c-0.1,1.2,0.2,2.3-0.1,3.6
				c-0.3,1.2,0.2,2.6,0.2,3.8c0,0.8-0.2,1.6-0.1,2.4c0.2,3,0.4,6,0.6,9.1c0.1,1.8,0.3,3.7,0.4,5.5
				C-283.5,186.8-283.6,186.9-283.6,186.9z M-298,161.6C-298,161.6-298,161.6-298,161.6c0-1.7-0.1-3.3-0.2-5
				c-0.1-1.4-0.9-2.3-2.2-2.8c-0.4-0.1-0.8-0.3-1.2-0.6c-0.7-0.5-1.5-0.7-2.4-0.6c-1.6,0.1-3.2,0.1-4.8,0.2c-1.7,0-3.3,0.2-5,0.6
				c-1.6,0.3-2.6,1-3,2.7c-0.1,0.7-0.4,1.4-0.6,2.1c0,0.2-0.1,0.4-0.1,0.6c0.1,1,0.3,2,0.3,3c0,1.8-0.1,3.5-0.1,5.3
				c0,3.2,0,6.3,0,9.5c0,0.5,0.1,1,0,1.4c-0.2,1.1-0.3,2.1,0.4,3.1c0.1,0.1,0,0.3,0,0.4c0.1,3,0.1,6.1,0.1,9.1c0,1.1,0.3,2,0.9,2.8
				c0.3,0.4,0.5,0.5,1,0.5c0.8,0,1.7,0.1,2.5,0.1c1.9,0,3.8,0.1,5.6-0.1c2-0.2,4-0.8,6-0.9c2.1-0.1,2.4-0.9,2.5-2.7
				c0.1-2.6,0.1-5.1,0.2-7.7c0-0.1,0-0.2,0-0.4c0-0.7,0-1.5,0-2.2c-0.1-0.8-0.3-1.5-0.3-2.3c0-1,0.3-1.9,0.3-2.9c0-3-0.1-6-0.1-8.9
				C-298,164.4-298,163-298,161.6z"/>
			<path class="st2" d="M-229.9,142.1c-0.1,0.8-0.2,1.5-0.3,2.2c0,1.3,0,2.6,0,3.9c0,1.3-0.1,2.5-0.2,3.8c0,0.2-0.1,0.5-0.1,0.7
				c-0.1,2.4,0,4.8-0.2,7.1c-0.4,6.1-0.3,12.1-0.3,18.2c0,3.1,0.2,6.3,0.3,9.4c0.1,2.6,0.2,5.1,0.1,7.7c0,1.5-0.3,3.1-0.4,4.6
				c-1.2,0.1-2.3,0.2-3.4,0.2c-1.6,0.1-3.1,0.1-4.7,0.1c-0.8,0-1.6-0.2-2.3-0.2c-0.3,0-0.6,0.3-1,0.4c0,0-0.1-0.1-0.2-0.3
				c-2.3,0.4-4.7,0.7-7.1,1.1c-5.1-10.6-9.9-21.5-14-32.8c-0.1,0-0.2,0-0.2,0c-0.1,0.7-0.1,1.4-0.2,2.2c0,0.3,0.1,0.6,0.1,0.9
				c0,3.9,0.1,7.7,0,11.6c0,2.6-0.3,5.2-0.4,7.7c-0.1,3-0.2,6-0.3,9.1c0,0.3,0.1,0.6,0.2,1c-0.3,0-0.4,0.1-0.6,0.1c0,0,0,0.1,0,0.1
				c0.1,0.2,0.4,0.6,0.4,0.6c-0.2,0.2-0.5,0.5-0.8,0.6c-1.4,0.2-2.7,0.2-4.1,0.3c-0.7,0.1-1.4,0.2-2.2,0.1c-1.5-0.1-3.1-0.3-4.6-0.4
				c0-0.2-0.1-0.3-0.1-0.5c-0.1-5.3-0.1-10.6-0.2-15.9c-0.1-2.8-0.3-5.6-0.4-8.4c-0.1-1.1-0.1-2.1-0.1-3.2c0-3.5,0-7.1,0-10.6
				c0-2.6,0.4-5.3,0.2-7.9c-0.1-2,0.3-3.9,0.5-5.8c0-0.3,0-0.6,0-0.8c0-1.4,0-2.7,0-4.3c0.6,0.1,0.9,0.2,1.3,0.2c2,0,3.9,0.1,5.9,0
				c1.4-0.1,2.7-0.5,4-0.8c1.1-0.2,2.3-0.4,3.3,0.1c0.3,0.1,0.6,0.4,0.7,0.6c0.8,1.6,1.5,3.2,2.3,4.8c0.9,2.1,1.8,4.3,2.8,6.4
				c1.4,3.1,2.7,6.2,4.2,9.2c1.3,2.5,2.5,4.9,3.4,7.5c0.8,2.2,1.8,4.3,2.7,6.4c0.9,2.1,1.8,4.3,2.6,6.4c0.1,0.1,0.1,0.3,0.3,0.4
				c0-0.2,0-0.5,0-0.7c0-13,0-25.9,0-38.9c0-0.7,0.1-1.1,0.9-1.3c0.3-0.1,0.4-0.8,0.6-1.3c0.2-0.6,0.2-1.2,0.3-1.8
				c0.1-0.6,0.5-0.8,1-0.8c0.8,0.1,1.7,0.3,2.5,0.3c1.3,0,2.5,0,3.8-0.1c0.9,0,1.8-0.2,2.7-0.2
				C-230.8,141.5-230.4,141.9-229.9,142.1z"/>
			<path class="st2" d="M-290.3,50c0.1,0.2,0.1,0.4,0.2,0.7c0.1-0.1,0.2-0.2,0.2-0.1c1.8,1,2.7,2.6,3.7,4.5
				c-0.1,0.7-0.1,1.7,0.5,2.6c0.3,0.4,0.5,1,0.6,1.5c0.1,0.6-0.1,1.2-0.1,1.8c0.1,2.2,0.2,4.3,0.3,6.5c0,1.2-0.2,2.5-0.3,3.7
				c-0.1,2.7-0.1,5.4-0.2,8c0,1.2-0.3,2.4-0.4,3.7c0,0.5,0.1,1,0.1,1.5c-0.2,4.2-0.4,8.5-0.8,12.7c-0.4,4.4,0.4,8.9-0.1,13.3
				c-0.1,0.9-0.3,1.7-0.5,2.6c-0.1,0.2-0.4,0.4-0.6,0.5c-0.4,0.2-0.8,0.4-1.1,0.5c0.5,1.8,1,3.6,1.6,5.4c0.6,2,1.2,3.9,1.8,5.9
				c0.2,0.5,0.6,0.9,0.8,1.4c0.2,0.6,0.3,1.3,0.5,2c-0.1,0-0.1,0-0.2,0c0.2,0.1,0.4,0.3,0.6,0.4c-0.6,0.7-1.5,0.9-2.2,1.2
				c-1.5,0.6-2.9,1.2-4.4,1.8c-0.2,0.1-0.5,0-0.8,0c-0.2,0-0.3,0-0.5,0.1c-1.2,0.7-1.4,0-1.6-1c-0.1-0.5-0.2-1-0.3-1.4
				c-0.1-0.3-0.3-0.5-0.5-0.8c-0.2-0.3-0.4-0.5-0.5-0.8c-0.9-1.8-1.8-3.7-2.7-5.5c-0.7-1.4-1.3-2.8-2-4.1c-0.7-1.2-1.5-2.3-3-2.7
				c-0.8-0.2-1.7-0.2-2.6-0.3c-2-0.2-4-0.3-6-0.6c-0.5-0.1-1,0.1-1.5,0.1c-1.8,0-3.5,0-5.3,0c-1.2,0-2.5,0-3.7,0
				c-1.7,0-3.3-0.3-4.5-1.7c-1-0.1-1.3-1-1.8-1.7c-1-1.2-1.5-2.5-1.4-4.1c0.1-1.5,0.1-3,0.2-4.5c0-1.5,0-2.9,0.3-4.4
				c0.1-0.3-0.2-0.6-0.2-0.8c0.1-0.6,0.3-1.1,0.4-1.6c0.2-1.9,0.4-3.9,0.6-5.8c0.1-0.6,0.1-1.3,0.2-1.9c0.1-4.9,0-9.8,0.2-14.7
				c0.2-4.4,0.5-8.8,0.4-13.2c0.8-2.7,1.2-5.6,3.4-7.6c1.7-1.6,3.8-2.6,6.1-3c1.3-0.3,2.7-0.4,4-0.5c2.3-0.1,4.6,0,6.9-0.2
				c3.7-0.3,7.5-0.5,11.2-0.4c1.1,0,2.1,0.2,3.2,0.6C-291.6,49.7-290.9,49.8-290.3,50z M-314.9,63.4c-0.5,0.7-0.8,1.5-0.7,2.4
				c0,0.7-0.1,1.4-0.1,2.1c-0.1,1.6-0.3,3.2-0.3,4.8c0,1.8,0.3,3.5,0.4,5.3c0.1,2.6,0.2,5.2,0.1,7.8c0,1-0.2,2-0.4,2.9
				c-0.2,1.4-0.4,2.8-0.5,4.2c0,0.4,0.2,0.9,0.1,1.3c-0.6,2-0.6,4-0.6,6c0,0.8,0.2,1.7,0.5,2.4c0.6,2,3.6,1.4,5.2,1.3
				c1-0.1,1.9-0.2,2.9-0.2c2.1,0,4.2,0,6.3,0c1.9,0,4.9,0.4,5.5-1.8c0.2-0.8,0.2-1.8,0.3-2.5c0.2-1.4,0.2-2.9,0.2-4.2
				c0-2,0.4-4,0.5-6c0-1.1,0.1-2.1,0.1-3.2c0-2.2,0.3-4.7,0-6.9c-0.2-1.9,0.1-3.6,0.1-5.5c0-1.8-0.1-3.7-0.3-5.5
				c-0.1-1.7,0-6.5-2.3-7.1c-0.8-0.2-2,0.2-2.8,0.3c-1,0.1-2,0.2-3,0.2c-1.7,0-3.3-0.1-5-0.1c-0.3,0-0.6-0.1-0.9-0.1
				C-311.4,60.7-313.8,61.7-314.9,63.4z"/>
			<path class="st2" d="M-159.4,195.4c0.1-2.1,0.3-4.4,0.4-6.7c0.1-2,0.3-4,0.3-6c0-2.6-0.3-5.2-0.4-7.7c0-1.1,0.1-2.1,0.1-3.2
				c-0.1-2.7-0.3-5.4-0.3-8.2c0-2.8,0.3-5.7,0.4-8.5c0.2-2.7,0.4-5.5,0.6-8.2c0.1-1.7,1.1-2.7,2.4-3.7c1.7-1.2,3.6-1.7,5.6-1.8
				c3.3-0.3,6.7-0.4,10-0.5c1.3,0,2.6-0.4,3.9-0.6c0.4-0.1,0.9,0,1.4,0c2.1-0.1,4.2-0.4,6.2-0.4c3.9-0.1,7.8-0.3,11.5,1.3
				c1.5,0.6,1.9,1.8,2.2,3.1c0.2,0.9,0,1.8-0.1,2.8c-0.2,1.2,0,2.5,0,3.8c0,1,0,1.9,0.1,2.9c0.1,1.2,0.2,2.5,0.3,3.7
				c0,0.2,0,0.4,0,0.6c0,1,0.1,1.9,0,2.9c-0.1,1.3,0.1,2.5-0.1,3.8c-0.2,1.4,0.2,2.9,0.2,4.4c0,1-0.2,2.1-0.1,3.1
				c0.2,2.9,0.2,5.7,0.6,8.5c0.3,1.7,0.1,3.4,0.2,5.1c0.3,3.6-0.5,7-1.7,10.4c-0.4,1-0.9,1.8-1.8,2.2c-1.1,0.6-2.2,1.1-3.3,1.7
				c-0.2,0.1-0.5,0.1-0.7,0c-1.1-0.6-2.3-0.3-3.3-0.1c-1.7,0.3-3.4,0.7-5,1c-0.7,0.2-1.3,0.7-2.2,0.5c-0.7-0.1-1.4,0.3-2.2,0.4
				c-1.7,0-3.3-0.2-5-0.1c-1.9,0.1-3.9,0.4-5.8,0.7c-0.9,0.1-1.7,0.3-2.6,0.3c-1.3,0.1-2.6,0.3-3.9,0.3c-2.6,0.1-5-0.7-7-2.3
				c-0.4-0.3-0.7-0.8-0.8-1.2C-159.3,198.3-159.3,196.9-159.4,195.4z M-127.8,158.8c-0.1,0-0.1,0-0.2,0c0-1,0-2,0-2.9
				c0-1.3-0.6-2.4-1.9-2.9c-0.6-0.2-1.2-0.4-1.7-0.8c-0.6-0.4-1.2-0.5-2-0.5c-3.4,0.1-6.9-0.1-10.2,0.8c-0.8,0.2-1.5,0.4-1.8,1.2
				c-0.7,1.6-1.2,3.2-1,4.9c0,0.4,0.1,0.9,0.1,1.3c0,5.5-0.1,10.9-0.1,16.4c0,0.1,0,0.3,0,0.4c-0.3,0.8,0.1,1.5,0.3,2.2
				c0.1,0.2,0.2,0.4,0.2,0.6c0.1,3,0.1,6,0.2,9c0,0.4,0.1,0.9,0.2,1.3c0.4,1.3,1,1.8,2.4,1.8c1,0,1.9,0.1,2.9,0.1
				c1.6,0,3.2,0,4.7-0.2c1.9-0.3,3.8-0.8,5.7-0.8c0.8,0,1.6-0.3,1.9-1.1c0.2-0.5,0.3-1.1,0.3-1.7c0.1-1.9,0.2-3.8,0.1-5.7
				c0-1.7,0.1-3.5-0.2-5.2c-0.2-1.1,0.2-2.4,0.2-3.5c0-2.1-0.1-4.2-0.1-6.4C-127.9,164.3-127.8,161.5-127.8,158.8z"/>
			<path class="st2" d="M-184,139c0-0.8,0.1-1.5,0.1-2.3c0.1-1.3,1.1-6.2-0.3-7.2c-0.1-0.1-0.1-0.3-0.2-0.6c0.3,0.1,0.4,0.1,0.6,0.2
				c0-0.1,0.1-0.2,0.2-0.5c-0.5-0.1-1-0.3-1.5-0.4c-1-0.1-2.1,0-3.1,0c-0.4,0-0.7,0.1-1.1,0.1c-0.7,0-1.3,0-2,0
				c-0.4,0-0.8,0.2-1.1,0.5c-1.1-0.5-2.3,0.1-3.4,0.1c-0.7,0.1-1.4,0.1-2.1,0.1c-1.8,0.2-3.6,0.6-5.4,0.7c-1.3,0.1-2.5,0.4-3.8,0
				c-0.5-0.2-1.2,0-1.9,0c0.1-0.2,0.1-0.4,0.1-0.6c-1-0.2-0.6-1.1-0.7-1.6c-0.1-0.6,0.1-1.3,0.1-2c0.1-1.7,0.1-3.3,0.2-5
				c0-0.1,0.1-0.3,0.1-0.4c-0.5-0.7-0.1-1.3,0.1-2c0.2-0.9,0.9-1,1.5-1.2c0.7-0.2,1.4,0.1,2.1,0c0.4,0,0.9-0.2,1.3-0.3
				c0.2,0,0.3-0.1,0.5-0.1c1,0,2,0,3,0c0.7,0,1.5,0,2.2,0c0.5,0,0.9-0.1,1.4-0.1c2.4-0.1,4.8-0.4,7.2-0.2c1.5,0.1,3.1-0.4,4.6,0.4
				c0.1,0,0.2,0,0.3,0c0.8,0,1.6-0.1,2.4,0.3c0.4,0.2,1-0.1,1.5-0.1c1.3-0.1,2.5-0.2,3.8-0.3c0.9-0.1,1.8-0.1,2.7-0.1
				c1.2,0,2.5,0.1,3.7,0.1c1,0,2.1,0,3.1,0c0.6,0,1.2,0.2,1.9,0.2c0.9,0.1,1.8,0.1,2.6,0.2c0.3,0,0.6,0,0.9,0c0.9,0,1.8,0,2.7-0.1
				c0.7-0.2,1.4-0.3,2.2-0.2c1.2,0.2,2.5,0.4,3.6,0.2c1.8-0.4,3.6,0,5.4,0.1c0.8,0,0.8,0.7,1,1.3c0.1,0.5,0.3,1.1,0.4,1.6
				c0.1,0.4,0,0.8,0,1.2c0,0.1-0.1,0.2-0.1,0.3c0.3,1.8-0.3,3.7,0.3,5.5c0.1,0.4-0.2,0.9-0.3,1.4c0,0.3,0,0.6,0,0.8
				c0,0.4-0.2,0.7-0.7,0.4c-0.1-0.1-0.3-0.1-0.5,0c-1.4,0.8-3,0.6-4.6,0.7c-4.6,0.3-9.5,0.3-14.1,1.2c-1.1,0.2-2.2,0.5-3.4,0.8
				c-0.2,0-0.3,0.1-0.4,0.2c-0.1,0.6-0.1,1-0.1,1.5c0,2.2,0,4.5,0.4,6.7c0.3,2.1,0.1,4.2-0.1,6.4c-0.5,6.2-0.2,12.3,0.1,18.5
				c0,0.3-0.1,0.7-0.1,1c0.1,3.4,0.2,6.8,0.3,10.3c0,1.3,0.2,2.7,0.3,4c0.1,1.4,0.2,2.9,0.5,4.3c0.2,0.9,0.2,1.9,0.2,2.8
				c0,1.1,0,2.3,0,3.4c0,1,0.1,2,0.1,3c0,0.7-0.1,1.4-0.2,2.1c0,0.2-0.4,0.4-0.7,0.4c-1.6,0-3.1-0.1-4.7-0.1c-1.1,0-2.2,0.1-3.4,0.1
				c-5.1,0.2-6.9-0.7-7.1-6.2c0-0.8-0.3-1.7-0.3-2.5c0-1,0.1-2,0.2-3c0-0.2,0.1-0.5,0.1-0.7c0.1-1,0.3-2,0.3-3
				c0.6-11.3,0.9-23,1-34.3c0-0.4-0.3-0.8-0.3-1.2C-183.9,143.4-184,141.2-184,139z"/>
			<path class="st2" d="M-181.7,52.1c-0.4,0-0.8-0.1-1,0c-1.6,0.7-3.2,0.8-4.9,0.5c-0.4-0.1-0.8,0.1-1.2,0.1c-0.3,0-0.7,0.2-1,0.1
				c-1.5-0.3-2.8,0.4-4.2,0.7c-0.5,0.1-1,0-1.4,0c-0.4,0-0.8-0.1-1.1,0.1c-0.4,0.2-0.7,0.4-1.2,0.2c-0.1,0-0.5,0.5-0.6,0.8
				c-0.2,2.4-0.4,4.8-0.6,7.3c-0.1,1.4-0.3,2.8-0.4,4.2c0,0.4,0.2,0.5,0.6,0.6c1,0,2.1,0.1,3.1,0.1c1,0,2-0.1,3-0.2
				c1-0.2,1.3,0.1,1.4,1c0.1,2,0.2,4,0.3,6c0,0.7-0.1,1.2-0.8,1.3c-0.1-0.2-0.2-0.3-0.3-0.5c0,0-0.1,0-0.1,0
				c-0.6,0.2-1.3,0.6-1.9,0.6c-1,0.1-1.9-0.1-2.9-0.1c-0.2,0-0.4,0.1-0.5,0.2c-0.7,0.7-0.9,1.6-1,2.5c-0.2,2.1-0.3,4.2-0.5,6.3
				c-0.2,2.5-0.5,4.9-0.7,7.4c0,0.4,0,0.7,0.5,0.7c2.4,0.3,4.8,0,7.2-0.3c2.6-0.3,5.3-0.4,7.9-0.4c1,0,1.9-0.1,2.9-0.3
				c0.7-0.2,1.5,0,2.5,0c0,1.1,0,2.1,0,3.1c0,2.2-0.4,4.4-0.9,6.5c-0.4,1.9-0.3,1.6-2.4,2c-1.7,0.3-3.5,0.3-5.2,0.3
				c-1.7,0-3.4-0.2-5.1-0.2c-0.3,0-0.7,0.1-1,0.1c-1.6-0.1-3.2-0.2-4.8-0.3c-0.3,0-0.5,0.1-0.8,0.1c-0.5,0-1,0-1.5,0
				c-2.4-0.1-4.7,0.1-7,0.7c-1.3,0.3-2.7,0.5-4.1-0.1c-0.7-0.3-0.9-0.6-0.7-0.9c-0.2-0.5-0.3-0.8-0.4-1.1c-0.1-0.5-0.1-0.9-0.2-1.4
				c0-0.1-0.1-0.2-0.1-0.3c0.3-1.9-0.4-3.9-0.3-5.9c0.2-2.2,0.5-4.6,0.9-6.8c0.1-0.5,0.2-1,0.3-1.5c0.1-1.7,0-3.5,0.2-5.2
				c0.1-1.8,0.4-3.6,0.6-5.4c0.1-0.5-0.1-0.9,0-1.4c0.3-3.2,0.6-6.4,0.8-9.6c0.2-3.7,0.4-7.5,0.6-11.2c0.1-2,0.2-3.9,0.3-5.9
				c0.1-1.6,0.3-3.2,0.5-4.9c1.2,0.7,2.3-0.1,3.4-0.1c0.4,0,0.8,0,1.2,0.1c0.7,0,1.4,0.1,2.2,0.1c0.7,0,1.5-0.1,2.2-0.1
				c3.1-0.1,6.3-0.1,9.4-0.2c0.9,0.7,1.9,0.4,2.9,0.5c0.9,0.1,1.8,0.1,2.8,0.1c0.2,0,0.3-0.2,0.6-0.4c0.9,1.2,2.2,1.1,3.6,1
				C-180.9,46.1-181.1,49.1-181.7,52.1z"/>
			<path class="st2" d="M-269.8,86.6c-0.5-0.8-0.1-1.6,0.1-2.3c0.2-0.8,0.3-1.6,0.4-2.4c-2.2,0.1-4.3,0.2-6.4,0.4
				c-0.1-0.7-0.1-1.3-0.2-1.9c-0.1-0.9-0.3-1.8-0.4-2.7c0-0.1,0.1-0.3,0.1-0.3c0.8-0.3,1.5-0.9,2.5-0.9c2.3,0.1,4.5,0.1,6.8,0
				c1.2,0,2.3-0.2,3.5-0.3c0.6,0,1.2,0.1,1.8,0.2c1.5,0.1,3,0.3,4.4,0.4c0.5,0,0.8,0.2,0.7,0.7c0,1.3-0.1,2.6-0.2,3.9
				c0,0.4-0.2,0.8-0.3,1.1c-0.1,0.1-0.3,0.2-0.5,0.2c-0.7-0.1-1.4-0.3-2.1-0.4c-0.7-0.1-1,0.5-1,1.3c0,0.7-0.1,1.3-0.1,2
				c0,1,0.1,1.9,0.1,2.9c0,1.8-0.3,3.5-0.4,5.3c-0.1,1.4,0.1,2.9,0.1,4.3c0,1,0,2.2,0,3.3c0,1-0.3,2.4,0,3.4c0.1,0.3,0,0.6,0,0.9
				c0,0.5,0,1,0,1.5c0,0.3,0,0.6-0.1,1c-0.6,2.2,0.8,5.3,1.2,7.4c0.1,0.6,0.1,1.3,0.3,1.9c0.4,1.7,1,3.8,2,5.3
				c0.3,0.4,0.7,0.8,1.1,1c1.9,0.9,4.8,1.9,7,1.3c2.5-0.7,4.9-2.6,6-5c0.9-2,1.7-4,2.6-6c0.4-1,0.7-2,0.7-3.1
				c0.1-2.1,0.7-4.2,0.8-6.2c0.2-3.5,0.2-7,0.3-10.5c0-0.9,0.2-1.9,0.3-2.8c0-0.4-0.1-0.9-0.1-1.3c0-1.2,0.1-2.4,0.1-3.7
				c0-0.7-0.1-1.3-0.2-2c0.1,0,0.2,0,0.4-0.1c0,0,0-0.1,0-0.1c-0.7-0.1-1.5-0.2-2.2-0.3c-0.6-0.1-1.3-0.2-2-0.3
				c0.1-1.3,0.2-2.9,0.4-4.4c0-0.5,1.1-1,1.6-1c0.9,0,1.9,0,2.8-0.1c0.7-0.1,1.1-0.1,1.2,0.2c0.9,0,1.7,0,2.4-0.1
				c0.8,0,1.6-0.1,2.5-0.2c1.1-0.1,2.2-0.2,3.3-0.3c1.3-0.1,2.6-0.3,3.8-0.4c0.9,0.5,0.5,1.4,0.5,2.1c0.1,0.8,0,1.6,0.4,2.4
				c0.1,0.2,0.1,0.4,0.1,0.7c-1.2,0.1-2.4,0.2-3.6,0.3c-1,0.1-2,0.4-2.9,0.6c-0.1,0-0.3,0.3-0.2,0.4c0.6,0.9,0.2,2,0.2,3
				c0,1.4-0.1,2.8-0.1,4.2c0,0.6-0.1,1.2-0.1,1.9c0,1.5,0.1,2.9,0,4.4c-0.1,2-0.4,3.9-0.6,5.9c-0.1,0.8,0,1.6,0,2.3
				c0,1.5,0.1,3,0.1,4.5c0,0.5,0,1-0.1,1.5c-0.3,1.3-0.7,2.6-1.1,3.9c-0.5,1.7-1,3.4-1.8,5.1c-0.6,1.5-1.6,2.8-2.3,4.2
				c-0.9,1.8-2.2,3.3-3.4,4.9c-1.2,1.4-2.8,2.2-4.5,2.7c-0.9,0.3-1.9,0.3-2.7,0.6c-1.4,0.4-2.7-0.1-4,0.3c-0.4,0.1-0.9-0.1-1.3-0.2
				c-2-0.4-4-0.9-6-1.3c-0.8-0.2-1.6-0.4-2.3-0.7c-1.1-0.4-2.3-0.7-3.3-1.3c-1-0.6-2.1-1.2-2.8-2.2c-0.2-0.3-0.6-0.4-0.9-0.6
				c-1-0.9-1.6-2-2.2-3.1c-0.6-1.1-0.5-2.3-0.6-3.5c0-0.7-0.2-1.4-0.2-2.1c0-0.2,0-0.5,0-0.7c0-0.9,0-1.8,0-2.7c0-1,0-2,0-3
				c0-1.1-0.1-2.3-0.1-3.4c0-0.9,0.2-1.9,0.1-2.8c0-1.4-0.3-2.8-0.3-4.2c0-1.5,0.2-3.1,0.3-4.6c0.1-1,0.1-1.9,0.2-2.9
				c0.1-1.9,0.1-3.9,0.2-5.8C-270.2,87.4-270.3,86.8-269.8,86.6z"/>
			<path class="st2" d="M-340.7,72.9c0,1.8,0,3.6,0,5.4c0.1,1.9,0.1,3.7,0.3,5.6c0.5,3.9,0.3,7.8,0.5,11.7c0.1,2.7,0.5,5.3,0.7,8
				c0,0.7-0.3,1.4-0.5,2c-0.1,0.2-0.2,0.6-0.4,0.6c-0.5,0.1-1,0.1-1.5,0.1c-0.5,0-1,0.1-1.5,0.1c-2.8,0-5.6,0-8.4,0
				c-1.7,0-3.3,0-5,0c-0.7,0-1.4-0.1-2.1-0.1c-1.9,0-3.8,0-5.6,0.2c-0.5,0-1,0.3-1.5,0c-0.4-0.2-0.5-0.5-0.3-0.9
				c1.1-3.1,2.2-6.1,3.2-9.3c0.7-2.2,1.3-4.4,1.9-6.7c0.3-1.1,0.2-2.3,0.5-3.4c0.5-2.1,1.2-4.2,1.8-6.3c0.2-0.7,0.2-1.4,0.4-2
				c0.2-0.6,0.4-1.2,0.6-1.9c0.1-0.6,0.1-1.2,0.3-1.7c0.9-2.3,1.4-4.8,1.6-7.2c0.1-1,0.7-1.9,1-2.8c0.5-1.6,0.8-3.3,1.2-4.9
				c0.4-1.7,0.7-3.3,0.9-5c0.1-1,0.5-1.8,1.2-2.5c0.3-0.2,0.7-0.4,1-0.4c1.5-0.1,2.9-0.4,4.4,0.1c0.9,0.3,1.9,0.3,2.9,0.3
				c0.6,0,0.9,0.4,0.9,0.9c0.2,2.2,0.4,4.4,0.6,6.7c0.2,2.2,0.3,4.3,0.5,6.5c0.2,2.4,0.3,4.8,0.5,7.1
				C-340.7,72.9-340.7,72.9-340.7,72.9z"/>
			<path class="st2" d="M-196.9,190.6c0.1,0.1,0.2,0.1,0.3,0.2c1.6,1.5,1,5.9,0.6,7.7c-0.9,3.9-2.5,3.7-6.1,3.6c-2.4,0-4.8,0-7.2,0
				c-2.2,0-4.5,0-6.7,0.2c-1.1,0.1-2.1,0.5-3.2,0.9c-0.5,0.1-0.7,0.2-0.8-0.4c-0.1-0.5-0.2-0.9-0.2-1.3c0-1.6-0.9-6.6,0.3-7.7
				c0.6-0.6,5.3-0.3,5.2-0.1c0.3-0.9,0.3-1.8,0.1-2.7c-0.1-0.6,0-1.2,0-1.8c0-2.6,0.1-5.2,0.2-7.8c0.1-2.7,0.2-5.3,0.3-8
				c0.1-2.5,0.1-5,0.1-7.5c0-3-0.1-5.9-0.1-8.9c0-1-0.1-2.1-0.2-3.2c-1.7-0.3-3.5-0.1-5.2,0.4c-0.4-0.7-0.8-1.3-0.8-2.1
				c0.1-3.2,0-6.3,0-9.6c1.5-0.1,2.7-0.2,4-0.3c1.8-0.2,3.5-0.4,5.3-0.6c0.1,0,0.1,0,0.2,0c1.2-0.1,2.3-0.2,3.5-0.1
				c2.8,0.1,5.7,0,8.4,0.9c0.3,0.1,0.6-0.1,0.9-0.2c0.3-0.1,0.5-0.2,0.8-0.3c0,3.1,0,6,0,9c-1.1,0.1-2.3,0.1-3.4,0.2
				c-0.1,0-0.1,0-0.1,0c-0.8,0.7-1.8,0.6-2.7,0.4c-0.2,0.8-0.4,1.5-0.5,2.2c0,0.3,0.2,0.6,0.3,0.9c0.1,3.2,0.1,6.5,0.2,9.7
				c0,1.5-0.1,3-0.1,4.5c-0.1,3.2-0.1,6.4-0.1,9.6c0,1.2,0.2,2.3,0.1,3.5c0,1.7-0.2,3.4-0.3,5c0,0.5,0.2,1.1,0.2,1.6
				c0,0.4,0,0.9,0,1.3c0,0.3,0,0.6,0,0.7C-202.1,190.9-198.6,189.5-196.9,190.6z"/>
			<path class="st2" d="M-198.7,37.9h6.2l8.9-13.1c0,0-5.6-1.7-9.7,0l-1.5,4.2L-198.7,37.9z"/>
		</g>
	</g>
</g>
<g id="o5G5vT_6_" class="st0">
	<g class="st1">
		<path d="M66,131.2c-0.3-1.3,0.1-2.9,0.1-4.2c-0.1-1.2-0.9-3.5-0.2-4.6c1-1.9,3.2-0.9,5-0.9c0.5,0,0.9-0.2,1.3-0.5
			c0.3-0.3,0.7-0.4,1.1-0.6c0.2,0.4,0.2,0.6,0.3,0.8c1.1-0.2,2.2-0.6,3.3-0.7c0.7-0.1,1.5,0,2.1,0.6c0.1,0.1,0.4,0.2,0.6,0.2
			c1.5-0.1,3.1-0.3,4.6-0.4c1.1,0,2.3-0.3,3.4,0.1c0.5,0.1,1,0.1,1.6,0.2c0.9,0.2,1.8,0.6,2.7,0.5c1-0.1,1.8,0.2,2.7,0.4
			c1.4,0.4,2.6,1.3,3.7,2.2c0.3,0.3,0.6,0.5,0.9,0.8c0.6,0.6,1.1,1.1,1.5,1.8c0.6,1.4,1.5,2.7,2.2,4c0.9,1.6,1.3,3.3,1.2,5.2
			c0,1.5,0.1,3,0.1,4.4c0,0.8,0.1,1.8-0.3,2.4c-1.1,1.9-1.5,4.2-3.1,5.9c-0.6,0.6-1.1,1.2-1.6,1.8c-0.2,0.3-0.6,0.4-0.9,0.7
			c0.5,0.6,1.1,0.4,1.5,0.3c1.6-0.3,3.1-0.1,4.5,0.5c1.6,0.7,3.4,1.2,4.8,2.2c1.5,1.1,2.9,2.5,4.1,4c1.3,1.7,2.5,3.5,3.2,5.6
			c0.3,0.8,0.3,1.7,0.5,2.5c0.3,0.9,0.6,1.9,0.9,2.8c0.8,1.9,1.4,3.8,1.3,5.9c-0.1,1.3,0.1,2.7,0.1,4c0,1,0.1,2-0.4,2.9
			c0,0,0,0.1,0,0.1c0.2,1.7-0.7,3.2-0.7,4.8c0,1.4-0.6,2.6-0.5,3.9c0,0.1,0,0.2-0.1,0.3c-1,1.9-1.7,3.9-3.1,5.5
			c-0.3,0.3-0.5,0.6-0.8,0.9c-0.8,1-1.8,1.2-3,1.3c-0.6,0-1.1,0.2-1.7,0.2c-0.4,0-0.8,0-1.2-0.1c-0.3,0.7-1.8,1.1-2.5,1
			c-0.8-0.2-1.7-0.1-2.5-0.1c-0.7,0-1.4,0.1-2,0.3c-0.7,0.2-1.3,0.4-1.9,0.7c-0.5,0.3-0.9,0.6-1.5,0.1c-0.3-0.2-0.8-0.2-1.3-0.3
			c-2.5-0.1-5-0.4-7.5,0.2c-0.4,0.1-0.8-0.3-1.2-0.2c-0.9,0-1.7,0.2-2.6,0.3c-1.1,0.2-2.1,0.5-3.2,0.5c-1.9,0.1-3.7-0.1-5.6-0.1
			c-0.9,0-1.9,0.1-2.8,0.1c-0.9,0-1.8-0.1-2.7-0.1c-0.3,0-0.7,0.1-1,0.1c-0.4,0-0.8-0.2-1.2-0.3c-0.2-0.1-0.5-0.2-0.7-0.2
			c-1.1,0-1.5-0.6-1.5-1.6c0-0.9,0.1-1.8,0-2.7c-0.1-1.4-0.3-2.7-0.5-4.2c1.9-1,4.1-0.9,6.4-0.6c0-0.7,0-1.4,0-2
			c0-1-0.1-1.9-0.1-2.9c0-1.8,0-3.5,0-5.3c0-0.5,0.3-1.1,0.1-1.5c-0.5-1.6,0.1-3.1,0-4.6c0-0.8,0.1-1.7,0.1-2.6
			c0-0.9-0.2-1.7-0.3-2.6c0-0.4,0.1-0.7,0.1-1.1c0.1-1.9,0.2-3.8,0.3-5.7c0-0.9-0.2-1.9-0.2-2.8c0-0.2,0.1-0.5,0.1-0.8
			c0.1-0.6,0.4-1.2,0.4-1.8c0.1-1.3,0-2.6,0-4c-0.1-3.4-0.2-6.7-0.3-10.1c0-2.5,0.6-5.1,0.3-7.6c-0.6-4.4-3-2.3-5.6-4
			C66.4,132.2,66.1,131.7,66,131.2z M99.9,170.7c-0.3-1.3-0.9-2.5-1.7-3.5c-0.9-1.1-2.9-2.1-4.2-2.8c-0.5-0.3-1-0.5-1.6-0.6
			c-1-0.2-1.9-0.4-2.9-0.3c-1,0-1.9,0.3-2.9,0.5c-0.2,0.1-0.5,0.3-0.6,0.5c-0.2,0.7-0.2,1.4-0.7,1.9c0,0,0,0.1,0,0.2
			c-0.1,2.3-0.1,4.6-0.3,6.9c-0.1,1.5-0.4,3-0.5,4.5c-0.1,0.8-0.1,1.6-0.2,2.6c0.9-0.1,1.7-0.1,2.6-0.2c1.7-0.1,3.3,0.3,5,0.7
			c1,0.2,2,0.3,3,0.2c2-0.3,3.3-1.7,4.3-3.4C100.3,175.7,100.5,173.1,99.9,170.7z M82.1,131.9c0.1,0.2,0.2,0.4,0.2,0.6
			c0.1,2.1,0.1,4.2,0.2,6.4c0,1.3,0,2.5,0,3.8c0.4-0.2,0.6-0.3,0.8-0.3c0.7-0.1,1.3-0.1,2-0.1c1.8,0,3.2-0.9,4.3-2.3
			c0.9-1.2,1.1-2.6,0.7-4.1c-0.3,0-0.5,0-0.9,0c0.6-0.9,0.2-1.5-0.4-2.1c-0.4-0.4-0.8-0.8-1.2-1.2c-0.5-0.6-1.1-1.1-2-1.2
			c-0.5,0-1.1-0.2-1.6-0.1C83.5,131.4,82.8,131.7,82.1,131.9z"/>
		<path d="M373.2,133.8c-0.5,1.2-1,2.4-1.4,3.6c-1.2,4-2.4,7.9-3.6,11.9c-0.2,0.8-0.1,1.7-0.3,2.4c-0.3,1.2-0.8,2.4-1.1,3.7
			c-0.4,1.8-0.7,3.6-1.1,5.4c0,0,0,0.1,0,0.1c-0.4,1.3-0.9,2.6-1.3,3.9c-0.4,1.4-0.7,2.7-0.8,4.1c-0.1,1.5-0.5,2.8-1.1,4.2
			c-0.6,1.5-0.9,3-1.1,4.6c-0.2,1.8-0.7,3.5-1.1,5.2c-0.1,0.6-0.3,1.2-0.5,1.7c-0.3,0.7-1,0.8-1.7,0.9c-1.7,0.2-3.4,0.2-5.1-0.3
			c-0.3-0.1-0.7,0-1,0.1c-0.7,0.1-1.1-0.1-1.2-0.8c-0.3-2.4-0.6-4.8-0.9-7.2c-0.2-2-0.3-4-0.4-6c-0.1-1.7-0.2-3.4-0.3-5.1
			c-0.1-2.7-0.2-5.5-0.3-8.2c-0.1-2-0.4-4-0.6-6c-0.1-0.9-0.1-1.9-0.1-2.8c0-2.1,0-4.2,0-6.3c0-1-0.2-1.9-0.4-2.9
			c0-0.4,0-0.8-0.1-1.2c-0.1-1.1-0.2-2.2-0.2-3.3c0-0.7,0.2-1.4,0.3-2.1c0-0.2,0.4-0.3,0.6-0.3c3.6,0,7.2,0,10.8,0
			c1.1,0,2.3,0,3.4,0c1.1,0,2.3,0.1,3.4,0.1c1.7,0,3.5,0.1,5.1-0.2c0.8-0.1,1.4-0.1,2,0.4C373.2,133.5,373.2,133.7,373.2,133.8z"/>
		<path d="M116.4,34.9c0.6,0.3,0.9,1.5,0.7,2.4c-0.2,0.9-0.4,1.8-0.6,2.7c-0.4,1.8-0.7,3.5-1.1,5.3c-0.1,0.5-0.1,1-0.2,1.5
			c0,0.2-0.1,0.6-0.3,0.7c-0.4,0.1-0.8,0.2-1.2,0.2c-0.7,0-1.4-0.2-2.1-0.3c-2-0.2-4.1-0.3-6.1-0.4c-0.9-0.1-0.8-0.8-0.8-1.3
			c0-1,0-2,0.2-3.1c0.2-1.5,0.4-2.9,0.7-4.4c0.1-0.6,0.1-1.2,0.3-1.7c0.3-0.7,0.9-0.9,1.6-0.9c1,0,2,0.1,3,0.1
			c0.8,0,1.5-0.1,2.3-0.3c0.2,0,0.4-0.3,0.6-0.4C114.4,34.9,115.4,34.9,116.4,34.9z"/>
		<path d="M348.2,206.3c-0.5-0.3-0.9-1.4-0.7-2.2c0.3-1.6,0.7-3.3,1-5c0.2-1.2,0.5-2.5,0.7-3.7c0-0.1,0.1-0.3,0-0.4
			c-0.1-1,0.5-1.6,1.5-1.4c0.7,0.1,1.4,0.2,2.2,0.3c1.7,0.1,3.3,0.2,5,0.3c0.4,0,0.8,0.1,1.3,0.1c0.7,0.1,0.7,0.7,0.7,1.1
			c0,1.2,0,2.4-0.2,3.6c-0.2,1.7-0.6,3.4-0.8,5.1c-0.1,1.2-0.7,1.6-1.8,1.6c-0.9,0-1.8-0.1-2.7-0.1c-0.8,0-1.5,0-2.3,0.2
			c-0.3,0.1-0.6,0.4-0.9,0.5C350.2,206.3,349.2,206.3,348.2,206.3z"/>
		<path d="M170.2,185c0.1,1.2,0.2,2.5,0.2,3.7c0,0.4-0.2,0.9-0.3,1.3c0,0.1-0.1,0.2-0.1,0.3c0.1,1.9-0.7,3.5-1.1,5.2
			c-0.4,1.8-1.5,2.7-3.1,3.4c-0.7,0.3-1.3,0.7-2,0.9c-0.4,0.1-1,0-1.5-0.1c-0.5,0-1-0.1-1.4-0.1c-2.2,0.3-4.4,0.5-6.6,1.3
			c-2,0.7-4.1,0.9-6.2,0.9c-0.6,0-1.3-0.2-1.9-0.3c-0.9,0-1.7,0.1-2.6,0.1c-1.3,0.2-2.7,0.4-4,0.5c-1.4,0.2-2.9,0.4-4.3,0.6
			c-3.1,0.3-6-0.1-8.6-1.9c-0.7-0.5-1.1-1.1-1-2c0-1.6-0.2-3.1-0.1-4.7c0.1-2.3,0.4-4.6,0.5-6.9c0.1-1.9-0.1-3.8-0.1-5.7
			c0-0.8-0.1-1.7-0.1-2.5c0-2,0-4,0-6c-0.1-2.7-0.3-5.4-0.3-8.1c0-2.4,0.1-4.8,0.3-7.1c0.2-2.6,0.5-5.2,0.7-7.8c0.1-1,0.1-2,0.2-3
			c0.1-1.3,1-2.2,2-2.9c1.6-1.2,3.3-1.9,5.3-1.9c0.5,0,1-0.2,1.5-0.3c0.6,0,1.3,0,1.9,0c2.4-0.1,4.8-0.2,7.1-0.3
			c1.1-0.1,2.1-0.3,3.2-0.5c0.2,0,0.3-0.1,0.5-0.1c2.3-0.1,4.5-0.2,6.8-0.3c2.1-0.1,4.3-0.2,6.4-0.1c2.2,0.1,4.3,0.7,6.2,1.8
			c1,0.5,1.1,1.6,1.3,2.4c0.2,0.9,0.2,1.9,0,2.7c-0.4,1.4-0.1,2.6,0,4c0.1,0.9,0,1.9,0.1,2.8c0.1,1.2,0.2,2.4,0.2,3.6
			c0,0.2,0,0.4,0,0.6c0,1,0.1,2.1,0,3.1c-0.1,1.1,0.2,2.2-0.1,3.4c-0.2,1.2,0.1,2.4,0.2,3.7c0,0.8-0.1,1.5-0.1,2.3
			c0.2,2.9,0.4,5.8,0.6,8.7c0.1,1.8,0.3,3.5,0.4,5.2C170.3,185,170.2,185,170.2,185z M156.4,160.8
			C156.5,160.8,156.5,160.8,156.4,160.8c0-1.6-0.1-3.2-0.1-4.8c-0.1-1.4-0.8-2.2-2.1-2.7c-0.4-0.1-0.8-0.3-1.1-0.6
			c-0.7-0.5-1.4-0.7-2.3-0.6c-1.5,0.1-3,0.1-4.6,0.1c-1.6,0-3.2,0.2-4.8,0.5c-1.6,0.3-2.5,1-2.8,2.6c-0.1,0.7-0.4,1.3-0.5,2
			c0,0.2-0.1,0.4-0.1,0.6c0.1,0.9,0.3,1.9,0.3,2.8c0,1.7-0.1,3.4-0.1,5.1c0,3,0,6,0,9.1c0,0.5,0.1,0.9,0,1.4c-0.2,1-0.2,2,0.4,2.9
			c0.1,0.1,0,0.3,0,0.4c0,2.9,0.1,5.8,0.1,8.7c0,1,0.3,1.9,0.8,2.7c0.2,0.4,0.5,0.5,0.9,0.5c0.8,0,1.6,0.1,2.4,0.1
			c1.8,0,3.6,0.1,5.4-0.1c1.9-0.2,3.8-0.8,5.8-0.9c2-0.1,2.3-0.9,2.4-2.6c0.1-2.4,0.1-4.9,0.2-7.3c0-0.1,0-0.2,0-0.4
			c0-0.7,0-1.4,0-2.1c-0.1-0.7-0.3-1.4-0.3-2.2c0-0.9,0.2-1.8,0.2-2.7c0-2.8-0.1-5.7-0.1-8.5C156.4,163.5,156.4,162.2,156.4,160.8z"
			/>
		<path d="M221.4,142.3c-0.1,0.8-0.2,1.5-0.2,2.1c0,1.2,0,2.5,0,3.8c0,1.2-0.1,2.4-0.2,3.6c0,0.2-0.1,0.5-0.1,0.7
			c-0.1,2.3,0,4.5-0.2,6.8c-0.4,5.8-0.2,11.6-0.3,17.4c0,3,0.2,6,0.3,9c0.1,2.4,0.2,4.9,0.1,7.3c0,1.5-0.3,3-0.4,4.4
			c-1.1,0.1-2.2,0.2-3.3,0.2c-1.5,0.1-3,0.1-4.5,0.1c-0.7,0-1.5-0.2-2.2-0.2c-0.3,0-0.6,0.3-1,0.4c0,0-0.1-0.1-0.2-0.3
			c-2.2,0.3-4.4,0.7-6.8,1c-4.9-10.1-9.4-20.6-13.4-31.3c-0.1,0-0.2,0-0.2,0c-0.1,0.7-0.1,1.4-0.2,2.1c0,0.3,0.1,0.6,0.1,0.8
			c0,3.7,0.1,7.4,0,11.1c0,2.5-0.3,4.9-0.4,7.4c-0.1,2.9-0.2,5.8-0.3,8.6c0,0.3,0.1,0.6,0.2,0.9c-0.2,0-0.4,0-0.6,0.1
			c0,0,0,0.1,0,0.1c0.1,0.2,0.4,0.5,0.4,0.6c-0.2,0.2-0.5,0.5-0.8,0.5c-1.3,0.1-2.6,0.2-3.9,0.3c-0.7,0.1-1.4,0.2-2.1,0.1
			c-1.5-0.1-2.9-0.3-4.4-0.4c0-0.2-0.1-0.3-0.1-0.5c-0.1-5-0.1-10.1-0.2-15.1c-0.1-2.7-0.3-5.3-0.4-8c-0.1-1-0.1-2-0.1-3.1
			c0-3.4,0-6.8,0-10.1c0-2.5,0.3-5.1,0.2-7.6c-0.1-1.9,0.3-3.7,0.5-5.5c0-0.3,0-0.5,0-0.8c0-1.3,0-2.6,0-4.1
			c0.5,0.1,0.9,0.2,1.2,0.2c1.9,0,3.7,0.1,5.6,0c1.3-0.1,2.6-0.5,3.9-0.8c1.1-0.2,2.1-0.4,3.2,0.1c0.3,0.1,0.5,0.4,0.7,0.6
			c0.7,1.5,1.5,3,2.2,4.6c0.9,2,1.7,4.1,2.6,6.1c1.3,2.9,2.6,5.9,4,8.8c1.2,2.3,2.4,4.6,3.3,7.1c0.7,2.1,1.7,4.1,2.6,6.1
			c0.9,2,1.7,4.1,2.5,6.1c0.1,0.1,0.1,0.3,0.3,0.4c0-0.2,0-0.5,0-0.7c0-12.4,0-24.7,0-37.1c0-0.7,0.1-1.1,0.9-1.2
			c0.3-0.1,0.4-0.8,0.5-1.2c0.1-0.6,0.2-1.2,0.3-1.7c0.1-0.6,0.4-0.8,0.9-0.7c0.8,0.1,1.6,0.2,2.4,0.3c1.2,0,2.4,0,3.6-0.1
			c0.9,0,1.7-0.2,2.5-0.2C220.6,141.7,221,142.1,221.4,142.3z"/>
		<path d="M163.8,54.3c0.1,0.2,0.1,0.4,0.2,0.7c0.1-0.1,0.2-0.2,0.2-0.1c1.7,0.9,2.6,2.5,3.5,4.3c-0.1,0.7-0.1,1.6,0.5,2.5
			c0.3,0.4,0.5,0.9,0.6,1.4c0.1,0.5-0.1,1.1-0.1,1.7c0.1,2.1,0.2,4.1,0.3,6.2c0,1.2-0.2,2.4-0.3,3.5c-0.1,2.6-0.1,5.1-0.2,7.7
			c0,1.2-0.3,2.3-0.4,3.5c0,0.5,0.1,0.9,0.1,1.4c-0.2,4-0.4,8.1-0.7,12.1c-0.3,4.2,0.4,8.5-0.1,12.7c-0.1,0.8-0.3,1.7-0.5,2.5
			c-0.1,0.2-0.3,0.4-0.6,0.5c-0.3,0.2-0.7,0.3-1,0.5c0.5,1.7,1,3.5,1.5,5.2c0.6,1.9,1.1,3.7,1.8,5.6c0.2,0.5,0.6,0.9,0.8,1.3
			c0.2,0.6,0.3,1.2,0.4,1.9c-0.1,0-0.1,0-0.2,0c0.2,0.1,0.3,0.2,0.6,0.4c-0.6,0.7-1.4,0.9-2.1,1.2c-1.4,0.6-2.8,1.2-4.2,1.7
			c-0.2,0.1-0.5,0-0.8,0c-0.1,0-0.3,0-0.4,0.1c-1.2,0.7-1.3,0-1.5-0.9c-0.1-0.5-0.1-0.9-0.3-1.4c-0.1-0.3-0.3-0.5-0.5-0.7
			c-0.2-0.2-0.4-0.5-0.5-0.8c-0.9-1.7-1.7-3.5-2.6-5.2c-0.6-1.3-1.2-2.6-1.9-3.9c-0.6-1.2-1.5-2.2-2.8-2.6c-0.8-0.2-1.6-0.2-2.5-0.2
			c-1.9-0.2-3.8-0.3-5.7-0.6c-0.5-0.1-1,0.1-1.4,0.1c-1.7,0-3.4,0-5,0c-1.2,0-2.4,0-3.5,0c-1.6,0-3.2-0.2-4.3-1.7
			c-1-0.1-1.2-1-1.7-1.6c-1-1.1-1.4-2.4-1.3-3.9c0.1-1.4,0.1-2.9,0.2-4.3c0-1.4,0-2.8,0.3-4.2c0.1-0.3-0.2-0.6-0.2-0.7
			c0.1-0.6,0.3-1.1,0.4-1.6c0.2-1.9,0.4-3.7,0.6-5.6c0.1-0.6,0.1-1.2,0.1-1.8c0.1-4.7,0-9.3,0.2-14c0.2-4.2,0.5-8.4,0.4-12.6
			c0.8-2.6,1.1-5.3,3.2-7.3c1.6-1.5,3.6-2.5,5.8-2.9c1.3-0.2,2.6-0.4,3.9-0.4c2.2-0.1,4.4,0,6.6-0.2c3.6-0.3,7.1-0.5,10.7-0.4
			c1.1,0,2.1,0.2,3,0.6C162.6,54.1,163.2,54.2,163.8,54.3z M140.3,67.1c-0.5,0.7-0.7,1.5-0.7,2.3c0,0.7-0.1,1.3-0.1,2
			c-0.1,1.5-0.3,3.1-0.3,4.6c0,1.7,0.3,3.3,0.4,5c0.1,2.5,0.1,5,0.1,7.5c0,0.9-0.2,1.9-0.4,2.8c-0.2,1.3-0.4,2.7-0.5,4
			c0,0.4,0.2,0.9,0.1,1.3c-0.6,1.9-0.6,3.8-0.5,5.7c0,0.8,0.2,1.6,0.4,2.3c0.6,1.9,3.5,1.4,5,1.2c0.9-0.1,1.8-0.2,2.8-0.2
			c2,0,4,0,6,0c1.8,0,4.7,0.4,5.3-1.7c0.2-0.7,0.1-1.7,0.3-2.4c0.2-1.3,0.1-2.7,0.2-4.1c0-1.9,0.4-3.8,0.4-5.7c0-1,0.1-2,0.1-3.1
			c0-2.1,0.3-4.4,0-6.6c-0.2-1.8,0.1-3.4,0.1-5.2c0-1.7-0.1-3.5-0.3-5.2c-0.1-1.7,0-6.2-2.2-6.8c-0.8-0.2-1.9,0.2-2.7,0.3
			c-0.9,0.1-1.9,0.2-2.9,0.2c-1.6,0-3.2-0.1-4.7-0.1c-0.3,0-0.6-0.1-0.9-0.1C143.7,64.6,141.4,65.5,140.3,67.1z"/>
		<path d="M288.7,193.2c0.1-2,0.2-4.2,0.4-6.4c0.1-1.9,0.3-3.8,0.3-5.8c0-2.5-0.3-4.9-0.4-7.4c0-1,0.1-2,0.1-3.1
			c-0.1-2.6-0.3-5.2-0.2-7.8c0-2.7,0.2-5.4,0.4-8.1c0.2-2.6,0.4-5.2,0.6-7.9c0.1-1.6,1-2.6,2.2-3.5c1.6-1.2,3.4-1.6,5.3-1.8
			c3.2-0.3,6.4-0.4,9.6-0.4c1.3,0,2.5-0.4,3.8-0.6c0.4-0.1,0.9,0,1.3,0c2-0.1,4-0.4,6-0.4c3.7-0.1,7.4-0.3,11,1.3
			c1.4,0.6,1.8,1.7,2.1,3c0.2,0.9,0,1.7-0.1,2.6c-0.2,1.2,0,2.4,0,3.6c0,0.9,0,1.8,0.1,2.7c0.1,1.2,0.2,2.4,0.2,3.5
			c0,0.2,0,0.4,0,0.6c0,0.9,0.1,1.8,0,2.7c-0.1,1.2,0.1,2.4-0.1,3.6c-0.2,1.3,0.2,2.8,0.2,4.2c0,1-0.2,2-0.1,3
			c0.1,2.7,0.2,5.5,0.6,8.1c0.2,1.6,0.1,3.2,0.2,4.8c0.3,3.4-0.4,6.7-1.6,9.9c-0.4,1-0.9,1.7-1.7,2.1c-1,0.6-2.1,1.1-3.2,1.6
			c-0.2,0.1-0.5,0.1-0.7,0c-1.1-0.6-2.1-0.3-3.2-0.1c-1.6,0.2-3.2,0.6-4.8,1c-0.7,0.1-1.3,0.7-2.1,0.5c-0.6-0.1-1.4,0.3-2.1,0.3
			c-1.6,0-3.2-0.2-4.7-0.1c-1.9,0.1-3.7,0.4-5.5,0.6c-0.8,0.1-1.6,0.2-2.5,0.3c-1.2,0.1-2.5,0.3-3.7,0.3c-2.5,0.1-4.7-0.7-6.7-2.2
			c-0.4-0.3-0.7-0.8-0.7-1.2C288.8,195.9,288.8,194.6,288.7,193.2z M318.9,158.2c0,0-0.1,0-0.1,0c0-0.9,0-1.9,0-2.8
			c0-1.3-0.6-2.3-1.8-2.8c-0.5-0.2-1.1-0.4-1.6-0.8c-0.6-0.4-1.2-0.5-1.9-0.5c-3.3,0.1-6.6-0.1-9.8,0.7c-0.7,0.2-1.4,0.4-1.7,1.2
			c-0.6,1.5-1.1,3.1-0.9,4.7c0,0.4,0.1,0.8,0.1,1.3c0,5.2-0.1,10.4-0.1,15.6c0,0.1,0,0.3,0,0.4c-0.3,0.8,0,1.4,0.3,2.1
			c0.1,0.2,0.1,0.4,0.2,0.6c0.1,2.9,0.1,5.7,0.2,8.6c0,0.4,0,0.9,0.2,1.3c0.4,1.3,0.9,1.7,2.3,1.7c0.9,0,1.9,0.1,2.8,0.1
			c1.5,0,3,0,4.5-0.2c1.8-0.3,3.6-0.8,5.4-0.8c0.7,0,1.5-0.3,1.8-1c0.2-0.5,0.3-1.1,0.3-1.7c0.1-1.8,0.2-3.6,0.1-5.4
			c0-1.7,0.1-3.3-0.2-5c-0.2-1.1,0.2-2.2,0.2-3.4c0-2-0.1-4.1-0.1-6.1C318.8,163.4,318.9,160.8,318.9,158.2z"/>
		<path d="M265.3,139.3c0-0.7,0.1-1.4,0.1-2.2c0.1-1.2,1.1-6-0.2-6.8c-0.1-0.1-0.1-0.3-0.2-0.6c0.3,0.1,0.4,0.1,0.6,0.2
			c0-0.1,0.1-0.2,0.2-0.4c-0.5-0.1-1-0.3-1.4-0.4c-1-0.1-2,0-2.9,0c-0.4,0-0.7,0.1-1.1,0.1c-0.6,0-1.3,0-1.9,0
			c-0.4,0-0.7,0.2-1.1,0.4c-1.1-0.5-2.2,0.1-3.2,0.1c-0.7,0-1.3,0.1-2,0.1c-1.7,0.2-3.4,0.5-5.2,0.7c-1.2,0.1-2.4,0.4-3.7,0
			c-0.5-0.2-1.1,0-1.8,0c0-0.2,0.1-0.4,0.1-0.5c-0.9-0.2-0.5-1-0.6-1.6c-0.1-0.6,0.1-1.3,0.1-1.9c0.1-1.6,0.1-3.2,0.2-4.8
			c0-0.1,0.1-0.3,0.1-0.4c-0.4-0.7-0.1-1.2,0.1-1.9c0.2-0.9,0.9-1,1.4-1.1c0.6-0.2,1.4,0,2,0c0.4,0,0.8-0.2,1.3-0.3
			c0.2,0,0.3-0.1,0.5-0.1c1,0,1.9,0,2.9,0c0.7,0,1.4,0,2.1,0c0.4,0,0.9-0.1,1.3-0.1c2.3-0.1,4.6-0.3,6.8-0.2c1.5,0.1,3-0.4,4.4,0.4
			c0.1,0,0.2,0,0.3,0c0.8,0,1.5-0.1,2.3,0.2c0.4,0.2,1-0.1,1.5-0.1c1.2-0.1,2.4-0.2,3.6-0.3c0.9-0.1,1.7-0.1,2.6-0.1
			c1.2,0,2.4,0.1,3.5,0.1c1,0,2,0,3,0c0.6,0,1.2,0.1,1.8,0.2c0.8,0.1,1.7,0.1,2.5,0.2c0.3,0,0.6,0,0.9,0c0.9,0,1.7,0,2.6-0.1
			c0.7-0.1,1.3-0.3,2.1-0.2c1.1,0.2,2.4,0.4,3.5,0.1c1.8-0.3,3.4,0,5.2,0.1c0.8,0,0.8,0.7,0.9,1.2c0.1,0.5,0.3,1,0.4,1.6
			c0.1,0.4,0,0.7,0,1.1c0,0.1-0.1,0.2-0.1,0.3c0.3,1.8-0.3,3.5,0.2,5.3c0.1,0.4-0.2,0.9-0.2,1.4c0,0.3,0,0.5,0,0.8
			c0,0.4-0.2,0.6-0.7,0.3c-0.1-0.1-0.3-0.1-0.4,0c-1.4,0.8-2.9,0.6-4.3,0.7c-4.4,0.3-9.1,0.3-13.5,1.2c-1.1,0.2-2.1,0.5-3.2,0.7
			c-0.2,0-0.3,0.1-0.3,0.1c0,0.5-0.1,1-0.1,1.4c0,2.1,0,4.3,0.4,6.4c0.3,2,0.1,4.1,0,6.1c-0.4,5.9-0.2,11.7,0.1,17.6
			c0,0.3-0.1,0.6-0.1,1c0.1,3.3,0.2,6.5,0.3,9.8c0,1.3,0.2,2.6,0.3,3.8c0.1,1.4,0.2,2.8,0.5,4.1c0.2,0.9,0.2,1.8,0.2,2.7
			c0,1.1,0,2.2,0,3.2c0,1,0.1,1.9,0.1,2.9c0,0.7,0,1.4-0.2,2.1c0,0.2-0.4,0.4-0.6,0.4c-1.5,0-3-0.1-4.5-0.1c-1.1,0-2.1,0.1-3.2,0.1
			c-4.9,0.2-6.5-0.7-6.8-6c0-0.8-0.2-1.6-0.2-2.4c0-0.9,0.1-1.9,0.2-2.8c0-0.2,0.1-0.5,0.1-0.7c0.1-1,0.3-1.9,0.3-2.9
			c0.6-10.8,0.9-21.9,1-32.8c0-0.4-0.2-0.8-0.3-1.1C265.3,143.5,265.2,141.4,265.3,139.3z"/>
		<path d="M267.5,56.4c-0.4,0-0.7-0.1-1,0c-1.5,0.7-3.1,0.8-4.7,0.5c-0.4-0.1-0.7,0.1-1.1,0.1c-0.3,0-0.7,0.2-1,0.1
			c-1.4-0.2-2.7,0.4-4,0.6c-0.4,0.1-0.9,0-1.4,0c-0.4,0-0.8-0.1-1.1,0.1c-0.4,0.2-0.7,0.4-1.2,0.2c-0.1,0-0.5,0.4-0.5,0.7
			c-0.2,2.3-0.4,4.6-0.6,6.9c-0.1,1.3-0.3,2.7-0.4,4c0,0.4,0.2,0.5,0.6,0.5c1,0,2,0.1,3,0.1c1,0,1.9-0.1,2.9-0.2
			c0.9-0.1,1.3,0.1,1.3,1c0.1,1.9,0.2,3.8,0.3,5.7c0,0.6-0.1,1.1-0.8,1.3c-0.1-0.1-0.2-0.3-0.3-0.5c0,0-0.1,0-0.1,0
			c-0.6,0.2-1.2,0.5-1.8,0.6c-0.9,0.1-1.8-0.1-2.8-0.1c-0.2,0-0.3,0.1-0.5,0.2c-0.7,0.7-0.9,1.5-1,2.4c-0.2,2-0.3,4-0.4,6
			c-0.2,2.4-0.5,4.7-0.7,7c0,0.4,0,0.6,0.5,0.7c2.3,0.3,4.6,0,6.9-0.3c2.5-0.3,5-0.4,7.5-0.4c1,0,1.8-0.1,2.8-0.3
			c0.7-0.2,1.4,0,2.4,0c0,1,0,2,0,3c0,2.1-0.4,4.2-0.9,6.2c-0.4,1.8-0.3,1.5-2.3,1.9c-1.6,0.3-3.3,0.3-5,0.3c-1.6,0-3.3-0.2-4.9-0.2
			c-0.3,0-0.7,0.1-1,0.1c-1.5-0.1-3.1-0.2-4.6-0.3c-0.2,0-0.5,0.1-0.8,0.1c-0.5,0-1,0-1.4,0c-2.3-0.1-4.5,0.1-6.7,0.6
			c-1.3,0.3-2.6,0.4-3.9-0.1c-0.6-0.3-0.8-0.6-0.7-0.9c-0.2-0.5-0.3-0.7-0.4-1c-0.1-0.4-0.1-0.9-0.2-1.3c0-0.1-0.1-0.2-0.1-0.3
			c0.3-1.8-0.4-3.8-0.3-5.6c0.2-2.1,0.5-4.4,0.9-6.5c0.1-0.5,0.2-1,0.3-1.5c0.1-1.6,0-3.3,0.2-4.9c0.1-1.7,0.4-3.5,0.6-5.2
			c0-0.4-0.1-0.9,0-1.3c0.3-3.1,0.6-6.1,0.7-9.2c0.2-3.6,0.4-7.1,0.6-10.7c0.1-1.9,0.2-3.8,0.3-5.6c0.1-1.5,0.3-3.1,0.4-4.7
			c1.1,0.7,2.2-0.1,3.3-0.1c0.4,0,0.8,0,1.1,0.1c0.7,0,1.4,0.1,2.1,0.1c0.7,0,1.4-0.1,2.1-0.1c3-0.1,6-0.1,9-0.2
			c0.8,0.7,1.9,0.4,2.8,0.5c0.9,0.1,1.8,0.1,2.6,0.1c0.2,0,0.3-0.2,0.5-0.4c0.9,1.1,2.1,1.1,3.4,1C268.2,50.6,268,53.5,267.5,56.4z"
			/>
		<path d="M183.4,89.3c-0.5-0.8-0.1-1.5,0.1-2.2c0.2-0.7,0.3-1.5,0.4-2.3c-2.1,0.1-4.1,0.2-6.1,0.3c-0.1-0.6-0.1-1.2-0.2-1.9
			c-0.1-0.9-0.3-1.7-0.4-2.6c0-0.1,0.1-0.3,0.1-0.3c0.8-0.3,1.5-0.9,2.4-0.8c2.2,0.1,4.3,0.1,6.5,0c1.1,0,2.2-0.2,3.3-0.3
			c0.6,0,1.1,0.1,1.7,0.1c1.4,0.1,2.8,0.3,4.2,0.4c0.5,0,0.7,0.2,0.7,0.6c0,1.2-0.1,2.5-0.2,3.7c0,0.4-0.2,0.7-0.3,1
			c-0.1,0.1-0.3,0.2-0.5,0.2c-0.7-0.1-1.3-0.3-2-0.4c-0.7-0.1-1,0.4-0.9,1.3c0,0.6-0.1,1.3-0.1,1.9c0,0.9,0.1,1.9,0.1,2.8
			c0,1.7-0.3,3.4-0.4,5.1c-0.1,1.4,0.1,2.7,0.1,4.1c0,1,0,2.1,0,3.1c0,1-0.3,2.3,0,3.2c0.1,0.3,0,0.6,0,0.9c0,0.5,0,1,0,1.4
			c0,0.3,0,0.6-0.1,0.9c-0.6,2.1,0.7,5,1.1,7.1c0.1,0.6,0.1,1.2,0.3,1.8c0.4,1.6,1,3.6,1.9,5c0.2,0.4,0.6,0.7,1,0.9
			c1.8,0.9,4.6,1.8,6.6,1.2c2.4-0.7,4.7-2.5,5.7-4.8c0.9-1.9,1.7-3.8,2.4-5.8c0.4-1,0.7-1.9,0.7-3c0.1-2,0.7-4,0.8-5.9
			c0.2-3.3,0.2-6.7,0.3-10c0-0.9,0.2-1.8,0.3-2.7c0-0.4-0.1-0.8-0.1-1.3c0-1.2,0.1-2.3,0.1-3.5c0-0.6-0.1-1.3-0.2-1.9
			c0.1,0,0.2,0,0.3-0.1c0,0,0-0.1,0-0.1c-0.7-0.1-1.4-0.2-2.1-0.3c-0.6-0.1-1.2-0.2-1.9-0.3c0.1-1.3,0.2-2.7,0.3-4.2
			c0-0.5,1-1,1.5-1c0.9,0,1.8,0,2.6-0.1c0.7-0.1,1-0.1,1.2,0.1c0.9,0,1.6,0,2.3-0.1c0.8,0,1.6-0.1,2.3-0.1c1.1-0.1,2.1-0.2,3.2-0.3
			c1.2-0.1,2.4-0.2,3.7-0.4c0.9,0.4,0.5,1.3,0.5,2c0.1,0.8,0,1.6,0.4,2.3c0.1,0.2,0.1,0.4,0.1,0.7c-1.2,0.1-2.3,0.2-3.4,0.3
			c-0.9,0.1-1.9,0.4-2.8,0.6c-0.1,0-0.3,0.3-0.2,0.4c0.6,0.9,0.2,1.9,0.2,2.8c0,1.3-0.1,2.7-0.1,4c0,0.6-0.1,1.2-0.1,1.8
			c0,1.4,0.1,2.8,0,4.2c-0.1,1.9-0.4,3.8-0.5,5.6c-0.1,0.7,0,1.5,0,2.2c0,1.4,0.1,2.9,0.1,4.3c0,0.5,0,1-0.1,1.4
			c-0.3,1.2-0.7,2.5-1.1,3.7c-0.5,1.6-1,3.3-1.7,4.8c-0.6,1.4-1.5,2.6-2.2,4c-0.9,1.7-2.1,3.2-3.3,4.7c-1.1,1.3-2.6,2.1-4.3,2.6
			c-0.9,0.3-1.8,0.3-2.6,0.5c-1.3,0.3-2.6-0.1-3.8,0.3c-0.4,0.1-0.8-0.1-1.2-0.2c-1.9-0.4-3.8-0.8-5.8-1.3c-0.8-0.2-1.5-0.4-2.2-0.6
			c-1.1-0.4-2.2-0.7-3.2-1.3c-0.9-0.6-2-1.1-2.7-2.1c-0.2-0.3-0.6-0.4-0.9-0.6c-0.9-0.8-1.5-1.9-2.1-3c-0.6-1.1-0.5-2.2-0.6-3.4
			c0-0.7-0.2-1.3-0.2-2c0-0.2,0-0.5,0-0.7c0-0.8,0-1.7,0-2.5c0-0.9,0-1.9,0-2.8c0-1.1-0.1-2.2-0.1-3.3c0-0.9,0.1-1.8,0.1-2.7
			c0-1.3-0.3-2.6-0.2-4c0-1.5,0.2-2.9,0.3-4.4c0.1-0.9,0.1-1.8,0.1-2.8c0.1-1.9,0.1-3.7,0.2-5.6C182.9,90.1,182.9,89.5,183.4,89.3z"
			/>
		<path d="M115.7,76.2c0,1.7,0,3.4,0,5.1c0.1,1.8,0.1,3.6,0.3,5.3c0.5,3.7,0.3,7.4,0.4,11.1c0.1,2.5,0.5,5.1,0.7,7.6
			c0,0.6-0.3,1.3-0.5,1.9c-0.1,0.2-0.2,0.5-0.4,0.6c-0.4,0.1-0.9,0.1-1.4,0.1c-0.5,0-1,0.1-1.5,0.1c-2.7,0-5.3,0-8,0
			c-1.6,0-3.2,0-4.8,0c-0.7,0-1.3-0.1-2-0.1c-1.8,0-3.6,0-5.4,0.2c-0.5,0-0.9,0.2-1.4,0c-0.4-0.2-0.5-0.4-0.3-0.9
			c1-2.9,2.1-5.9,3-8.8c0.7-2.1,1.2-4.2,1.8-6.4c0.3-1,0.2-2.2,0.5-3.2c0.5-2,1.1-4,1.7-6c0.2-0.6,0.2-1.3,0.4-1.9
			c0.2-0.6,0.4-1.2,0.5-1.8c0.1-0.5,0.1-1.1,0.3-1.7c0.8-2.2,1.3-4.5,1.5-6.9c0.1-0.9,0.7-1.8,1-2.7c0.4-1.6,0.8-3.1,1.1-4.7
			c0.3-1.6,0.7-3.2,0.9-4.8c0.1-1,0.5-1.7,1.2-2.3c0.3-0.2,0.6-0.4,1-0.4c1.4-0.1,2.8-0.4,4.2,0.1c0.9,0.3,1.8,0.3,2.7,0.3
			c0.6,0,0.8,0.3,0.9,0.9c0.2,2.1,0.4,4.2,0.6,6.4c0.2,2.1,0.3,4.1,0.4,6.2C115.3,71.6,115.5,73.9,115.7,76.2
			C115.7,76.2,115.7,76.2,115.7,76.2z"/>
		<path d="M253,188.6c0.1,0.1,0.2,0.1,0.3,0.2c1.5,1.4,1,5.6,0.6,7.4c-0.8,3.8-2.4,3.5-5.8,3.5c-2.3,0-4.6,0-6.9,0
			c-2.1,0-4.3,0-6.4,0.2c-1,0.1-2,0.5-3,0.8c-0.4,0.1-0.7,0.1-0.8-0.4c-0.1-0.4-0.2-0.9-0.2-1.3c0-1.5-0.8-6.3,0.3-7.4
			c0.6-0.5,5-0.3,4.9-0.1c0.3-0.8,0.3-1.7,0.1-2.6c-0.1-0.5,0-1.1,0-1.7c0-2.5,0.1-5,0.1-7.5c0.1-2.5,0.2-5.1,0.3-7.6
			c0.1-2.4,0.1-4.8,0.1-7.2c0-2.8-0.1-5.7-0.1-8.5c0-1-0.1-2-0.2-3c-1.6-0.3-3.3-0.1-5,0.4c-0.4-0.6-0.7-1.2-0.7-2c0.1-3,0-6,0-9.1
			c1.4-0.1,2.6-0.2,3.8-0.3c1.7-0.2,3.4-0.4,5.1-0.5c0.1,0,0.1,0,0.2,0c1.1,0,2.2-0.2,3.4-0.1c2.7,0.1,5.4,0,8,0.9
			c0.2,0.1,0.6-0.1,0.9-0.2c0.2-0.1,0.5-0.2,0.8-0.2c0,2.9,0,5.8,0,8.6c-1.1,0.1-2.2,0.1-3.3,0.2c0,0-0.1,0-0.1,0
			c-0.8,0.7-1.7,0.5-2.6,0.4c-0.2,0.8-0.4,1.4-0.5,2.1c0,0.3,0.2,0.6,0.2,0.9c0.1,3.1,0.1,6.2,0.1,9.3c0,1.4-0.1,2.9-0.1,4.3
			c-0.1,3-0.1,6.1-0.1,9.1c0,1.1,0.1,2.2,0.1,3.4c0,1.6-0.2,3.2-0.3,4.8c0,0.5,0.2,1,0.2,1.6c0,0.4,0,0.8,0,1.2c0,0.3,0,0.5,0,0.6
			C248,188.9,251.3,187.5,253,188.6z"/>
		<path d="M251.3,42.8h5.9l8.5-12.5c0,0-5.4-1.6-9.2,0l-1.4,4L251.3,42.8z"/>
	</g>
</g>
<g>
	<path class="st3" d="M0.3,140.6c0.4-6-3.5-16.5,6.7-13.5c3.4-0.9,7.3-2.2,11.3-0.5c19.6-3.9,39.4,8.3,34.4,30.3
		c0,4-9.8,12.3-5.7,12c28.4,0.7,32.9,43.1,20.5,62.2c-15,8.9-45.2,5.9-63.9,6.4c-6.6-2.6-4.8-17.2,5-13c-0.5-25.6,0.8-50.9,0.8-76.5
		C8.9,140.8,2.4,145.8,0.3,140.6z M47.2,195.1c-1.7-7.5-12.6-12.6-19.1-8.6c-2,7.1-1.3,14.8-2.4,22.3
		C36.4,209.7,50.9,211,47.2,195.1z M22.7,141.6c0.4,8.7-0.6,20.7,10.2,11C36.8,147.1,29.6,137.9,22.7,141.6z"/>
	<path class="st3" d="M425.2,144.2c-8.3,22.9-12.5,46.9-18.5,70.4c-20.7,9.1-12.5-24.6-15.1-36.8
		C387.9,136.9,385.7,141.4,425.2,144.2z"/>
	<path class="st3" d="M70.1,7.3c2.8,4.4-1.7,11.2-1.5,16.3c-2.7,2.9-9.4-0.4-13.4,0.2c-3.1-3.2,0.3-10.2,0.5-14.5
		C59.4,7.1,65.5,8.3,70.1,7.3z"/>
	<path class="st3" d="M390.6,244.5c-1-14.6-0.5-19.6,15.2-16.5C408.7,243.3,404.7,244.1,390.6,244.5z"/>
	<path class="st3" d="M144.4,214.9c4.9,28.8-30.1,20.6-48.3,24.7c-14.9,2.7-14.5-10.8-12.7-21.5c1.2-19.1-4.8-42.5,3.6-59.6
		C159.4,144.1,139.6,156.1,144.4,214.9z M125.4,181.6c4.9-14.8-24.5-16.9-25.4-4c3.8,20.1-11.5,56.2,22.1,45.2
		C130.5,215.3,123.1,193.4,125.4,181.6z"/>
	<path class="st3" d="M215.3,155.9c-7,18.2,11.4,80.2-12.1,76.6c-4.8-0.6-8.9,0.7-14.1,1.3c-6-8.2-16.7-45.4-19-39.2
		c-0.2,12.6,0.2,28-1.6,39c1.1,3.1-6.6,1.5-8.8,2.2c-14.3-4.5-4.5-54.1-6.2-70.6c-2.2-9.4,8.9-3.4,14.7-6.5
		c14.9,4.5,20.8,44.6,29.6,54.2C201.9,195.2,185.7,146.2,215.3,155.9z"/>
	<path class="st3" d="M135.6,34.2c13.8,14.3,4.2,62.6,3.4,83.7c-3.8,8.8,14.1,24.1-5.2,24.7c-6.1-2.5-6.3-18-14.1-21.4
		c-31.4-2.1-39.6,3.4-33.6-33.6C85.2,43.7,84.7,25.7,135.6,34.2z M103.1,51.9c-3.7,10.6,0.8,22.4-1.3,33.4c0,6.8-5.9,22.9,6.3,20.1
		c28.3,3.5,18.9-12.1,20.9-32.8c-0.9-9.1,4.3-28.1-10.9-23.1C113,50,106.6,46.9,103.1,51.9z"/>
	<path class="st3" d="M308.3,226.3c6-24.4-16-77.9,25.2-72c9.9,0.1,27.9-6.3,33.4,4.6c0.3,15.9-0.1,32.1,1.3,48
		c2.7,17.5-2.5,26.9-20.7,26.8C336.2,233.2,308.1,244.5,308.3,226.3z M350,177.9c2-11.9-16.5-11.4-23.3-6.8
		c-1.1,10.6-4.6,44.4,2.8,50.1C361.2,226.9,347.3,198,350,177.9z"/>
	<path class="st3" d="M275.9,151.7c6.8-26.5-19.5-7.1-32.8-12.8c-5.4-23.3,8.3-15.1,25.1-17.2c18,0.9,36.5,0.3,54.7,0.7
		c2.6,0.5,3,17.8,0.2,16.5c-8.4,3.6-24.8-1.9-29.7,5.8c-0.7,27.3,2.7,56.9,1.3,83.1c-7.8-1.2-20.6,4.2-20-8.2
		C274.9,197.3,277.2,174.3,275.9,151.7z"/>
	<path class="st3" d="M278.9,37.1c-17.8,3-25.3-3.5-22.6,19.2c8.9-0.4,11-0.6,10.4,9.1c-0.4,4.2-10.4-1.3-9.9,5.5
		c0.3,6.1-2.5,13.8-0.9,19c7.6,2.5,26.9-6.8,27,2.8c1.5,14.4-8.9,11.6-19.4,11.5c-7.9-3.2-24.7,6.8-26-4.3
		c2.9-15.3-1.1-73.5,9.5-76.3C259.8,25.6,285.9,16.7,278.9,37.1z"/>
	<path class="st3" d="M162.7,82.7c3-11.4-9.7-0.5-8.6-11.9c6.9-2.8,19.5-2.7,26.2-0.3c-0.2,3.3,0.8,8.4-4.1,6.3
		c-3.3,13.3-2.5,32.1,0.1,46.6c4.1,20.2,25.7,6.1,25.5-8.8c1.5-11.6,2-23.3,1.7-35c-3.1,0.5-8.4-5-2.4-8.2c7.2,0.1,14-0.2,21.2-1.1
		c3.8,8.7-2,6-7.6,8.6c3,28.6-3.4,81.6-44.2,60.5C154.2,127.8,162.9,99.8,162.7,82.7z"/>
	<path class="st3" d="M69.1,64.5c-2,40.6,17.5,47.2-33,44.1c6.4-22.8,11.8-48.9,18.7-72C73,30.2,66.4,53.7,69.1,64.5z"/>
	<path class="st3" d="M258.9,219.9c10.4,21.5-19.7,13.9-30.5,16.1c-1.1-6.5-2.4-15.2,6.9-12.1c0.3-17.4,1.6-35.2,0.4-52.7
		c-11.1,2.5-7.3-7-7.9-14.9c10.3-1.6,20.5-1.1,30.5-0.7c3.8,16.1-7.9,8.4-8.7,16.9c0.5,15.5-0.5,31.1-0.1,46.6
		C250.1,221.8,256.9,217.9,258.9,219.9z"/>
	<path class="st3" d="M256.5,18.4c11.1,2.9,14.4-11,20-17.3C262.1-4.2,261.9,7.2,256.5,18.4z"/>
</g>
</svg>
